STARTFONT 2.1
FONT -ADECW-Gotic-Medium-R-Normal--24-240-75-75-M-240-KSC5601.1987-1
SIZE 24 75 75
FONTBOUNDINGBOX 24 24 0 -6

STARTPROPERTIES 26
FOUNDRY "ADECW"
FAMILY_NAME "Gotic"
WEIGHT_NAME "Medium"
SLANT "R"
SETWIDTH_NAME "Normal"
ADD_STYLE_NAME ""
PIXEL_SIZE 24
POINT_SIZE 240
RESOLUTION_X 75
RESOLUTION_Y 75
SPACING "M"
AVERAGE_WIDTH 240
CHARSET_REGISTRY "KSC5601.1987"
CHARSET_ENCODING "1"
DEVICE_FONT_NAME "Gotic-KSC5601.1987-1"
CHARSET_COLLECTIONS "KSC5601.1987 1"
FULL_NAME "Gotic KSC5601.1987 1"
CAP_HEIGHT 17
X_HEIGHT 12
COPYRIGHT "Copyright (c) 1988, 1991 Digital Equitment Corporation Asia"
NOTICE ""
WEIGHT 10
QUAD_WIDTH 24
DEFAULT_CHAR 65278
FONT_DESCENT 6
FONT_ASCENT 18
ENDPROPERTIES

CHARS 8225

STARTCHAR A1A1
ENCODING 41377
SWIDTH 960 0
DWIDTH 24 0
BBX 24 24 0 -6
BITMAP
000000
000000
000000
000000
000000
000000
000000
000000
000000
000000
000000
000000
000000
000000
000000
000000
000000
000000
000000
000000
000000
000000
000000
000000
ENDCHAR

STARTCHAR A1A2
ENCODING 41378
SWIDTH 960 0
DWIDTH 24 0
BBX 24 24 0 -6
BITMAP
000000
000000
000000
000000
000060
000038
00003C
00001C
00001C
000000
000000
000000
000000
000000
000000
000000
000000
000000
000000
000000
000000
000000
000000
000000
ENDCHAR

STARTCHAR A1A3
ENCODING 41379
SWIDTH 960 0
DWIDTH 24 0
BBX 24 24 0 -6
BITMAP
000000
000000
000000
000078
000084
000084
000084
000084
000078
000000
000000
000000
000000
000000
000000
000000
000000
000000
000000
000000
000000
000000
000000
000000
ENDCHAR

STARTCHAR A1A4
ENCODING 41380
SWIDTH 960 0
DWIDTH 24 0
BBX 24 24 0 -6
BITMAP
000000
000000
000000
000000
000000
000000
000000
000000
000000
000000
001800
003C00
003C00
001800
000000
000000
000000
000000
000000
000000
000000
000000
000000
000000
ENDCHAR

STARTCHAR A1A5
ENCODING 41381
SWIDTH 960 0
DWIDTH 24 0
BBX 24 24 0 -6
BITMAP
000000
000000
000000
000000
000000
000000
000000
000000
000000
000000
060060
0F00F0
0F00F0
060060
000000
000000
000000
000000
000000
000000
000000
000000
000000
000000
ENDCHAR

STARTCHAR A1A6
ENCODING 41382
SWIDTH 960 0
DWIDTH 24 0
BBX 24 24 0 -6
BITMAP
000000
000000
000000
000000
000000
000000
000000
000000
000000
000000
181818
3C3C3C
3C3C3C
181818
000000
000000
000000
000000
000000
000000
000000
000000
000000
000000
ENDCHAR

STARTCHAR A1A7
ENCODING 41383
SWIDTH 960 0
DWIDTH 24 0
BBX 24 24 0 -6
BITMAP
000000
000000
000000
060060
0F00F0
0F00F0
060060
000000
000000
000000
000000
000000
000000
000000
000000
000000
000000
000000
000000
000000
000000
000000
000000
000000
ENDCHAR

STARTCHAR A1A8
ENCODING 41384
SWIDTH 960 0
DWIDTH 24 0
BBX 24 24 0 -6
BITMAP
000000
000000
000000
000000
000000
000000
000000
006180
006180
00C300
00C300
008200
018600
010400
010400
020800
020800
000000
000000
000000
000000
000000
000000
000000
ENDCHAR

STARTCHAR A1A9
ENCODING 41385
SWIDTH 960 0
DWIDTH 24 0
BBX 24 24 0 -6
BITMAP
000000
000000
000000
000000
000000
000000
000000
000000
000000
000000
000000
007E00
007E00
000000
000000
000000
000000
000000
000000
000000
000000
000000
000000
000000
ENDCHAR

STARTCHAR A1AA
ENCODING 41386
SWIDTH 960 0
DWIDTH 24 0
BBX 24 24 0 -6
BITMAP
000000
000000
000000
000000
000000
000000
000000
000000
000000
000000
000000
1FFFF8
1FFFF8
000000
000000
000000
000000
000000
000000
000000
000000
000000
000000
000000
ENDCHAR

STARTCHAR A1AB
ENCODING 41387
SWIDTH 960 0
DWIDTH 24 0
BBX 24 24 0 -6
BITMAP
000000
000000
000000
00C300
00C300
00C300
00C300
00C300
00C300
00C300
00C300
00C300
00C300
00C300
00C300
00C300
00C300
00C300
00C300
00C300
00C300
000000
000000
000000
ENDCHAR

STARTCHAR A1AC
ENCODING 41388
SWIDTH 960 0
DWIDTH 24 0
BBX 24 24 0 -6
BITMAP
000000
000000
000000
100000
180000
0C0000
060000
030000
018000
00C000
006000
003000
001800
000C00
000600
000300
000180
0000C0
000060
000030
000018
000000
000000
000000
ENDCHAR

STARTCHAR A1AD
ENCODING 41389
SWIDTH 960 0
DWIDTH 24 0
BBX 24 24 0 -6
BITMAP
000000
000000
000000
000000
000000
000000
000000
000000
000000
07C00C
1FF00C
18780C
301E18
300FF8
3003E0
000000
000000
000000
000000
000000
000000
000000
000000
000000
ENDCHAR

STARTCHAR A1AE
ENCODING 41390
SWIDTH 960 0
DWIDTH 24 0
BBX 24 24 0 -6
BITMAP
000000
000000
000000
000004
000008
000010
000010
00001C
00001C
00001C
000000
000000
000000
000000
000000
000000
000000
000000
000000
000000
000000
000000
000000
000000
ENDCHAR

STARTCHAR A1AF
ENCODING 41391
SWIDTH 960 0
DWIDTH 24 0
BBX 24 24 0 -6
BITMAP
000000
000000
000000
380000
380000
380000
080000
080000
100000
200000
000000
000000
000000
000000
000000
000000
000000
000000
000000
000000
000000
000000
000000
000000
ENDCHAR

STARTCHAR A1B0
ENCODING 41392
SWIDTH 960 0
DWIDTH 24 0
BBX 24 24 0 -6
BITMAP
000000
000000
000000
000208
000208
000410
000410
00071C
00071C
00071C
000000
000000
000000
000000
000000
000000
000000
000000
000000
000000
000000
000000
000000
000000
ENDCHAR

STARTCHAR A1B1
ENCODING 41393
SWIDTH 960 0
DWIDTH 24 0
BBX 24 24 0 -6
BITMAP
000000
000000
000000
38E000
38E000
38E000
082000
082000
104000
104000
000000
000000
000000
000000
000000
000000
000000
000000
000000
000000
000000
000000
000000
000000
ENDCHAR

STARTCHAR A1B2
ENCODING 41394
SWIDTH 960 0
DWIDTH 24 0
BBX 24 24 0 -6
BITMAP
000000
000000
00000C
000038
0000E0
0000C0
0000C0
0000C0
0000C0
0000C0
0000C0
0000C0
0000C0
0000C0
0000C0
0000C0
0000C0
0000C0
0000C0
0000E0
000038
00000C
000000
000000
ENDCHAR

STARTCHAR A1B3
ENCODING 41395
SWIDTH 960 0
DWIDTH 24 0
BBX 24 24 0 -6
BITMAP
000000
000000
300000
1C0000
070000
030000
030000
030000
030000
030000
030000
030000
030000
030000
030000
030000
030000
030000
030000
070000
1C0000
300000
000000
000000
ENDCHAR

STARTCHAR A1B4
ENCODING 41396
SWIDTH 960 0
DWIDTH 24 0
BBX 24 24 0 -6
BITMAP
000000
000000
00000C
00000C
000018
000018
000030
000030
000060
000060
0000C0
0000C0
0000C0
0000C0
000060
000060
000030
000030
000018
000018
00000C
00000C
000000
000000
ENDCHAR

STARTCHAR A1B5
ENCODING 41397
SWIDTH 960 0
DWIDTH 24 0
BBX 24 24 0 -6
BITMAP
000000
000000
300000
300000
180000
180000
0C0000
0C0000
060000
060000
030000
030000
030000
030000
060000
060000
0C0000
0C0000
180000
180000
300000
300000
000000
000000
ENDCHAR

STARTCHAR A1B6
ENCODING 41398
SWIDTH 960 0
DWIDTH 24 0
BBX 24 24 0 -6
BITMAP
000000
000000
000044
000044
000088
000088
000110
000110
000220
000220
000440
000440
000440
000440
000220
000220
000110
000110
000088
000088
000044
000044
000000
000000
ENDCHAR

STARTCHAR A1B7
ENCODING 41399
SWIDTH 960 0
DWIDTH 24 0
BBX 24 24 0 -6
BITMAP
000000
000000
220000
220000
110000
110000
088000
088000
044000
044000
022000
022000
022000
022000
044000
044000
088000
088000
110000
110000
220000
220000
000000
000000
ENDCHAR

STARTCHAR A1B8
ENCODING 41400
SWIDTH 960 0
DWIDTH 24 0
BBX 24 24 0 -6
BITMAP
000000
000000
0001FC
0001FC
000180
000180
000180
000180
000180
000180
000180
000180
000180
000180
000180
000000
000000
000000
000000
000000
000000
000000
000000
000000
ENDCHAR

STARTCHAR A1B9
ENCODING 41401
SWIDTH 960 0
DWIDTH 24 0
BBX 24 24 0 -6
BITMAP
000000
000000
000000
000000
000000
000000
000000
000000
000000
018000
018000
018000
018000
018000
018000
018000
018000
018000
018000
018000
3F8000
3F8000
000000
000000
ENDCHAR

STARTCHAR A1BA
ENCODING 41402
SWIDTH 960 0
DWIDTH 24 0
BBX 24 24 0 -6
BITMAP
000000
000000
0001FC
000104
00017C
000140
000140
000140
000140
000140
000140
000140
000140
000140
0001C0
000000
000000
000000
000000
000000
000000
000000
000000
000000
ENDCHAR

STARTCHAR A1BB
ENCODING 41403
SWIDTH 960 0
DWIDTH 24 0
BBX 24 24 0 -6
BITMAP
000000
000000
000000
000000
000000
000000
000000
000000
000000
000000
038000
028000
028000
028000
028000
028000
028000
028000
028000
3E8000
208000
3F8000
000000
000000
ENDCHAR

STARTCHAR A1BC
ENCODING 41404
SWIDTH 960 0
DWIDTH 24 0
BBX 24 24 0 -6
BITMAP
000000
000000
0000FC
0000F8
0000F0
0000F0
0000E0
0000E0
0000E0
0000C0
0000C0
0000C0
0000C0
0000C0
0000C0
0000E0
0000E0
0000E0
0000F0
0000F0
0000F8
0000FC
000000
000000
ENDCHAR

STARTCHAR A1BD
ENCODING 41405
SWIDTH 960 0
DWIDTH 24 0
BBX 24 24 0 -6
BITMAP
000000
000000
3F0000
1F0000
0F0000
0F0000
070000
070000
070000
030000
030000
030000
030000
030000
030000
070000
070000
070000
0F0000
0F0000
1F0000
3F0000
000000
000000
ENDCHAR

STARTCHAR A1BE
ENCODING 41406
SWIDTH 960 0
DWIDTH 24 0
BBX 24 24 0 -6
BITMAP
000000
000000
000000
001800
001800
001800
001800
001800
0FFFF0
0FFFF0
001800
001800
001800
001800
001800
000000
000000
0FFFF0
0FFFF0
000000
000000
000000
000000
000000
ENDCHAR

STARTCHAR A1BF
ENCODING 41407
SWIDTH 960 0
DWIDTH 24 0
BBX 24 24 0 -6
BITMAP
000000
000000
000000
000000
000000
000000
020040
0300C0
018180
00C300
006600
003C00
001800
003C00
006600
00C300
018180
0300C0
020040
000000
000000
000000
000000
000000
ENDCHAR

STARTCHAR A1C0
ENCODING 41408
SWIDTH 960 0
DWIDTH 24 0
BBX 24 24 0 -6
BITMAP
000000
000000
000000
000000
000000
001800
003C00
003C00
001800
000000
000000
0FFFF0
0FFFF0
000000
000000
001800
003C00
003C00
001800
000000
000000
000000
000000
000000
ENDCHAR

STARTCHAR A1C1
ENCODING 41409
SWIDTH 960 0
DWIDTH 24 0
BBX 24 24 0 -6
BITMAP
000000
000000
000000
000000
020000
030000
018000
00C000
0FFFF0
0FFFF0
003000
001800
000C00
0FFFF0
0FFFF0
000300
000180
0000C0
000060
000020
000000
000000
000000
000000
ENDCHAR

STARTCHAR A1C2
ENCODING 41410
SWIDTH 960 0
DWIDTH 24 0
BBX 24 24 0 -6
BITMAP
000000
000000
000000
000000
000000
0000E0
0007E0
003F00
01F800
07C000
07C000
01F800
003F00
0007E0
0000E0
000000
000000
07FFE0
07FFE0
000000
000000
000000
000000
000000
ENDCHAR

STARTCHAR A1C3
ENCODING 41411
SWIDTH 960 0
DWIDTH 24 0
BBX 24 24 0 -6
BITMAP
000000
000000
000000
000000
000000
070000
07E000
00FC00
001F80
0003E0
0003E0
001F80
00FC00
07E000
070000
000000
000000
07FFE0
07FFE0
000000
000000
000000
000000
000000
ENDCHAR

STARTCHAR A1C4
ENCODING 41412
SWIDTH 960 0
DWIDTH 24 0
BBX 24 24 0 -6
BITMAP
000000
000000
000000
000000
000000
000000
000000
0381C0
0FE7F0
183C18
30180C
30180C
30180C
30180C
183C18
0FE7F0
0381C0
000000
000000
000000
000000
000000
000000
000000
ENDCHAR

STARTCHAR A1C5
ENCODING 41413
SWIDTH 960 0
DWIDTH 24 0
BBX 24 24 0 -6
BITMAP
000000
000000
000000
000000
000000
001800
003C00
003C00
001800
000000
000000
000000
000000
000000
000000
0300C0
0781E0
0781E0
0300C0
000000
000000
000000
000000
000000
ENDCHAR

STARTCHAR A1C6
ENCODING 41414
SWIDTH 960 0
DWIDTH 24 0
BBX 24 24 0 -6
BITMAP
000000
000000
000000
1E0000
210000
210000
210000
210000
1E0000
000000
000000
000000
000000
000000
000000
000000
000000
000000
000000
000000
000000
000000
000000
000000
ENDCHAR

STARTCHAR A1C7
ENCODING 41415
SWIDTH 960 0
DWIDTH 24 0
BBX 24 24 0 -6
BITMAP
000000
000000
000000
180000
180000
100000
100000
200000
200000
000000
000000
000000
000000
000000
000000
000000
000000
000000
000000
000000
000000
000000
000000
000000
ENDCHAR

STARTCHAR A1C8
ENCODING 41416
SWIDTH 960 0
DWIDTH 24 0
BBX 24 24 0 -6
BITMAP
000000
000000
000000
18C000
18C000
108000
108000
210000
210000
000000
000000
000000
000000
000000
000000
000000
000000
000000
000000
000000
000000
000000
000000
000000
ENDCHAR

STARTCHAR A1C9
ENCODING 41417
SWIDTH 960 0
DWIDTH 24 0
BBX 24 24 0 -6
BITMAP
000000
000000
0E0000
110000
110780
111FE0
0E3870
007030
006018
00E018
00C000
00C000
00C000
00C000
00C000
00C000
00C000
00E018
006018
007018
003830
001FF0
0007C0
000000
ENDCHAR

STARTCHAR A1CA
ENCODING 41418
SWIDTH 960 0
DWIDTH 24 0
BBX 24 24 0 -6
BITMAP
000000
000000
003800
004400
004400
004400
003800
000000
001000
003800
003800
006C00
006C00
00C600
00C600
018300
01FF00
03FF80
030180
0600C0
0600C0
0C0060
000000
000000
ENDCHAR

STARTCHAR A1CB
ENCODING 41419
SWIDTH 960 0
DWIDTH 24 0
BBX 24 24 0 -6
BITMAP
000000
000000
000100
000100
001A00
003E00
00E700
01C580
018980
030800
031000
031000
032000
032000
034000
03C180
018180
00E300
017E00
011C00
020000
020000
000000
000000
ENDCHAR

STARTCHAR A1CC
ENCODING 41420
SWIDTH 960 0
DWIDTH 24 0
BBX 24 24 0 -6
BITMAP
000000
000000
000000
001F00
003180
0060C0
0060C0
006000
006000
006000
006000
03FF00
003000
003000
003000
003000
07E060
0C7060
085840
0CCCC0
078780
000000
000000
000000
ENDCHAR

STARTCHAR A1CD
ENCODING 41421
SWIDTH 960 0
DWIDTH 24 0
BBX 24 24 0 -6
BITMAP
000000
000000
060060
060060
0300C0
0300C0
018180
018180
00C300
00C300
07FFC0
006600
003C00
07FFC0
001800
001800
001800
001800
001800
001800
001800
000000
000000
000000
ENDCHAR

STARTCHAR A1CE
ENCODING 41422
SWIDTH 960 0
DWIDTH 24 0
BBX 24 24 0 -6
BITMAP
000000
000000
000000
001800
003C00
007E00
00DB00
019980
0318C0
061860
001800
001800
001800
003C00
00FF00
01C380
018180
018180
018180
01C380
00FF00
003C00
000000
000000
ENDCHAR

STARTCHAR A1CF
ENCODING 41423
SWIDTH 960 0
DWIDTH 24 0
BBX 24 24 0 -6
BITMAP
000000
000000
003C00
00FF00
01C380
018180
018180
018180
01C380
00FF00
003C00
001800
001800
001800
07FFC0
07FFC0
001800
001800
001800
001800
001800
000000
000000
000000
ENDCHAR

STARTCHAR A1D0
ENCODING 41424
SWIDTH 960 0
DWIDTH 24 0
BBX 24 24 0 -6
BITMAP
000000
000000
000000
000000
000000
000060
0000C0
000180
000300
000600
000C00
001800
003000
006000
00C000
018000
030000
07FFC0
07FFC0
000000
000000
000000
000000
000000
ENDCHAR

STARTCHAR A1D1
ENCODING 41425
SWIDTH 960 0
DWIDTH 24 0
BBX 24 24 0 -6
BITMAP
000000
000000
000000
000000
000000
000000
001800
001800
001800
001800
001800
001800
001800
001800
001800
001800
001800
07FFE0
07FFE0
000000
000000
000000
000000
000000
ENDCHAR

STARTCHAR A1D2
ENCODING 41426
SWIDTH 960 0
DWIDTH 24 0
BBX 24 24 0 -6
BITMAP
000000
000000
000000
007E00
01FF80
0381C0
060060
0C0030
0C0030
000000
000000
000000
000000
000000
000000
000000
000000
000000
000000
000000
000000
000000
000000
000000
ENDCHAR

STARTCHAR A1D3
ENCODING 41427
SWIDTH 960 0
DWIDTH 24 0
BBX 24 24 0 -6
BITMAP
000000
000000
000000
001C00
003E00
004600
008300
000100
000100
000100
001D00
006700
00C300
008200
018200
018600
018400
018C00
01D800
00E000
000000
000000
000000
000000
ENDCHAR

STARTCHAR A1D4
ENCODING 41428
SWIDTH 960 0
DWIDTH 24 0
BBX 24 24 0 -6
BITMAP
000000
000000
000000
0FFFF8
0FFFF8
060030
030060
030060
0180C0
0180C0
00C180
00C180
006300
006300
003600
003600
001C00
001C00
000800
000800
000000
000000
000000
000000
ENDCHAR

STARTCHAR A1D5
ENCODING 41429
SWIDTH 960 0
DWIDTH 24 0
BBX 24 24 0 -6
BITMAP
000000
000000
000000
000000
000000
000000
0FFFF0
0FFFF0
000000
000000
000000
0FFFF0
0FFFF0
000000
000000
000000
0FFFF0
0FFFF0
000000
000000
000000
000000
000000
000000
ENDCHAR

STARTCHAR A1D6
ENCODING 41430
SWIDTH 960 0
DWIDTH 24 0
BBX 24 24 0 -6
BITMAP
000000
000000
000000
038000
038000
038000
000000
000000
000000
0FFFF0
0FFFF0
000000
000000
000000
0FFFF0
0FFFF0
000000
000000
000000
0001C0
0001C0
0001C0
000000
000000
ENDCHAR

STARTCHAR A1D7
ENCODING 41431
SWIDTH 960 0
DWIDTH 24 0
BBX 24 24 0 -6
BITMAP
000000
000000
007C00
00FE00
01C700
018300
018000
00C000
00F000
00FC00
018E00
018300
018300
01C300
00FE00
003C00
000600
000300
018300
01C300
00FE00
007C00
000000
000000
ENDCHAR

STARTCHAR A1D8
ENCODING 41432
SWIDTH 960 0
DWIDTH 24 0
BBX 24 24 0 -6
BITMAP
000000
000000
000000
301818
183C30
0C3C60
0618C0
030180
018300
00C600
186C30
3C3878
3C3878
186C30
00C600
018300
030180
0618C0
0C3C60
183C30
301818
000000
000000
000000
ENDCHAR

STARTCHAR A1D9
ENCODING 41433
SWIDTH 960 0
DWIDTH 24 0
BBX 24 24 0 -6
BITMAP
000000
000000
001000
001000
003800
003800
003800
006C00
006C00
3FC7F8
1F83F0
0E00E0
030180
018300
018300
033980
037D80
07C7C0
0783C0
0E00E0
0C0060
000000
000000
000000
ENDCHAR

STARTCHAR A1DA
ENCODING 41434
SWIDTH 960 0
DWIDTH 24 0
BBX 24 24 0 -6
BITMAP
000000
000000
001000
001000
003800
003800
003800
007C00
007C00
3FFFF8
1FFFF0
0FFFE0
03FF80
01FF00
01FF00
03FF80
03FF80
07C7C0
0783C0
0E00E0
0C0060
000000
000000
000000
ENDCHAR

STARTCHAR A1DB
ENCODING 41435
SWIDTH 960 0
DWIDTH 24 0
BBX 24 24 0 -6
BITMAP
000000
000000
000000
007E00
01FF80
0381C0
060060
0C0030
0C0030
180018
180018
180018
180018
180018
180018
0C0030
0C0030
060060
0381C0
01FF80
007E00
000000
000000
000000
ENDCHAR

STARTCHAR A1DC
ENCODING 41436
SWIDTH 960 0
DWIDTH 24 0
BBX 24 24 0 -6
BITMAP
000000
000000
000000
007E00
01FF80
03FFC0
07FFE0
0FFFF0
0FFFF0
1FFFF8
1FFFF8
1FFFF8
1FFFF8
1FFFF8
1FFFF8
0FFFF0
0FFFF0
07FFE0
03FFC0
01FF80
007E00
000000
000000
000000
ENDCHAR

STARTCHAR A1DD
ENCODING 41437
SWIDTH 960 0
DWIDTH 24 0
BBX 24 24 0 -6
BITMAP
000000
000000
000000
007E00
018180
020040
040020
083C10
08C310
108108
110088
110088
110088
110088
108108
08C310
083C10
040020
020040
018180
007E00
000000
000000
000000
ENDCHAR

STARTCHAR A1DE
ENCODING 41438
SWIDTH 960 0
DWIDTH 24 0
BBX 24 24 0 -6
BITMAP
000000
000000
000000
001800
003C00
006600
00C300
018180
0300C0
060060
0C0030
180018
180018
0C0030
060060
0300C0
018180
00C300
006600
003C00
001800
000000
000000
000000
ENDCHAR

STARTCHAR A1DF
ENCODING 41439
SWIDTH 960 0
DWIDTH 24 0
BBX 24 24 0 -6
BITMAP
000000
000000
000000
001800
003C00
007E00
00FF00
01FF80
03FFC0
07FFE0
0FFFF0
1FFFF8
1FFFF8
0FFFF0
07FFE0
03FFC0
01FF80
00FF00
007E00
003C00
001800
000000
000000
000000
ENDCHAR

STARTCHAR A1E0
ENCODING 41440
SWIDTH 960 0
DWIDTH 24 0
BBX 24 24 0 -6
BITMAP
000000
000000
000000
1FFFF8
1FFFF8
180018
180018
180018
180018
180018
180018
180018
180018
180018
180018
180018
180018
180018
180018
1FFFF8
1FFFF8
000000
000000
000000
ENDCHAR

STARTCHAR A1E1
ENCODING 41441
SWIDTH 960 0
DWIDTH 24 0
BBX 24 24 0 -6
BITMAP
000000
000000
000000
1FFFF8
1FFFF8
1FFFF8
1FFFF8
1FFFF8
1FFFF8
1FFFF8
1FFFF8
1FFFF8
1FFFF8
1FFFF8
1FFFF8
1FFFF8
1FFFF8
1FFFF8
1FFFF8
1FFFF8
1FFFF8
000000
000000
000000
ENDCHAR

STARTCHAR A1E2
ENCODING 41442
SWIDTH 960 0
DWIDTH 24 0
BBX 24 24 0 -6
BITMAP
000000
000000
000000
001000
001000
003800
003800
006C00
006C00
00C600
00C600
018300
018300
030180
030180
0600C0
0600C0
0C0060
0FFFE0
1FFFF0
000000
000000
000000
000000
ENDCHAR

STARTCHAR A1E3
ENCODING 41443
SWIDTH 960 0
DWIDTH 24 0
BBX 24 24 0 -6
BITMAP
000000
000000
000000
001000
001000
003800
003800
007C00
007C00
00FE00
00FE00
01FF00
01FF00
03FF80
03FF80
07FFC0
07FFC0
0FFFE0
0FFFE0
1FFFF0
000000
000000
000000
000000
ENDCHAR

STARTCHAR A1E4
ENCODING 41444
SWIDTH 960 0
DWIDTH 24 0
BBX 24 24 0 -6
BITMAP
000000
000000
000000
000000
1FFFF0
0FFFE0
0C0060
0600C0
0600C0
030180
030180
018300
018300
00C600
00C600
006C00
006C00
003800
003800
001000
001000
000000
000000
000000
ENDCHAR

STARTCHAR A1E5
ENCODING 41445
SWIDTH 960 0
DWIDTH 24 0
BBX 24 24 0 -6
BITMAP
000000
000000
000000
000000
1FFFF0
0FFFE0
0FFFE0
07FFC0
07FFC0
03FF80
03FF80
01FF00
01FF00
00FE00
00FE00
007C00
007C00
003800
003800
001000
001000
000000
000000
000000
ENDCHAR

STARTCHAR A1E6
ENCODING 41446
SWIDTH 960 0
DWIDTH 24 0
BBX 24 24 0 -6
BITMAP
000000
000000
000000
000000
000000
000000
000000
000000
000020
000030
000018
3FFFFC
3FFFFC
000018
000030
000020
000000
000000
000000
000000
000000
000000
000000
000000
ENDCHAR

STARTCHAR A1E7
ENCODING 41447
SWIDTH 960 0
DWIDTH 24 0
BBX 24 24 0 -6
BITMAP
000000
000000
000000
000000
000000
000000
000000
000000
040000
0C0000
180000
3FFFFC
3FFFFC
180000
0C0000
040000
000000
000000
000000
000000
000000
000000
000000
000000
ENDCHAR

STARTCHAR A1E8
ENCODING 41448
SWIDTH 960 0
DWIDTH 24 0
BBX 24 24 0 -6
BITMAP
000000
000000
001800
003C00
007E00
00DB00
001800
001800
001800
001800
001800
001800
001800
001800
001800
001800
001800
001800
001800
001800
001800
001800
000000
000000
ENDCHAR

STARTCHAR A1E9
ENCODING 41449
SWIDTH 960 0
DWIDTH 24 0
BBX 24 24 0 -6
BITMAP
000000
000000
001800
001800
001800
001800
001800
001800
001800
001800
001800
001800
001800
001800
001800
001800
001800
001800
00DB00
007E00
003C00
001800
000000
000000
ENDCHAR

STARTCHAR A1EA
ENCODING 41450
SWIDTH 960 0
DWIDTH 24 0
BBX 24 24 0 -6
BITMAP
000000
000000
000000
000000
000000
000000
000000
000000
040020
0C0030
180018
3FFFFC
3FFFFC
180018
0C0030
040020
000000
000000
000000
000000
000000
000000
000000
000000
ENDCHAR

STARTCHAR A1EB
ENCODING 41451
SWIDTH 960 0
DWIDTH 24 0
BBX 24 24 0 -6
BITMAP
000000
000000
000000
000000
000000
000000
000000
000000
1FFFF8
1FFFF8
000000
000000
000000
000000
1FFFF8
1FFFF8
000000
000000
000000
000000
000000
000000
000000
000000
ENDCHAR

STARTCHAR A1EC
ENCODING 41452
SWIDTH 960 0
DWIDTH 24 0
BBX 24 24 0 -6
BITMAP
000000
000000
000000
000000
000000
000000
000000
000618
001860
006180
018600
061800
186000
061800
018600
006180
001860
000618
000000
000000
000000
000000
000000
000000
ENDCHAR

STARTCHAR A1ED
ENCODING 41453
SWIDTH 960 0
DWIDTH 24 0
BBX 24 24 0 -6
BITMAP
000000
000000
000000
000000
000000
000000
000000
186000
061800
018600
006180
001860
000618
001860
006180
018600
061800
186000
000000
000000
000000
000000
000000
000000
ENDCHAR

STARTCHAR A1EE
ENCODING 41454
SWIDTH 960 0
DWIDTH 24 0
BBX 24 24 0 -6
BITMAP
000000
0007FE
000800
000800
000800
001000
001000
001000
002000
002000
002000
004000
004000
004000
188000
388000
4C8000
0D0000
070000
070000
020000
020000
000000
000000
ENDCHAR

STARTCHAR A1EF
ENCODING 41455
SWIDTH 960 0
DWIDTH 24 0
BBX 24 24 0 -6
BITMAP
000000
000000
000000
000000
000000
000000
000000
0F01F0
1F83F8
38861C
300C0C
30180C
30300C
38611C
1FC1F8
0F80F0
000000
000000
000000
000000
000000
000000
000000
000000
ENDCHAR

STARTCHAR A1F0
ENCODING 41456
SWIDTH 960 0
DWIDTH 24 0
BBX 24 24 0 -6
BITMAP
000000
000000
000000
000000
000000
000000
000000
03C3E0
0FF7F8
1C3C18
181800
181800
181800
1C3C18
0FF7F8
03C3E0
000000
000000
000000
000000
000000
000000
000000
000000
ENDCHAR

STARTCHAR A1F1
ENCODING 41457
SWIDTH 960 0
DWIDTH 24 0
BBX 24 24 0 -6
BITMAP
000000
000000
000000
000000
000000
0300C0
0781E0
0781E0
0300C0
000000
000000
000000
000000
000000
000000
001800
003C00
003C00
001800
000000
000000
000000
000000
000000
ENDCHAR

STARTCHAR A1F2
ENCODING 41458
SWIDTH 960 0
DWIDTH 24 0
BBX 24 24 0 -6
BITMAP
000000
000000
001C00
002600
002600
006000
006000
006000
006000
006000
003000
003000
003000
003000
001800
001800
001800
001800
001800
019000
019000
00E000
000000
000000
ENDCHAR

STARTCHAR A1F3
ENCODING 41459
SWIDTH 960 0
DWIDTH 24 0
BBX 24 24 0 -6
BITMAP
000000
000000
00E0E0
013130
013130
030300
030300
030300
030300
030300
018180
018180
018180
018180
00C0C0
00C0C0
00C0C0
00C0C0
00C0C0
0C8C80
0C8C80
070700
000000
000000
ENDCHAR

STARTCHAR A1F4
ENCODING 41460
SWIDTH 960 0
DWIDTH 24 0
BBX 24 24 0 -6
BITMAP
000000
000000
000000
000000
000000
00FFF8
03FFF8
070000
0C0000
0C0000
180000
1FFFF8
1FFFF8
180000
0C0000
0C0000
070000
03FFF8
00FFF8
000000
000000
000000
000000
000000
ENDCHAR

STARTCHAR A1F5
ENCODING 41461
SWIDTH 960 0
DWIDTH 24 0
BBX 24 24 0 -6
BITMAP
000000
000000
000000
000000
000000
1FFF00
1FFFC0
0000E0
000030
000030
000018
1FFFF8
1FFFF8
000018
000030
000030
0000E0
1FFFC0
1FFF00
000000
000000
000000
000000
000000
ENDCHAR

STARTCHAR A1F6
ENCODING 41462
SWIDTH 960 0
DWIDTH 24 0
BBX 24 24 0 -6
BITMAP
000000
000000
000000
000000
00FFF8
03FFF8
078000
0E0000
0C0000
0C0000
0C0000
0C0000
0E0000
078000
03FFF8
00FFF8
000000
000000
000000
0FFFF8
0FFFF8
000000
000000
000000
ENDCHAR

STARTCHAR A1F7
ENCODING 41463
SWIDTH 960 0
DWIDTH 24 0
BBX 24 24 0 -6
BITMAP
000000
000000
000000
000000
1FFF00
1FFFC0
0001E0
000070
000030
000030
000030
000030
000070
0001E0
1FFFC0
1FFF00
000000
000000
1FFFF0
1FFFF0
000000
000000
000000
000000
ENDCHAR

STARTCHAR A1F8
ENCODING 41464
SWIDTH 960 0
DWIDTH 24 0
BBX 24 24 0 -6
BITMAP
000000
000000
000000
000000
000000
00FFF8
03FFF8
070000
0C0000
0C0000
180000
180000
180000
180000
0C0000
0C0000
070000
03FFF8
00FFF8
000000
000000
000000
000000
000000
ENDCHAR

STARTCHAR A1F9
ENCODING 41465
SWIDTH 960 0
DWIDTH 24 0
BBX 24 24 0 -6
BITMAP
000000
000000
000000
000000
000000
1FFF00
1FFFC0
0000E0
000030
000030
000018
000018
000018
000018
000030
000030
0000E0
1FFFC0
1FFF00
000000
000000
000000
000000
000000
ENDCHAR

STARTCHAR A1FA
ENCODING 41466
SWIDTH 960 0
DWIDTH 24 0
BBX 24 24 0 -6
BITMAP
000000
000000
000000
060060
060060
060060
060060
060060
060060
060060
060060
060060
060060
060060
060060
060060
0300C0
0300C0
01C380
00FF00
003C00
000000
000000
000000
ENDCHAR

STARTCHAR A1FB
ENCODING 41467
SWIDTH 960 0
DWIDTH 24 0
BBX 24 24 0 -6
BITMAP
000000
000000
000000
003C00
00FF00
01C380
0300C0
0300C0
060060
060060
060060
060060
060060
060060
060060
060060
060060
060060
060060
060060
060060
000000
000000
000000
ENDCHAR

STARTCHAR A1FC
ENCODING 41468
SWIDTH 960 0
DWIDTH 24 0
BBX 24 24 0 -6
BITMAP
000000
000000
000000
000000
001000
001000
003800
003800
006C00
006C00
00C600
00C600
018300
018300
030180
030180
0600C0
0600C0
0600C0
0C0060
0C0060
000000
000000
000000
ENDCHAR

STARTCHAR A1FD
ENCODING 41469
SWIDTH 960 0
DWIDTH 24 0
BBX 24 24 0 -6
BITMAP
000000
000000
000000
000000
0C0060
0C0060
0600C0
0600C0
0600C0
020180
030180
018300
018300
00C600
00C600
006C00
006C00
003800
003800
001000
001000
000000
000000
000000
ENDCHAR

STARTCHAR A1FE
ENCODING 41470
SWIDTH 960 0
DWIDTH 24 0
BBX 24 24 0 -6
BITMAP
000000
000000
000000
000000
000000
000000
000000
000000
000000
0FFFF0
0FFFF0
000030
000030
000030
000030
000030
000030
000000
000000
000000
000000
000000
000000
000000
ENDCHAR

STARTCHAR A2A1
ENCODING 41633
SWIDTH 960 0
DWIDTH 24 0
BBX 24 24 0 -6
BITMAP
000000
000000
000000
000000
000000
000100
000180
0000C0
1FFFE0
1FFFF0
000018
00000C
000018
1FFFF0
1FFFE0
0000C0
000180
000100
000000
000000
000000
000000
000000
000000
ENDCHAR

STARTCHAR A2A2
ENCODING 41634
SWIDTH 960 0
DWIDTH 24 0
BBX 24 24 0 -6
BITMAP
000000
000000
000000
000000
000000
008080
0180C0
030060
07FFF0
0FFFF8
18000C
300006
18000C
0FFFF8
07FFF0
030060
0180C0
008080
000000
000000
000000
000000
000000
000000
ENDCHAR

STARTCHAR A2A3
ENCODING 41635
SWIDTH 960 0
DWIDTH 24 0
BBX 24 24 0 -6
BITMAP
000000
000000
0C0060
0C0060
0600C0
0600C0
030180
03FF80
01FF00
018300
00C600
00C600
006C00
006C00
003800
003800
001000
001000
000000
000000
000000
000000
000000
000000
ENDCHAR

STARTCHAR A2A4
ENCODING 41636
SWIDTH 960 0
DWIDTH 24 0
BBX 24 24 0 -6
BITMAP
000000
000000
03FFC0
03FFC0
0000C0
0000C0
0000C0
0000C0
0000C0
03FFC0
03FFC0
0000C0
0000C0
0000C0
0000C0
0000C0
03FFC0
03FFC0
000000
000000
000000
000000
000000
000000
ENDCHAR

STARTCHAR A2A5
ENCODING 41637
SWIDTH 960 0
DWIDTH 24 0
BBX 24 24 0 -6
BITMAP
000000
000000
000000
001800
001800
001000
001000
002000
002000
000000
000000
000000
000000
000000
000000
000000
000000
000000
000000
000000
000000
000000
000000
000000
ENDCHAR

STARTCHAR A2A6
ENCODING 41638
SWIDTH 960 0
DWIDTH 24 0
BBX 24 24 0 -6
BITMAP
000000
000000
000000
00E100
011100
010E00
000000
000000
000000
000000
000000
000000
000000
000000
000000
000000
000000
000000
000000
000000
000000
000000
000000
000000
ENDCHAR

STARTCHAR A2A7
ENCODING 41639
SWIDTH 960 0
DWIDTH 24 0
BBX 24 24 0 -6
BITMAP
000000
000000
000000
008100
00C300
006600
003C00
001800
000000
000000
000000
000000
000000
000000
000000
000000
000000
000000
000000
000000
000000
000000
000000
000000
ENDCHAR

STARTCHAR A2A8
ENCODING 41640
SWIDTH 960 0
DWIDTH 24 0
BBX 24 24 0 -6
BITMAP
000000
000000
000000
008100
008100
004200
003C00
000000
000000
000000
000000
000000
000000
000000
000000
000000
000000
000000
000000
000000
000000
000000
000000
000000
ENDCHAR

STARTCHAR A2A9
ENCODING 41641
SWIDTH 960 0
DWIDTH 24 0
BBX 24 24 0 -6
BITMAP
000000
000000
000000
006300
006300
004200
004200
008400
008400
000000
000000
000000
000000
000000
000000
000000
000000
000000
000000
000000
000000
000000
000000
000000
ENDCHAR

STARTCHAR A2AA
ENCODING 41642
SWIDTH 960 0
DWIDTH 24 0
BBX 24 24 0 -6
BITMAP
000000
000000
000000
003C00
004200
004200
004200
004200
003C00
000000
000000
000000
000000
000000
000000
000000
000000
000000
000000
000000
000000
000000
000000
000000
ENDCHAR

STARTCHAR A2AB
ENCODING 41643
SWIDTH 960 0
DWIDTH 24 0
BBX 24 24 0 -6
BITMAP
000000
000000
000000
001800
003C00
003C00
001800
000000
000000
000000
000000
000000
000000
000000
000000
000000
000000
000000
000000
000000
000000
000000
000000
000000
ENDCHAR

STARTCHAR A2AC
ENCODING 41644
SWIDTH 960 0
DWIDTH 24 0
BBX 24 24 0 -6
BITMAP
000000
000000
000000
000000
000000
000000
000000
000000
000000
002000
006000
006000
007000
003800
001C00
000E00
000600
000600
000E00
00FC00
007800
000000
000000
000000
ENDCHAR

STARTCHAR A2AD
ENCODING 41645
SWIDTH 960 0
DWIDTH 24 0
BBX 24 24 0 -6
BITMAP
000000
000000
000000
000000
000000
000000
000000
000000
000000
000000
000000
000000
000800
001800
003000
003000
006000
006000
006200
007C00
003800
000000
000000
000000
ENDCHAR

STARTCHAR A2AE
ENCODING 41646
SWIDTH 960 0
DWIDTH 24 0
BBX 24 24 0 -6
BITMAP
000000
000000
000000
000000
001800
001800
000000
000000
001800
001800
001800
001800
001800
003C00
003C00
003C00
003C00
003C00
003C00
001800
000000
000000
000000
000000
ENDCHAR

STARTCHAR A2AF
ENCODING 41647
SWIDTH 960 0
DWIDTH 24 0
BBX 24 24 0 -6
BITMAP
000000
000000
000000
000800
001C00
000800
000000
000000
000800
000800
000800
000800
003800
006000
00C000
00C000
00C300
00C300
006200
003C00
000000
000000
000000
000000
ENDCHAR

STARTCHAR A2B0
ENCODING 41648
SWIDTH 960 0
DWIDTH 24 0
BBX 24 24 0 -6
BITMAP
000000
000000
000000
000000
000000
000000
007C00
003800
003800
001000
001000
000000
000000
001000
001000
003800
003800
007C00
000000
000000
000000
000000
000000
000000
ENDCHAR

STARTCHAR A2B1
ENCODING 41649
SWIDTH 960 0
DWIDTH 24 0
BBX 24 24 0 -6
BITMAP
000000
000000
000700
000B00
000800
001800
001800
001800
003C00
005A00
005A00
005A00
005A00
003C00
001800
001800
001800
001800
001800
001000
00D000
00E000
000000
000000
ENDCHAR

STARTCHAR A2B2
ENCODING 41650
SWIDTH 960 0
DWIDTH 24 0
BBX 24 24 0 -6
BITMAP
000000
000000
000000
000000
07FFC0
038040
01C040
00E040
007000
003800
001C00
000C00
000800
001000
002000
004040
008040
0100C0
0200C0
07FFC0
000000
000000
000000
000000
ENDCHAR

STARTCHAR A2B3
ENCODING 41651
SWIDTH 960 0
DWIDTH 24 0
BBX 24 24 0 -6
BITMAP
000000
000000
000000
000000
000000
03FFC0
03FFC0
00C300
00C300
00C300
00C300
00C300
00C300
00C300
00C300
00C300
00C300
00C300
00C300
00C300
000000
000000
000000
000000
ENDCHAR

STARTCHAR A2B4
ENCODING 41652
SWIDTH 960 0
DWIDTH 24 0
BBX 24 24 0 -6
BITMAP
000000
000000
000000
000000
000000
000000
020040
033CC0
01FF80
00C300
018180
018180
018180
018180
00C300
01FF80
033CC0
020040
000000
000000
000000
000000
000000
000000
ENDCHAR

STARTCHAR A2B5
ENCODING 41653
SWIDTH 960 0
DWIDTH 24 0
BBX 24 24 0 -6
BITMAP
000000
000000
0E0000
110000
111FF8
111FF8
0E1800
001800
001800
001800
001800
001800
001FE0
001FE0
001800
001800
001800
001800
001800
001800
001800
001800
000000
000000
ENDCHAR

STARTCHAR A2B6
ENCODING 41654
SWIDTH 960 0
DWIDTH 24 0
BBX 24 24 0 -6
BITMAP
000000
000000
000200
000200
0E0400
190400
110800
311000
231000
222000
262000
1C4000
008E1C
009932
011122
013162
022346
042244
04264C
081C38
080000
000000
000000
000000
ENDCHAR

STARTCHAR A2B7
ENCODING 41655
SWIDTH 960 0
DWIDTH 24 0
BBX 24 24 0 -6
BITMAP
000000
000000
000000
000010
000070
0001F0
0007B0
001E30
007830
01E030
078030
1E0030
078030
01E030
007830
001E30
0007B0
0001F0
000070
000010
000000
000000
000000
000000
ENDCHAR

STARTCHAR A2B8
ENCODING 41656
SWIDTH 960 0
DWIDTH 24 0
BBX 24 24 0 -6
BITMAP
000000
000000
000000
000010
000070
0001F0
0007F0
001FF0
007FF0
01FFF0
07FFF0
1FFFF0
07FFF0
01FFF0
007FF0
001FF0
0007F0
0001F0
000070
000010
000000
000000
000000
000000
ENDCHAR

STARTCHAR A2B9
ENCODING 41657
SWIDTH 960 0
DWIDTH 24 0
BBX 24 24 0 -6
BITMAP
000000
000000
000000
080000
0E0000
0F8000
0DE000
0C7800
0C1E00
0C0780
0C01E0
0C0078
0C01E0
0C0780
0C1E00
0C7800
0DE000
0F8000
0E0000
0C0000
000000
000000
000000
000000
ENDCHAR

STARTCHAR A2BA
ENCODING 41658
SWIDTH 960 0
DWIDTH 24 0
BBX 24 24 0 -6
BITMAP
000000
000000
000000
080000
0E0000
0F8000
0FE000
0FF800
0FFE00
0FFF80
0FFFE0
0FFFF8
0FFFE0
0FFF80
0FFE00
0FF800
0FE000
0F8000
0E0000
080000
000000
000000
000000
000000
ENDCHAR

STARTCHAR A2BB
ENCODING 41659
SWIDTH 960 0
DWIDTH 24 0
BBX 24 24 0 -6
BITMAP
000000
000000
000000
001000
003800
006C00
00C600
00C600
018300
030180
0600C0
0600C0
0C0060
0C0060
0C0060
0C3860
07FFC0
03D780
001000
001000
003800
003800
000000
000000
ENDCHAR

STARTCHAR A2BC
ENCODING 41660
SWIDTH 960 0
DWIDTH 24 0
BBX 24 24 0 -6
BITMAP
000000
000000
001000
001000
003800
007C00
00FE00
00FE00
01FF00
03FF80
07FFC0
07FFC0
0FFFE0
0FFFE0
0FFFE0
0FFFE0
07FFC0
03D780
001000
001000
003800
003800
000000
000000
ENDCHAR

STARTCHAR A2BD
ENCODING 41661
SWIDTH 960 0
DWIDTH 24 0
BBX 24 24 0 -6
BITMAP
000000
000000
000000
000000
01E3C0
03F7E0
061C30
060830
060030
060030
060030
030060
030060
0180C0
00C180
00C180
006300
003600
001C00
000800
000000
000000
000000
000000
ENDCHAR

STARTCHAR A2BE
ENCODING 41662
SWIDTH 960 0
DWIDTH 24 0
BBX 24 24 0 -6
BITMAP
000000
000000
000000
000000
01E3C0
03F7E0
07FFF0
07FFF0
07FFF0
07FFF0
07FFF0
03FFE0
03FFE0
01FFC0
00FF80
00FF80
007F00
003E00
001C00
000800
000000
000000
000000
000000
ENDCHAR

STARTCHAR A2BF
ENCODING 41663
SWIDTH 960 0
DWIDTH 24 0
BBX 24 24 0 -6
BITMAP
000000
000000
000000
003800
007C00
00EE00
00C600
00C600
00C600
006C00
03EF80
07EFC0
0E00E0
0C1060
0C3860
0E7CE0
07D7C0
039380
001000
001000
003800
003800
000000
000000
ENDCHAR

STARTCHAR A2C0
ENCODING 41664
SWIDTH 960 0
DWIDTH 24 0
BBX 24 24 0 -6
BITMAP
000000
000000
000000
003800
007C00
00FE00
00FE00
00FE00
00FE00
007C00
03BB80
07FFC0
0FFFE0
0FFFE0
0FFFE0
0FFFE0
07D7C0
039380
001000
001000
003800
003800
000000
000000
ENDCHAR

STARTCHAR A2C1
ENCODING 41665
SWIDTH 960 0
DWIDTH 24 0
BBX 24 24 0 -6
BITMAP
000000
000000
000000
000000
007E00
018180
020040
040020
040020
080010
081810
083C10
083C10
081810
080010
040020
040020
020040
018180
007E00
000000
000000
000000
000000
ENDCHAR

STARTCHAR A2C2
ENCODING 41666
SWIDTH 960 0
DWIDTH 24 0
BBX 24 24 0 -6
BITMAP
000000
000000
000000
001800
002400
004200
008100
010080
021840
043C20
087E10
10FF08
10FF08
087E10
043C20
021840
010080
008100
004200
002400
001800
000000
000000
000000
ENDCHAR

STARTCHAR A2C3
ENCODING 41667
SWIDTH 960 0
DWIDTH 24 0
BBX 24 24 0 -6
BITMAP
000000
000000
000000
000000
0FFFF0
080010
080010
080010
080010
087E10
087E10
087E10
087E10
087E10
087E10
080010
080010
080010
080010
0FFFF0
000000
000000
000000
000000
ENDCHAR

STARTCHAR A2C4
ENCODING 41668
SWIDTH 960 0
DWIDTH 24 0
BBX 24 24 0 -6
BITMAP
000000
000000
000000
000000
007E00
01F180
03F040
07F020
07F020
0FF010
0FF010
0FF010
0FF010
0FF010
0FF010
07F020
07F020
03F040
01F180
007E00
000000
000000
000000
000000
ENDCHAR

STARTCHAR A2C5
ENCODING 41669
SWIDTH 960 0
DWIDTH 24 0
BBX 24 24 0 -6
BITMAP
000000
000000
000000
000000
007E00
018F80
020FC0
040FE0
040FE0
080FF0
080FF0
080FF0
080FF0
080FF0
080FF0
040FE0
040FE0
020FC0
018F80
007E00
000000
000000
000000
000000
ENDCHAR

STARTCHAR A2C6
ENCODING 41670
SWIDTH 960 0
DWIDTH 24 0
BBX 24 24 0 -6
BITMAP
000000
000000
000000
1FFFF8
100008
144448
100008
100008
100008
122228
100008
100008
100008
144448
100008
100008
100008
122228
100008
100008
1FFFF8
000000
000000
000000
ENDCHAR

STARTCHAR A2C7
ENCODING 41671
SWIDTH 960 0
DWIDTH 24 0
BBX 24 24 0 -6
BITMAP
000000
000000
000000
000000
1FFFF8
100008
100008
100008
1FFFF8
100008
100008
100008
1FFFF8
100008
100008
100008
1FFFF8
100008
100008
100008
1FFFF8
000000
000000
000000
ENDCHAR

STARTCHAR A2C8
ENCODING 41672
SWIDTH 960 0
DWIDTH 24 0
BBX 24 24 0 -6
BITMAP
000000
000000
000000
1FFFF0
111110
111110
111110
111110
111110
111110
111110
111110
111110
111110
111110
111110
111110
111110
111110
111110
1FFFF0
000000
000000
000000
ENDCHAR

STARTCHAR A2C9
ENCODING 41673
SWIDTH 960 0
DWIDTH 24 0
BBX 24 24 0 -6
BITMAP
000000
000000
000000
1FFFF8
101018
102028
104048
108088
110108
120208
140408
180808
101018
102028
104048
108088
110108
120208
140408
180808
1FFFF8
000000
000000
000000
ENDCHAR

STARTCHAR A2CA
ENCODING 41674
SWIDTH 960 0
DWIDTH 24 0
BBX 24 24 0 -6
BITMAP
000000
000000
000000
1FFFF8
180808
140408
120208
110108
108088
104048
102028
101018
180808
140408
120208
110108
108088
104048
102028
101018
1FFFF8
000000
000000
000000
ENDCHAR

STARTCHAR A2CB
ENCODING 41675
SWIDTH 960 0
DWIDTH 24 0
BBX 24 24 0 -6
BITMAP
000000
000000
000000
000000
1FFFF0
111110
111110
111110
1FFFF0
111110
111110
111110
1FFFF0
111110
111110
111110
1FFFF0
111110
111110
111110
1FFFF0
000000
000000
000000
ENDCHAR

STARTCHAR A2CC
ENCODING 41676
SWIDTH 960 0
DWIDTH 24 0
BBX 24 24 0 -6
BITMAP
000000
000000
000000
1FFFF8
180818
141428
122248
114188
108188
114248
122428
141818
181828
142448
124288
118108
118288
124448
142828
181018
1FFFF8
000000
000000
000000
ENDCHAR

STARTCHAR A2CD
ENCODING 41677
SWIDTH 960 0
DWIDTH 24 0
BBX 24 24 0 -6
BITMAP
000000
000000
000000
000400
004800
009080
011100
011200
011200
009200
004900
004880
0248A0
044890
088908
089108
081008
0C0018
070070
03FFE0
00FF80
000000
000000
000000
ENDCHAR

STARTCHAR A2CE
ENCODING 41678
SWIDTH 960 0
DWIDTH 24 0
BBX 24 24 0 -6
BITMAP
000000
000000
000000
01FF80
0E0070
100008
21FF84
224244
224244
3E7E7C
004200
008100
018180
028140
048120
084210
083C10
100008
100008
11FF88
1F00F8
000000
000000
000000
ENDCHAR

STARTCHAR A2CF
ENCODING 41679
SWIDTH 960 0
DWIDTH 24 0
BBX 24 24 0 -6
BITMAP
000000
000000
000000
01FF80
0FFFF0
1FFFF8
3EC37C
3CC33C
3CC33C
3CFF3C
00FF00
00C300
018180
0381C0
0781E0
0F81F0
0FC3F0
1FFFF8
1FFFF8
1FFFF8
1E0078
000000
000000
000000
ENDCHAR

STARTCHAR A2D0
ENCODING 41680
SWIDTH 960 0
DWIDTH 24 0
BBX 24 24 0 -6
BITMAP
000000
000000
000000
000000
000000
000000
00001E
3FFF92
400072
3FF012
008012
00F812
008012
007812
004072
003F92
00001E
000000
000000
000000
000000
000000
000000
000000
ENDCHAR

STARTCHAR A2D1
ENCODING 41681
SWIDTH 960 0
DWIDTH 24 0
BBX 24 24 0 -6
BITMAP
000000
000000
000000
000000
000000
000000
780000
49FFFC
4E0002
4807FC
480080
480F80
480080
480F00
4E0100
49FE00
780000
000000
000000
000000
000000
000000
000000
000000
ENDCHAR

STARTCHAR A2D2
ENCODING 41682
SWIDTH 960 0
DWIDTH 24 0
BBX 24 24 0 -6
BITMAP
000000
000000
000000
000000
01FC60
03FC60
060C60
060C60
060C60
060C60
060C60
03FC60
01FC60
000C60
000C60
000C60
000C60
000C60
000C60
000C60
000000
000000
000000
000000
ENDCHAR

STARTCHAR A2D3
ENCODING 41683
SWIDTH 960 0
DWIDTH 24 0
BBX 24 24 0 -6
BITMAP
000000
000000
001800
001800
001800
001800
001800
001800
01FF80
01FF80
001800
001800
001800
001800
001800
001800
001800
001800
001800
001800
001800
001800
000000
000000
ENDCHAR

STARTCHAR A2D4
ENCODING 41684
SWIDTH 960 0
DWIDTH 24 0
BBX 24 24 0 -6
BITMAP
000000
001800
001800
001800
001800
001800
001800
01FF80
01FF80
001800
01FF80
01FF80
001800
001800
001800
001800
001800
001800
001800
001800
001800
001800
000000
000000
ENDCHAR

STARTCHAR A2D5
ENCODING 41685
SWIDTH 960 0
DWIDTH 24 0
BBX 24 24 0 -6
BITMAP
000000
000000
001800
003C00
007E00
00DB00
001800
001800
001800
001800
001800
001800
001800
001800
001800
001800
001800
001800
00DB00
007E00
003C00
001800
000000
000000
ENDCHAR

STARTCHAR A2D6
ENCODING 41686
SWIDTH 960 0
DWIDTH 24 0
BBX 24 24 0 -6
BITMAP
000000
000000
000000
000000
0001F0
0001F0
000070
0000F0
0001B0
000330
000600
000C00
001800
003000
006000
00C000
018000
030000
060000
000000
000000
000000
000000
000000
ENDCHAR

STARTCHAR A2D7
ENCODING 41687
SWIDTH 960 0
DWIDTH 24 0
BBX 24 24 0 -6
BITMAP
000000
000000
000000
000000
000000
000060
0000C0
000180
000300
000600
000C00
001800
003000
006000
0CC000
0D8000
0F0000
0E0000
0F8000
0F8000
000000
000000
000000
000000
ENDCHAR

STARTCHAR A2D8
ENCODING 41688
SWIDTH 960 0
DWIDTH 24 0
BBX 24 24 0 -6
BITMAP
000000
000000
000000
0F8000
0F8000
0E0000
0F0000
0D8000
0CC000
006000
003000
001800
000C00
000600
000300
000180
0000C0
000060
000020
000000
000000
000000
000000
000000
ENDCHAR

STARTCHAR A2D9
ENCODING 41689
SWIDTH 960 0
DWIDTH 24 0
BBX 24 24 0 -6
BITMAP
000000
000000
000000
000000
000000
060000
030000
018000
00C000
006000
003000
001800
000C00
000600
000330
0001B0
0000F0
0003F0
0003F0
000000
000000
000000
000000
000000
ENDCHAR

STARTCHAR A2DA
ENCODING 41690
SWIDTH 960 0
DWIDTH 24 0
BBX 24 24 0 -6
BITMAP
000000
000000
000000
00C000
00C000
00C000
00C000
00C000
00C000
00C000
00DE00
00FF00
00E300
00C300
00C300
00C600
00C600
00DC00
00F800
00E000
008000
000000
000000
000000
ENDCHAR

STARTCHAR A2DB
ENCODING 41691
SWIDTH 960 0
DWIDTH 24 0
BBX 24 24 0 -6
BITMAP
000000
000000
000400
000400
000400
000400
000400
000400
000400
000400
000400
000400
000400
000400
000400
000400
000400
001C00
007C00
007800
00F800
00E000
000000
000000
ENDCHAR

STARTCHAR A2DC
ENCODING 41692
SWIDTH 960 0
DWIDTH 24 0
BBX 24 24 0 -6
BITMAP
000000
000000
001000
001000
001800
001400
001200
001100
001100
001080
001080
001080
001080
001100
001100
001000
001000
007000
01F000
01E000
03E000
038000
000000
000000
ENDCHAR

STARTCHAR A2DD
ENCODING 41693
SWIDTH 960 0
DWIDTH 24 0
BBX 24 24 0 -6
BITMAP
000000
000000
000000
007FF0
004010
004010
004010
007FF0
004010
004010
004010
004010
004010
004010
004010
004010
004010
004010
01C070
0781E0
0F83E0
0E0380
000000
000000
ENDCHAR

STARTCHAR A2DE
ENCODING 41694
SWIDTH 960 0
DWIDTH 24 0
BBX 24 24 0 -6
BITMAP
000000
000000
000000
00FF00
0381C0
060060
0C0030
186198
186318
30660C
306C00
307800
3E70FC
3E78FC
006C0C
00660C
306318
186198
0C0030
060060
0381C0
00FF00
000000
000000
ENDCHAR

STARTCHAR A2DF
ENCODING 41695
SWIDTH 960 0
DWIDTH 24 0
BBX 24 24 0 -6
BITMAP
000000
000000
100008
100008
200004
23FFC4
23FFC4
400782
401E02
407F02
43F7C2
4380C2
400002
400002
47FFE2
47FFE2
401802
201804
201804
201804
101808
100008
000000
000000
ENDCHAR

STARTCHAR A2E0
ENCODING 41696
SWIDTH 960 0
DWIDTH 24 0
BBX 24 24 0 -6
BITMAP
000000
000000
30C000
30C000
38C000
38C000
38C000
3CC000
3CC7C0
3ECFE0
36CC60
37CC60
33CC60
33CC60
31CC60
31CC60
30CFE6
30C7C6
000000
000000
000000
000000
000000
000000
ENDCHAR

STARTCHAR A2E1
ENCODING 41697
SWIDTH 960 0
DWIDTH 24 0
BBX 24 24 0 -6
BITMAP
000000
000000
0F0000
1F8000
39C000
30C000
30C000
300000
3007C0
300FE0
300C60
300C60
300C60
30CC60
30CC60
39CC60
1F8FE6
0F07C6
000000
000000
000000
000000
000000
000000
ENDCHAR

STARTCHAR A2E2
ENCODING 41698
SWIDTH 960 0
DWIDTH 24 0
BBX 24 24 0 -6
BITMAP
000000
000000
7FB81C
7FB81C
0C381C
0C3C3C
0C3C3C
0C3C3C
0C3C3C
0C366C
0C366C
0C366C
0C33CC
0C33CC
0C33CC
0C318C
0C318C
0C318C
000000
000000
000000
000000
000000
000000
ENDCHAR

STARTCHAR A2E3
ENCODING 41699
SWIDTH 960 0
DWIDTH 24 0
BBX 24 24 0 -6
BITMAP
000000
000000
000000
000000
000000
000000
000000
000000
7C1DC0
7E1FE0
061B60
3E1B60
7E1B60
661B60
661B60
661B60
7EDB6C
3EDB6C
000000
000000
000000
000000
000000
000000
ENDCHAR

STARTCHAR A2E4
ENCODING 41700
SWIDTH 960 0
DWIDTH 24 0
BBX 24 24 0 -6
BITMAP
000000
000000
000000
000000
000000
000000
000000
000000
7C1DC0
7E1FE0
661B60
661B60
661B60
661B60
661B60
661B60
7EDB6C
7CDB6C
600000
600000
600000
600000
600000
000000
ENDCHAR

STARTCHAR A2E5
ENCODING 41701
SWIDTH 960 0
DWIDTH 24 0
BBX 24 24 0 -6
BITMAP
000000
000000
3FC00C
3FC00C
06000C
06000C
06000C
06000C
061F0C
063F8C
06318C
06318C
063F8C
063F8C
06300C
06318C
063F8C
061F0C
000000
000000
000000
000000
000000
000000
ENDCHAR

STARTCHAR A3A1
ENCODING 41889
SWIDTH 960 0
DWIDTH 24 0
BBX 24 24 0 -6
BITMAP
000000
000000
000000
003800
003800
003800
003800
003800
003800
003800
003800
003800
001000
001000
001000
001000
000000
000000
003800
003800
003800
000000
000000
000000
ENDCHAR

STARTCHAR A3A2
ENCODING 41890
SWIDTH 960 0
DWIDTH 24 0
BBX 24 24 0 -6
BITMAP
000000
000000
006180
006180
006180
00C300
00C300
008200
008200
010400
010400
000000
000000
000000
000000
000000
000000
000000
000000
000000
000000
000000
000000
000000
ENDCHAR

STARTCHAR A3A3
ENCODING 41891
SWIDTH 960 0
DWIDTH 24 0
BBX 24 24 0 -6
BITMAP
000000
000000
018300
018300
018300
018370
0187F0
01BF80
03FB00
1FC300
1D8300
018300
018370
0187F0
01BF80
03FB00
1FC300
1D8300
018300
018300
018300
018300
000000
000000
ENDCHAR

STARTCHAR A3A4
ENCODING 41892
SWIDTH 960 0
DWIDTH 24 0
BBX 24 24 0 -6
BITMAP
000000
002400
002400
00FF00
01FF80
03A5C0
0324C0
0324C0
032400
03A400
01FC00
00FF00
002F80
002580
0024C0
0024C0
0324C0
0324C0
03A5C0
01FF80
00FF00
002400
002400
000000
ENDCHAR

STARTCHAR A3A5
ENCODING 41893
SWIDTH 960 0
DWIDTH 24 0
BBX 24 24 0 -6
BITMAP
000000
000000
000000
078180
0FC180
0CC300
0CC300
0CC600
0CC600
0CCC00
0FCC00
079800
0019E0
0033F0
003330
006330
006330
00C330
00C330
0183F0
0181E0
000000
000000
000000
ENDCHAR

STARTCHAR A3A6
ENCODING 41894
SWIDTH 960 0
DWIDTH 24 0
BBX 24 24 0 -6
BITMAP
000000
000000
000000
00E000
01F000
03B800
031800
031800
03B800
01F000
00E000
01E180
03F180
073980
061D80
0C0F00
0C0700
0C07C0
0E1FF0
07FC70
03F000
000000
000000
000000
ENDCHAR

STARTCHAR A3A7
ENCODING 41895
SWIDTH 960 0
DWIDTH 24 0
BBX 24 24 0 -6
BITMAP
000000
000000
000000
001800
001800
001000
001000
002000
002000
000000
000000
000000
000000
000000
000000
000000
000000
000000
000000
000000
000000
000000
000000
000000
ENDCHAR

STARTCHAR A3A8
ENCODING 41896
SWIDTH 960 0
DWIDTH 24 0
BBX 24 24 0 -6
BITMAP
000000
000000
00000C
000018
000018
000030
000030
000030
000060
000060
000060
000060
000060
000060
000060
000060
000030
000030
000030
000018
000018
00000C
000000
000000
ENDCHAR

STARTCHAR A3A9
ENCODING 41897
SWIDTH 960 0
DWIDTH 24 0
BBX 24 24 0 -6
BITMAP
000000
000000
300000
180000
1C0000
0C0000
0C0000
0E0000
060000
060000
060000
060000
060000
060000
060000
060000
0C0000
0C0000
0C0000
180000
180000
300000
000000
000000
ENDCHAR

STARTCHAR A3AA
ENCODING 41898
SWIDTH 960 0
DWIDTH 24 0
BBX 24 24 0 -6
BITMAP
000000
000000
000000
000000
000000
000000
000000
001800
00DB00
00FF00
007E00
003C00
007E00
00FF00
00DB00
001800
000000
000000
000000
000000
000000
000000
000000
000000
ENDCHAR

STARTCHAR A3AB
ENCODING 41899
SWIDTH 960 0
DWIDTH 24 0
BBX 24 24 0 -6
BITMAP
000000
000000
000000
000000
001800
001800
001800
001800
001800
001800
001800
0FFFF0
0FFFF0
001800
001800
001800
001800
001800
001800
001800
000000
000000
000000
000000
ENDCHAR

STARTCHAR A3AC
ENCODING 41900
SWIDTH 960 0
DWIDTH 24 0
BBX 24 24 0 -6
BITMAP
000000
000000
000000
000000
000000
000000
000000
000000
000000
000000
000000
000000
000000
000000
000000
000000
380000
380000
380000
080000
080000
100000
100000
000000
ENDCHAR

STARTCHAR A3AD
ENCODING 41901
SWIDTH 960 0
DWIDTH 24 0
BBX 24 24 0 -6
BITMAP
000000
000000
000000
000000
000000
000000
000000
000000
000000
000000
000000
0FFFF0
0FFFF0
000000
000000
000000
000000
000000
000000
000000
000000
000000
000000
000000
ENDCHAR

STARTCHAR A3AE
ENCODING 41902
SWIDTH 960 0
DWIDTH 24 0
BBX 24 24 0 -6
BITMAP
000000
000000
000000
000000
000000
000000
000000
000000
000000
000000
000000
000000
000000
000000
000000
000000
380000
380000
380000
000000
000000
000000
000000
000000
ENDCHAR

STARTCHAR A3AF
ENCODING 41903
SWIDTH 960 0
DWIDTH 24 0
BBX 24 24 0 -6
BITMAP
000000
000000
000000
000018
000030
000060
0000C0
000180
000300
000600
000C00
001800
003000
006000
00C000
018000
030000
060000
0C0000
180000
000000
000000
000000
000000
ENDCHAR

STARTCHAR A3B0
ENCODING 41904
SWIDTH 960 0
DWIDTH 24 0
BBX 24 24 0 -6
BITMAP
000000
000000
000000
003C00
00FF00
00C300
01C380
018180
018180
018180
018180
018180
018180
018180
018180
018180
018180
01C380
00C300
00FF00
003C00
000000
000000
000000
ENDCHAR

STARTCHAR A3B1
ENCODING 41905
SWIDTH 960 0
DWIDTH 24 0
BBX 24 24 0 -6
BITMAP
000000
000000
000000
003800
003800
001800
001800
001800
001800
001800
001800
001800
001800
001800
001800
001800
001800
001800
001800
001800
001800
000000
000000
000000
ENDCHAR

STARTCHAR A3B2
ENCODING 41906
SWIDTH 960 0
DWIDTH 24 0
BBX 24 24 0 -6
BITMAP
000000
000000
000000
003C00
00FF00
00C300
018180
018180
000180
000300
000300
000600
000C00
001800
003000
006000
00C000
008000
018000
01FF80
01FF80
000000
000000
000000
ENDCHAR

STARTCHAR A3B3
ENCODING 41907
SWIDTH 960 0
DWIDTH 24 0
BBX 24 24 0 -6
BITMAP
000000
000000
000000
003C00
00FF00
00C300
018180
018180
000180
000180
000300
001E00
001E00
000300
000180
000180
018180
018180
00C300
00FF00
003C00
000000
000000
000000
ENDCHAR

STARTCHAR A3B4
ENCODING 41908
SWIDTH 960 0
DWIDTH 24 0
BBX 24 24 0 -6
BITMAP
000000
000000
000000
000C00
000C00
001C00
001C00
003C00
003C00
006C00
006C00
00CC00
00CC00
018C00
018C00
030C00
03FF80
03FF80
000C00
000C00
000C00
000000
000000
000000
ENDCHAR

STARTCHAR A3B5
ENCODING 41909
SWIDTH 960 0
DWIDTH 24 0
BBX 24 24 0 -6
BITMAP
000000
000000
000000
01FF00
01FF00
018000
018000
018000
018000
01F800
01FE00
010700
000300
000180
000180
000180
018180
018300
01C700
00FE00
003800
000000
000000
000000
ENDCHAR

STARTCHAR A3B6
ENCODING 41910
SWIDTH 960 0
DWIDTH 24 0
BBX 24 24 0 -6
BITMAP
000000
000000
000000
003C00
00FF00
00C300
018180
018180
018000
018000
01BC00
01FF00
01C300
018180
018180
018180
018180
018180
00C300
00FF00
003C00
000000
000000
000000
ENDCHAR

STARTCHAR A3B7
ENCODING 41911
SWIDTH 960 0
DWIDTH 24 0
BBX 24 24 0 -6
BITMAP
000000
000000
000000
01FF80
01FF80
018300
018300
000600
000600
000C00
000C00
000C00
001800
001800
001800
001800
003000
003000
003000
003000
003000
000000
000000
000000
ENDCHAR

STARTCHAR A3B8
ENCODING 41912
SWIDTH 960 0
DWIDTH 24 0
BBX 24 24 0 -6
BITMAP
000000
000000
000000
003C00
00FF00
00C300
018180
018180
018180
00C300
00FF00
003C00
00FF00
00C300
018180
018180
018180
018180
00C300
00FF00
003C00
000000
000000
000000
ENDCHAR

STARTCHAR A3B9
ENCODING 41913
SWIDTH 960 0
DWIDTH 24 0
BBX 24 24 0 -6
BITMAP
000000
000000
000000
003C00
00FF00
00C300
018180
018180
018180
018180
018180
00C380
00FF80
003D80
000180
000180
000180
00C180
00C300
007F00
003C00
000000
000000
000000
ENDCHAR

STARTCHAR A3BA
ENCODING 41914
SWIDTH 960 0
DWIDTH 24 0
BBX 24 24 0 -6
BITMAP
000000
000000
000000
000000
000000
001C00
001C00
001C00
000000
000000
000000
000000
000000
000000
000000
000000
001C00
001C00
001C00
000000
000000
000000
000000
000000
ENDCHAR

STARTCHAR A3BB
ENCODING 41915
SWIDTH 960 0
DWIDTH 24 0
BBX 24 24 0 -6
BITMAP
000000
000000
000000
000000
000000
001C00
001C00
001C00
000000
000000
000000
000000
000000
000000
000000
000000
001C00
001C00
001C00
000400
000400
000800
000800
000000
ENDCHAR

STARTCHAR A3BC
ENCODING 41916
SWIDTH 960 0
DWIDTH 24 0
BBX 24 24 0 -6
BITMAP
000000
000000
000000
000000
000000
000000
0000C0
0003C0
000F00
003C00
00F000
03C000
070000
03C000
00F000
003C00
000F00
0003C0
0000C0
000000
000000
000000
000000
000000
ENDCHAR

STARTCHAR A3BD
ENCODING 41917
SWIDTH 960 0
DWIDTH 24 0
BBX 24 24 0 -6
BITMAP
000000
000000
000000
000000
000000
000000
000000
000000
0FFFF0
0FFFF0
000000
000000
000000
000000
0FFFF0
0FFFF0
000000
000000
000000
000000
000000
000000
000000
000000
ENDCHAR

STARTCHAR A3BE
ENCODING 41918
SWIDTH 960 0
DWIDTH 24 0
BBX 24 24 0 -6
BITMAP
000000
000000
000000
000000
000000
000000
060000
078000
01E000
007800
001E00
000780
0001C0
000780
001E00
007800
01E000
078000
060000
000000
000000
000000
000000
000000
ENDCHAR

STARTCHAR A3BF
ENCODING 41919
SWIDTH 960 0
DWIDTH 24 0
BBX 24 24 0 -6
BITMAP
000000
000000
003C00
00FF00
00C300
018180
018180
000180
000300
000300
000600
000C00
001800
001800
001800
000000
000000
000000
001C00
001C00
001C00
000000
000000
000000
ENDCHAR

STARTCHAR A3C0
ENCODING 41920
SWIDTH 960 0
DWIDTH 24 0
BBX 24 24 0 -6
BITMAP
000000
000000
000000
00FF00
03FFC0
0781E0
0E0070
0C0030
1C3B38
187F18
18E718
18C318
18C318
18C318
18E730
1C7FF0
0C39C0
0E0000
078000
03FFC0
00FFC0
000000
000000
000000
ENDCHAR

STARTCHAR A3C1
ENCODING 41921
SWIDTH 960 0
DWIDTH 24 0
BBX 24 24 0 -6
BITMAP
000000
000000
000000
001800
001800
001800
003C00
003C00
003C00
006600
006600
006600
00C300
00C300
00FF00
01FF80
018180
018180
0300C0
0300C0
0300C0
000000
000000
000000
ENDCHAR

STARTCHAR A3C2
ENCODING 41922
SWIDTH 960 0
DWIDTH 24 0
BBX 24 24 0 -6
BITMAP
000000
000000
000000
01FE00
01FF80
018180
0180C0
0180C0
0180C0
018180
01FF80
01FF00
018180
0180C0
0180C0
0180C0
0180C0
0180C0
018180
01FF80
01FE00
000000
000000
000000
ENDCHAR

STARTCHAR A3C3
ENCODING 41923
SWIDTH 960 0
DWIDTH 24 0
BBX 24 24 0 -6
BITMAP
000000
000000
000000
003C00
00FF00
01C380
038180
0300C0
0700C0
060000
060000
060000
060000
060000
060000
0700C0
0300C0
0380C0
01C180
00FF80
003E00
000000
000000
000000
ENDCHAR

STARTCHAR A3C4
ENCODING 41924
SWIDTH 960 0
DWIDTH 24 0
BBX 24 24 0 -6
BITMAP
000000
000000
000000
01FC00
01FF00
018780
0181C0
0180C0
0180E0
018060
018060
018060
018060
018060
018060
0180E0
0180C0
0181C0
018780
01FF00
01FC00
000000
000000
000000
ENDCHAR

STARTCHAR A3C5
ENCODING 41925
SWIDTH 960 0
DWIDTH 24 0
BBX 24 24 0 -6
BITMAP
000000
000000
000000
01FFC0
01FFC0
018000
018000
018000
018000
018000
018000
01FF80
01FF80
018000
018000
018000
018000
018000
018000
01FFC0
01FFC0
000000
000000
000000
ENDCHAR

STARTCHAR A3C6
ENCODING 41926
SWIDTH 960 0
DWIDTH 24 0
BBX 24 24 0 -6
BITMAP
000000
000000
000000
01FFC0
01FFC0
018000
018000
018000
018000
018000
018000
01FF00
01FF00
018000
018000
018000
018000
018000
018000
018000
018000
000000
000000
000000
ENDCHAR

STARTCHAR A3C7
ENCODING 41927
SWIDTH 960 0
DWIDTH 24 0
BBX 24 24 0 -6
BITMAP
000000
000000
000000
007C00
01FF00
03C380
070180
0600C0
0E00C0
0C0000
0C0000
0C0000
0C1FC0
0C1FC0
0C00C0
0E00C0
0600C0
0700C0
03C1C0
01FFC0
007E00
000000
000000
000000
ENDCHAR

STARTCHAR A3C8
ENCODING 41928
SWIDTH 960 0
DWIDTH 24 0
BBX 24 24 0 -6
BITMAP
000000
000000
000000
0300C0
0300C0
0300C0
0300C0
0300C0
0300C0
0300C0
0300C0
03FFC0
03FFC0
0300C0
0300C0
0300C0
0300C0
0300C0
0300C0
0300C0
0300C0
000000
000000
000000
ENDCHAR

STARTCHAR A3C9
ENCODING 41929
SWIDTH 960 0
DWIDTH 24 0
BBX 24 24 0 -6
BITMAP
000000
000000
000000
001800
001800
001800
001800
001800
001800
001800
001800
001800
001800
001800
001800
001800
001800
001800
001800
001800
001800
000000
000000
000000
ENDCHAR

STARTCHAR A3CA
ENCODING 41930
SWIDTH 960 0
DWIDTH 24 0
BBX 24 24 0 -6
BITMAP
000000
000000
000000
000C00
000C00
000C00
000C00
000C00
000C00
000C00
000C00
000C00
000C00
000C00
000C00
000C00
000C00
030C00
030C00
039800
01F800
006000
000000
000000
ENDCHAR

STARTCHAR A3CB
ENCODING 41931
SWIDTH 960 0
DWIDTH 24 0
BBX 24 24 0 -6
BITMAP
000000
000000
000000
0600C0
0601C0
060380
060700
060E00
061C00
063800
067000
06F800
07D800
078C00
070C00
060600
060600
060300
060300
060180
060180
000000
000000
000000
ENDCHAR

STARTCHAR A3CC
ENCODING 41932
SWIDTH 960 0
DWIDTH 24 0
BBX 24 24 0 -6
BITMAP
000000
000000
000000
018000
018000
018000
018000
018000
018000
018000
018000
018000
018000
018000
018000
018000
018000
018000
018000
01FFE0
01FFE0
000000
000000
000000
ENDCHAR

STARTCHAR A3CD
ENCODING 41933
SWIDTH 960 0
DWIDTH 24 0
BBX 24 24 0 -6
BITMAP
000000
000000
000000
0700E0
0700E0
0700E0
0781E0
0781E0
0781E0
06C360
06C360
06C360
066660
066660
066660
063C60
063C60
063C60
061860
061860
061860
000000
000000
000000
ENDCHAR

STARTCHAR A3CE
ENCODING 41934
SWIDTH 960 0
DWIDTH 24 0
BBX 24 24 0 -6
BITMAP
000000
000000
000000
0380C0
0380C0
03C0C0
03C0C0
0360C0
0360C0
0330C0
0330C0
0318C0
0318C0
030CC0
030CC0
0306C0
0306C0
0303C0
0303C0
0301C0
0301C0
000000
000000
000000
ENDCHAR

STARTCHAR A3CF
ENCODING 41935
SWIDTH 960 0
DWIDTH 24 0
BBX 24 24 0 -6
BITMAP
000000
000000
000000
003E00
00FF80
01C1C0
0180C0
0380E0
030060
030060
030060
030060
030060
030060
030060
030060
0380E0
0180C0
01C1C0
00FF80
003E00
000000
000000
000000
ENDCHAR

STARTCHAR A3D0
ENCODING 41936
SWIDTH 960 0
DWIDTH 24 0
BBX 24 24 0 -6
BITMAP
000000
000000
000000
01FF00
01FFC0
0180E0
018060
018030
018030
018030
018060
0180E0
01FFC0
01FF00
018000
018000
018000
018000
018000
018000
018000
000000
000000
000000
ENDCHAR

STARTCHAR A3D1
ENCODING 41937
SWIDTH 960 0
DWIDTH 24 0
BBX 24 24 0 -6
BITMAP
000000
000000
000000
007C00
01FF00
038380
030180
0600C0
0600C0
0600C0
0600C0
0600C0
0600C0
0600C0
0600C0
063CC0
067EC0
036780
03E380
01FFF0
007CF0
000000
000000
000000
ENDCHAR

STARTCHAR A3D2
ENCODING 41938
SWIDTH 960 0
DWIDTH 24 0
BBX 24 24 0 -6
BITMAP
000000
000000
000000
01FF00
01FF80
0181C0
0180C0
0180C0
0180C0
0180C0
018180
01FF00
01FE00
018600
018300
018300
018180
018180
018180
0180C0
0180C0
000000
000000
000000
ENDCHAR

STARTCHAR A3D3
ENCODING 41939
SWIDTH 960 0
DWIDTH 24 0
BBX 24 24 0 -6
BITMAP
000000
000000
000000
007C00
01FF00
018300
030180
030180
030000
018000
01E000
007C00
000F00
000300
000180
030180
030180
030180
018300
01FF00
007C00
000000
000000
000000
ENDCHAR

STARTCHAR A3D4
ENCODING 41940
SWIDTH 960 0
DWIDTH 24 0
BBX 24 24 0 -6
BITMAP
000000
000000
000000
07FFE0
07FFE0
001800
001800
001800
001800
001800
001800
001800
001800
001800
001800
001800
001800
001800
001800
001800
001800
000000
000000
000000
ENDCHAR

STARTCHAR A3D5
ENCODING 41941
SWIDTH 960 0
DWIDTH 24 0
BBX 24 24 0 -6
BITMAP
000000
000000
000000
030180
030180
030180
030180
030180
030180
030180
030180
030180
030180
030180
030180
030180
030180
030180
018300
01FF00
007C00
000000
000000
000000
ENDCHAR

STARTCHAR A3D6
ENCODING 41942
SWIDTH 960 0
DWIDTH 24 0
BBX 24 24 0 -6
BITMAP
000000
000000
000000
0300C0
0300C0
0300C0
018180
018180
018180
00C300
00C300
00C300
006600
006600
006600
003C00
003C00
003C00
001800
001800
001800
000000
000000
000000
ENDCHAR

STARTCHAR A3D7
ENCODING 41943
SWIDTH 960 0
DWIDTH 24 0
BBX 24 24 0 -6
BITMAP
000000
000000
000000
181818
181818
181818
0C3C30
0C3C30
0C3C30
0C3C30
066660
066660
066660
066660
03C3C0
03C3C0
03C3C0
03C3C0
018180
018180
018180
000000
000000
000000
ENDCHAR

STARTCHAR A3D8
ENCODING 41944
SWIDTH 960 0
DWIDTH 24 0
BBX 24 24 0 -6
BITMAP
000000
000000
000000
030180
018300
018300
00C600
00C600
006C00
006C00
003800
003800
003800
006C00
006C00
00C600
00C600
018300
018300
030180
030180
000000
000000
000000
ENDCHAR

STARTCHAR A3D9
ENCODING 41945
SWIDTH 960 0
DWIDTH 24 0
BBX 24 24 0 -6
BITMAP
000000
000000
000000
0300C0
0300C0
018180
018180
00C300
00C300
006600
006600
003C00
003C00
001800
001800
001800
001800
001800
001800
001800
001800
000000
000000
000000
ENDCHAR

STARTCHAR A3DA
ENCODING 41946
SWIDTH 960 0
DWIDTH 24 0
BBX 24 24 0 -6
BITMAP
000000
000000
000000
03FF80
03FF00
000300
000600
000600
000C00
000C00
001800
001800
003000
003000
006000
006000
00C000
00C000
018000
01FF80
03FF80
000000
000000
000000
ENDCHAR

STARTCHAR A3DB
ENCODING 41947
SWIDTH 960 0
DWIDTH 24 0
BBX 24 24 0 -6
BITMAP
000000
000000
0000FC
0000FC
0000C0
0000C0
0000C0
0000C0
0000C0
0000C0
0000C0
0000C0
0000C0
0000C0
0000C0
0000C0
0000C0
0000C0
0000C0
0000C0
0000FC
0000FC
000000
000000
ENDCHAR

STARTCHAR A3DC
ENCODING 41948
SWIDTH 960 0
DWIDTH 24 0
BBX 24 24 0 -6
BITMAP
000000
000000
000000
181818
181818
181818
0C3C30
0C3C30
0C3C30
3FFFFC
066660
066660
066660
3E7E7C
03C3C0
03C3C0
03C3C0
03C3C0
018180
018180
018180
000000
000000
000000
ENDCHAR

STARTCHAR A3DD
ENCODING 41949
SWIDTH 960 0
DWIDTH 24 0
BBX 24 24 0 -6
BITMAP
000000
000000
3F0000
3F0000
030000
030000
030000
030000
030000
030000
030000
030000
030000
030000
030000
030000
030000
030000
030000
030000
3F0000
3F0000
000000
000000
ENDCHAR

STARTCHAR A3DE
ENCODING 41950
SWIDTH 960 0
DWIDTH 24 0
BBX 24 24 0 -6
BITMAP
000000
000000
001800
003C00
006600
00C300
008100
000000
000000
000000
000000
000000
000000
000000
000000
000000
000000
000000
000000
000000
000000
000000
000000
000000
ENDCHAR

STARTCHAR A3DF
ENCODING 41951
SWIDTH 960 0
DWIDTH 24 0
BBX 24 24 0 -6
BITMAP
000000
000000
000000
000000
000000
000000
000000
000000
000000
000000
000000
000000
000000
000000
000000
000000
000000
000000
000000
000000
000000
7FFFFE
7FFFFE
000000
ENDCHAR

STARTCHAR A3E0
ENCODING 41952
SWIDTH 960 0
DWIDTH 24 0
BBX 24 24 0 -6
BITMAP
000000
000000
300000
380000
180000
0C0000
040000
000000
000000
000000
000000
000000
000000
000000
000000
000000
000000
000000
000000
000000
000000
000000
000000
000000
ENDCHAR

STARTCHAR A3E1
ENCODING 41953
SWIDTH 960 0
DWIDTH 24 0
BBX 24 24 0 -6
BITMAP
000000
000000
000000
000000
000000
000000
000000
000000
01FC00
01FE00
000700
000300
000300
007F00
00FF00
01C300
018300
018300
01C300
00FFC0
007DC0
000000
000000
000000
ENDCHAR

STARTCHAR A3E2
ENCODING 41954
SWIDTH 960 0
DWIDTH 24 0
BBX 24 24 0 -6
BITMAP
000000
000000
000000
00C000
00C000
00C000
00C000
00C000
00DC00
00FF00
00E300
00C180
00C180
00C180
00C180
00C180
00C180
00C180
00E300
00FF00
00DC00
000000
000000
000000
ENDCHAR

STARTCHAR A3E3
ENCODING 41955
SWIDTH 960 0
DWIDTH 24 0
BBX 24 24 0 -6
BITMAP
000000
000000
000000
000000
000000
000000
000000
000000
003C00
00FF00
00C300
018180
018180
018000
018000
018000
018180
018180
00C300
00FF00
003C00
000000
000000
000000
ENDCHAR

STARTCHAR A3E4
ENCODING 41956
SWIDTH 960 0
DWIDTH 24 0
BBX 24 24 0 -6
BITMAP
000000
000000
000000
000300
000300
000300
000300
000300
003B00
00FF00
00C700
018300
018300
018300
018300
018300
018300
018300
00C700
00FF00
003B00
000000
000000
000000
ENDCHAR

STARTCHAR A3E5
ENCODING 41957
SWIDTH 960 0
DWIDTH 24 0
BBX 24 24 0 -6
BITMAP
000000
000000
000000
000000
000000
000000
000000
000000
003C00
00FF00
00C300
018180
018180
01FF80
01FF80
018000
018000
018180
00C380
00FF00
003C00
000000
000000
000000
ENDCHAR

STARTCHAR A3E6
ENCODING 41958
SWIDTH 960 0
DWIDTH 24 0
BBX 24 24 0 -6
BITMAP
000000
000000
000000
001E00
003E00
006000
006000
006000
006000
01FC00
01FC00
006000
006000
006000
006000
006000
006000
006000
006000
006000
006000
000000
000000
000000
ENDCHAR

STARTCHAR A3E7
ENCODING 41959
SWIDTH 960 0
DWIDTH 24 0
BBX 24 24 0 -6
BITMAP
000000
000000
000000
000000
000000
000000
000000
000000
007D80
00FF80
01C380
018180
018180
018180
01C180
00FF80
007F80
000180
000180
01C180
01C380
00FF00
007E00
000000
ENDCHAR

STARTCHAR A3E8
ENCODING 41960
SWIDTH 960 0
DWIDTH 24 0
BBX 24 24 0 -6
BITMAP
000000
000000
000000
00C000
00C000
00C000
00C000
00C000
00DE00
00FF00
00E380
00C180
00C180
00C180
00C180
00C180
00C180
00C180
00C180
00C180
00C180
000000
000000
000000
ENDCHAR

STARTCHAR A3E9
ENCODING 41961
SWIDTH 960 0
DWIDTH 24 0
BBX 24 24 0 -6
BITMAP
000000
000000
000000
001800
001800
000000
000000
000000
001800
001800
001800
001800
001800
001800
001800
001800
001800
001800
001800
001800
001800
000000
000000
000000
ENDCHAR

STARTCHAR A3EA
ENCODING 41962
SWIDTH 960 0
DWIDTH 24 0
BBX 24 24 0 -6
BITMAP
000000
000000
000000
001800
001800
000000
000000
000000
001800
001800
001800
001800
001800
001800
001800
001800
001800
001800
001800
001800
001800
00F000
00E000
000000
ENDCHAR

STARTCHAR A3EB
ENCODING 41963
SWIDTH 960 0
DWIDTH 24 0
BBX 24 24 0 -6
BITMAP
000000
000000
000000
018000
018000
018000
018000
018000
018300
018600
018C00
019800
01B000
01F800
01D800
018C00
018C00
018600
018600
018300
018300
000000
000000
000000
ENDCHAR

STARTCHAR A3EC
ENCODING 41964
SWIDTH 960 0
DWIDTH 24 0
BBX 24 24 0 -6
BITMAP
000000
000000
000000
001800
001800
001800
001800
001800
001800
001800
001800
001800
001800
001800
001800
001800
001800
001800
001800
001800
001800
000000
000000
000000
ENDCHAR

STARTCHAR A3ED
ENCODING 41965
SWIDTH 960 0
DWIDTH 24 0
BBX 24 24 0 -6
BITMAP
000000
000000
000000
000000
000000
000000
000000
000000
0DF3C0
0FFFE0
0E3C70
0C1830
0C1830
0C1830
0C1830
0C1830
0C1830
0C1830
0C1830
0C1830
0C1830
000000
000000
000000
ENDCHAR

STARTCHAR A3EE
ENCODING 41966
SWIDTH 960 0
DWIDTH 24 0
BBX 24 24 0 -6
BITMAP
000000
000000
000000
000000
000000
000000
000000
000000
01BE00
01FF00
01C380
018180
018180
018180
018180
018180
018180
018180
018180
018180
018180
000000
000000
000000
ENDCHAR

STARTCHAR A3EF
ENCODING 41967
SWIDTH 960 0
DWIDTH 24 0
BBX 24 24 0 -6
BITMAP
000000
000000
000000
000000
000000
000000
000000
000000
003C00
00FF00
00C300
018180
018180
018180
018180
018180
018180
018180
00C300
00FF00
003C00
000000
000000
000000
ENDCHAR

STARTCHAR A3F0
ENCODING 41968
SWIDTH 960 0
DWIDTH 24 0
BBX 24 24 0 -6
BITMAP
000000
000000
000000
000000
000000
000000
000000
000000
01BC00
01FF00
01C300
018180
018180
018180
018180
018180
018180
01C300
01FF00
01BC00
018000
018000
018000
000000
ENDCHAR

STARTCHAR A3F1
ENCODING 41969
SWIDTH 960 0
DWIDTH 24 0
BBX 24 24 0 -6
BITMAP
000000
000000
000000
000000
000000
000000
000000
000000
007B00
01FF00
018700
030300
030300
030300
030300
030300
030300
018700
01FF00
007B00
000300
000300
000300
000000
ENDCHAR

STARTCHAR A3F2
ENCODING 41970
SWIDTH 960 0
DWIDTH 24 0
BBX 24 24 0 -6
BITMAP
000000
000000
000000
000000
000000
000000
000000
000000
00C780
00DF80
00D800
00F000
00E000
00E000
00C000
00C000
00C000
00C000
00C000
00C000
00C000
000000
000000
000000
ENDCHAR

STARTCHAR A3F3
ENCODING 41971
SWIDTH 960 0
DWIDTH 24 0
BBX 24 24 0 -6
BITMAP
000000
000000
000000
000000
000000
000000
000000
000000
007C00
00FE00
018300
018300
018000
00E000
003C00
000600
000300
018300
018300
00FE00
007C00
000000
000000
000000
ENDCHAR

STARTCHAR A3F4
ENCODING 41972
SWIDTH 960 0
DWIDTH 24 0
BBX 24 24 0 -6
BITMAP
000000
000000
000000
000000
006000
006000
006000
006000
01FC00
01FC00
006000
006000
006000
006000
006000
006000
006000
006000
007000
003E00
001E00
000000
000000
000000
ENDCHAR

STARTCHAR A3F5
ENCODING 41973
SWIDTH 960 0
DWIDTH 24 0
BBX 24 24 0 -6
BITMAP
000000
000000
000000
000000
000000
000000
000000
000000
018180
018180
018180
018180
018180
018180
018180
018180
018180
018180
01C380
00FF80
007D80
000000
000000
000000
ENDCHAR

STARTCHAR A3F6
ENCODING 41974
SWIDTH 960 0
DWIDTH 24 0
BBX 24 24 0 -6
BITMAP
000000
000000
000000
000000
000000
000000
000000
000000
018180
018180
00C300
00C300
00C300
006600
006600
006600
003C00
003C00
003C00
001800
001800
000000
000000
000000
ENDCHAR

STARTCHAR A3F7
ENCODING 41975
SWIDTH 960 0
DWIDTH 24 0
BBX 24 24 0 -6
BITMAP
000000
000000
000000
000000
000000
000000
000000
000000
0E1870
061860
061860
061860
033CC0
033CC0
033CC0
01E780
01E780
01E780
00C300
00C300
00C300
000000
000000
000000
ENDCHAR

STARTCHAR A3F8
ENCODING 41976
SWIDTH 960 0
DWIDTH 24 0
BBX 24 24 0 -6
BITMAP
000000
000000
000000
000000
000000
000000
000000
000000
01C1C0
00C180
00E300
006600
003600
003C00
001800
003C00
007E00
006600
00C300
01C380
038180
000000
000000
000000
ENDCHAR

STARTCHAR A3F9
ENCODING 41977
SWIDTH 960 0
DWIDTH 24 0
BBX 24 24 0 -6
BITMAP
000000
000000
000000
000000
000000
000000
000000
000000
00C180
00C180
00C180
006300
006300
006300
003600
003600
003C00
001C00
001C00
001800
003800
01F000
01E000
000000
ENDCHAR

STARTCHAR A3FA
ENCODING 41978
SWIDTH 960 0
DWIDTH 24 0
BBX 24 24 0 -6
BITMAP
000000
000000
000000
000000
000000
000000
000000
000000
00FF80
00FF80
000300
000600
000600
000C00
001800
003000
003000
006000
00C000
01FF80
01FF80
000000
000000
000000
ENDCHAR

STARTCHAR A3FB
ENCODING 41979
SWIDTH 960 0
DWIDTH 24 0
BBX 24 24 0 -6
BITMAP
000000
000000
00001C
00003C
000030
000060
000060
000060
0000C0
0000C0
000180
000300
000180
0000C0
0000C0
000060
000060
000060
000060
000030
00003C
00001C
000000
000000
ENDCHAR

STARTCHAR A3FC
ENCODING 41980
SWIDTH 960 0
DWIDTH 24 0
BBX 24 24 0 -6
BITMAP
000000
000000
001800
001800
001800
001800
001800
001800
001800
001800
001800
001800
001800
001800
001800
001800
001800
001800
001800
001800
001800
001800
000000
000000
ENDCHAR

STARTCHAR A3FD
ENCODING 41981
SWIDTH 960 0
DWIDTH 24 0
BBX 24 24 0 -6
BITMAP
000000
000000
380000
3C0000
0C0000
060000
060000
060000
030000
030000
018000
00C000
018000
030000
030000
060000
060000
060000
060000
0C0000
3C0000
380000
000000
000000
ENDCHAR

STARTCHAR A3FE
ENCODING 41982
SWIDTH 960 0
DWIDTH 24 0
BBX 24 24 0 -6
BITMAP
000000
7FFFFE
7FFFFE
000000
000000
000000
000000
000000
000000
000000
000000
000000
000000
000000
000000
000000
000000
000000
000000
000000
000000
000000
000000
000000
ENDCHAR

STARTCHAR A4A1
ENCODING 42145
SWIDTH 960 0
DWIDTH 24 0
BBX 24 24 0 -6
BITMAP
000000
000000
000000
000000
000000
03FFC0
03FFC0
0000C0
0000C0
0000C0
0000C0
0000C0
0000C0
0000C0
0000C0
0000C0
0000C0
0000C0
000000
000000
000000
000000
000000
000000
ENDCHAR

STARTCHAR A4A2
ENCODING 42146
SWIDTH 960 0
DWIDTH 24 0
BBX 24 24 0 -6
BITMAP
000000
000000
000000
000000
000000
1FEFF0
1FEFF0
006030
006030
006030
006030
006030
006030
006030
006030
006030
006030
006030
000000
000000
000000
000000
000000
000000
ENDCHAR

STARTCHAR A4A3
ENCODING 42147
SWIDTH 960 0
DWIDTH 24 0
BBX 24 24 0 -6
BITMAP
000000
000000
000000
000000
000000
3FC0C0
3FC0C0
00C0C0
00C0C0
00C0C0
00C1E0
00C1E0
00C330
00C330
00C618
00CE1C
00DC0E
00C804
000000
000000
000000
000000
000000
000000
ENDCHAR

STARTCHAR A4A4
ENCODING 42148
SWIDTH 960 0
DWIDTH 24 0
BBX 24 24 0 -6
BITMAP
000000
000000
000000
000000
000000
018000
018000
018000
018000
018000
018000
018000
018000
018000
018000
018000
01FFC0
01FFC0
000000
000000
000000
000000
000000
000000
ENDCHAR

STARTCHAR A4A5
ENCODING 42149
SWIDTH 960 0
DWIDTH 24 0
BBX 24 24 0 -6
BITMAP
000000
000000
000000
000000
000000
181FF8
181FF8
180180
180180
180180
180180
1803C0
1803C0
180660
180660
19CC30
1FDC38
1E1818
000000
000000
000000
000000
000000
000000
ENDCHAR

STARTCHAR A4A6
ENCODING 42150
SWIDTH 960 0
DWIDTH 24 0
BBX 24 24 0 -6
BITMAP
000000
000000
000000
000000
000000
1807F0
1807F0
180000
180000
181FFC
181FFC
180000
180000
1807F0
180C18
18EC18
1FEC18
1F07F0
000000
000000
000000
000000
000000
000000
ENDCHAR

STARTCHAR A4A7
ENCODING 42151
SWIDTH 960 0
DWIDTH 24 0
BBX 24 24 0 -6
BITMAP
000000
000000
000000
000000
000000
03FFC0
03FFC0
030000
030000
030000
030000
030000
030000
030000
030000
030000
03FFC0
03FFC0
000000
000000
000000
000000
000000
000000
ENDCHAR

STARTCHAR A4A8
ENCODING 42152
SWIDTH 960 0
DWIDTH 24 0
BBX 24 24 0 -6
BITMAP
000000
000000
000000
000000
000000
0FEFF0
0FEFF0
0C0C00
0C0C00
0C0C00
0C0C00
0C0C00
0C0C00
0C0C00
0C0C00
0C0C00
0FEFF0
0FEFF0
000000
000000
000000
000000
000000
000000
ENDCHAR

STARTCHAR A4A9
ENCODING 42153
SWIDTH 960 0
DWIDTH 24 0
BBX 24 24 0 -6
BITMAP
000000
000000
000000
000000
000000
07FFC0
07FFC0
0000C0
0000C0
0000C0
07FFC0
07FFC0
060000
060000
060000
060000
07FFC0
07FFC0
000000
000000
000000
000000
000000
000000
ENDCHAR

STARTCHAR A4AA
ENCODING 42154
SWIDTH 960 0
DWIDTH 24 0
BBX 24 24 0 -6
BITMAP
000000
000000
000000
000000
000000
1FEFF0
1FEFF0
006030
006030
006030
1FE030
1FE030
180030
180030
180030
180030
1FE030
1FE030
000000
000000
000000
000000
000000
000000
ENDCHAR

STARTCHAR A4AB
ENCODING 42155
SWIDTH 960 0
DWIDTH 24 0
BBX 24 24 0 -6
BITMAP
000000
000000
000000
000000
000000
1FE7F8
1FE7F8
006618
006618
006618
1FE618
1FE618
180618
180618
180618
180618
1FE7F8
1FE7F8
000000
000000
000000
000000
000000
000000
ENDCHAR

STARTCHAR A4AC
ENCODING 42156
SWIDTH 960 0
DWIDTH 24 0
BBX 24 24 0 -6
BITMAP
000000
000000
000000
000000
000000
1FE618
1FE618
006618
006618
006618
1FE7F8
1FE7F8
180618
180618
180618
180618
1FE7F8
1FE7F8
000000
000000
000000
000000
000000
000000
ENDCHAR

STARTCHAR A4AD
ENCODING 42157
SWIDTH 960 0
DWIDTH 24 0
BBX 24 24 0 -6
BITMAP
000000
000000
000000
000000
000000
1FE0C0
1FE0C0
0060C0
0060C0
0060C0
1FE1E0
1FE1E0
180330
180330
180618
180618
1FEC0C
1FEC0C
000000
000000
000000
000000
000000
000000
ENDCHAR

STARTCHAR A4AE
ENCODING 42158
SWIDTH 960 0
DWIDTH 24 0
BBX 24 24 0 -6
BITMAP
000000
000000
000000
000000
000000
1FE7F8
1FE7F8
006600
006600
006600
1FE7F8
1FE7F8
180600
180600
180600
180600
1FE7F8
1FE7F8
000000
000000
000000
000000
000000
000000
ENDCHAR

STARTCHAR A4AF
ENCODING 42159
SWIDTH 960 0
DWIDTH 24 0
BBX 24 24 0 -6
BITMAP
000000
000000
000000
000000
000000
3FCFFC
3FCFFC
00C330
00C330
00C330
3FC330
3FC330
300330
300330
300330
300330
3FCFFC
3FCFFC
000000
000000
000000
000000
000000
000000
ENDCHAR

STARTCHAR A4B0
ENCODING 42160
SWIDTH 960 0
DWIDTH 24 0
BBX 24 24 0 -6
BITMAP
000000
000000
000000
000000
000000
1FE3F0
1FE3F0
006000
006000
006FFC
1FEFFC
1FE000
180000
1803F0
180618
180618
1FE618
1FE3F0
000000
000000
000000
000000
000000
000000
ENDCHAR

STARTCHAR A4B1
ENCODING 42161
SWIDTH 960 0
DWIDTH 24 0
BBX 24 24 0 -6
BITMAP
000000
000000
000000
000000
000000
03FFE0
03FFE0
030060
030060
030060
030060
030060
030060
030060
030060
030060
03FFE0
03FFE0
000000
000000
000000
000000
000000
000000
ENDCHAR

STARTCHAR A4B2
ENCODING 42162
SWIDTH 960 0
DWIDTH 24 0
BBX 24 24 0 -6
BITMAP
000000
000000
000000
000000
000000
0300C0
0300C0
0300C0
0300C0
0300C0
03FFC0
03FFC0
0300C0
0300C0
0300C0
0300C0
03FFC0
03FFC0
000000
000000
000000
000000
000000
000000
ENDCHAR

STARTCHAR A4B3
ENCODING 42163
SWIDTH 960 0
DWIDTH 24 0
BBX 24 24 0 -6
BITMAP
000000
000000
000000
000000
000000
186618
186618
186618
186618
186618
1FE7F8
1FE7F8
186618
186618
186618
186618
1FE7F8
1FE7F8
000000
000000
000000
000000
000000
000000
ENDCHAR

STARTCHAR A4B4
ENCODING 42164
SWIDTH 960 0
DWIDTH 24 0
BBX 24 24 0 -6
BITMAP
000000
000000
000000
000000
000000
30C0C0
30C0C0
30C0C0
30C0C0
30C0C0
3FC1E0
3FC1E0
30C330
30C330
30C618
30CE1C
3FDC0E
3FC804
000000
000000
000000
000000
000000
000000
ENDCHAR

STARTCHAR A4B5
ENCODING 42165
SWIDTH 960 0
DWIDTH 24 0
BBX 24 24 0 -6
BITMAP
000000
000000
000000
000000
000000
001800
001800
001800
001800
003C00
003C00
006600
006600
00C300
01C380
0381C0
0700E0
020040
000000
000000
000000
000000
000000
000000
ENDCHAR

STARTCHAR A4B6
ENCODING 42166
SWIDTH 960 0
DWIDTH 24 0
BBX 24 24 0 -6
BITMAP
000000
000000
000000
000000
000000
018180
018180
018180
018180
018180
018180
03C3C0
03C3C0
066660
066660
0C3C30
1C3C38
081810
000000
000000
000000
000000
000000
000000
ENDCHAR

STARTCHAR A4B7
ENCODING 42167
SWIDTH 960 0
DWIDTH 24 0
BBX 24 24 0 -6
BITMAP
000000
000000
000000
000000
000000
003E00
00FF80
01C1C0
0180C0
030060
030060
030060
030060
030060
0180C0
01C1C0
00FF80
003E00
000000
000000
000000
000000
000000
000000
ENDCHAR

STARTCHAR A4B8
ENCODING 42168
SWIDTH 960 0
DWIDTH 24 0
BBX 24 24 0 -6
BITMAP
000000
000000
000000
000000
000000
07FFE0
07FFE0
001800
001800
001800
003C00
003C00
006600
00E700
01C380
0381C0
0700E0
020040
000000
000000
000000
000000
000000
000000
ENDCHAR

STARTCHAR A4B9
ENCODING 42169
SWIDTH 960 0
DWIDTH 24 0
BBX 24 24 0 -6
BITMAP
000000
000000
000000
000000
000000
3FEFF8
3FEFF8
030180
030180
030180
0783C0
0783C0
0CC660
0CC660
186C30
186C30
303818
303818
000000
000000
000000
000000
000000
000000
ENDCHAR

STARTCHAR A4BA
ENCODING 42170
SWIDTH 960 0
DWIDTH 24 0
BBX 24 24 0 -6
BITMAP
000000
000000
000000
000000
000000
01FF80
01FF80
000000
000000
07FFE0
07FFE0
001800
003C00
007E00
00E700
01C380
0781E0
0700E0
000000
000000
000000
000000
000000
000000
ENDCHAR

STARTCHAR A4BB
ENCODING 42171
SWIDTH 960 0
DWIDTH 24 0
BBX 24 24 0 -6
BITMAP
000000
000000
000000
000000
000000
07FFC0
07FFC0
0000C0
0000C0
0000C0
001FC0
07FFC0
07E0C0
0000C0
0000C0
0000C0
0000C0
0000C0
000000
000000
000000
000000
000000
000000
ENDCHAR

STARTCHAR A4BC
ENCODING 42172
SWIDTH 960 0
DWIDTH 24 0
BBX 24 24 0 -6
BITMAP
000000
000000
000000
000000
000000
03FFC0
03FFC0
030000
030000
030000
03FFC0
03FFC0
030000
030000
030000
030000
03FFC0
03FFC0
000000
000000
000000
000000
000000
000000
ENDCHAR

STARTCHAR A4BD
ENCODING 42173
SWIDTH 960 0
DWIDTH 24 0
BBX 24 24 0 -6
BITMAP
000000
000000
000000
000000
000000
07FFE0
07FFE0
00C300
00C300
00C300
00C300
00C300
00C300
00C300
00C300
00C300
07FFE0
07FFE0
000000
000000
000000
000000
000000
000000
ENDCHAR

STARTCHAR A4BE
ENCODING 42174
SWIDTH 960 0
DWIDTH 24 0
BBX 24 24 0 -6
BITMAP
000000
000000
000000
000000
00FE00
00FE00
000000
000000
07FFC0
07FFC0
000000
000000
00FE00
01FF00
030180
030180
030180
01FF00
00FE00
000000
000000
000000
000000
000000
ENDCHAR

STARTCHAR A4BF
ENCODING 42175
SWIDTH 960 0
DWIDTH 24 0
BBX 24 24 0 -6
BITMAP
000000
000000
001800
001800
001800
001800
001800
001800
001800
001800
001FC0
001FC0
001800
001800
001800
001800
001800
001800
001800
001800
001800
000000
000000
000000
ENDCHAR

STARTCHAR A4C0
ENCODING 42176
SWIDTH 960 0
DWIDTH 24 0
BBX 24 24 0 -6
BITMAP
000000
000000
00C300
00C300
00C300
00C300
00C300
00C300
00C300
00C300
00FF00
00FF00
00C300
00C300
00C300
00C300
00C300
00C300
00C300
00C300
00C300
00C300
000000
000000
ENDCHAR

STARTCHAR A4C1
ENCODING 42177
SWIDTH 960 0
DWIDTH 24 0
BBX 24 24 0 -6
BITMAP
000000
000000
001800
001800
001800
001800
001800
001FC0
001FC0
001800
001800
001800
001800
001FC0
001FC0
001800
001800
001800
001800
001800
001800
001800
000000
000000
ENDCHAR

STARTCHAR A4C2
ENCODING 42178
SWIDTH 960 0
DWIDTH 24 0
BBX 24 24 0 -6
BITMAP
000000
000000
00C300
00C300
00C300
00C300
00C300
00FF00
00FF00
00C300
00C300
00C300
00C300
00C300
00FF00
00FF00
00C300
00C300
00C300
00C300
00C300
00C300
000000
000000
ENDCHAR

STARTCHAR A4C3
ENCODING 42179
SWIDTH 960 0
DWIDTH 24 0
BBX 24 24 0 -6
BITMAP
000000
000000
000300
000300
000300
000300
000300
000300
000300
000300
00FF00
00FF00
000300
000300
000300
000300
000300
000300
000300
000300
000300
000300
000000
000000
ENDCHAR

STARTCHAR A4C4
ENCODING 42180
SWIDTH 960 0
DWIDTH 24 0
BBX 24 24 0 -6
BITMAP
000000
000000
003180
003180
003180
003180
003180
003180
003180
003180
003180
07F180
07F180
003180
003180
003180
003180
003180
003180
003180
003180
003180
000000
000000
ENDCHAR

STARTCHAR A4C5
ENCODING 42181
SWIDTH 960 0
DWIDTH 24 0
BBX 24 24 0 -6
BITMAP
000000
000000
000300
000300
000300
000300
000300
000300
00FF00
00FF00
000300
000300
000300
000300
00FF00
00FF00
000300
000300
000300
000300
000300
000300
000000
000000
ENDCHAR

STARTCHAR A4C6
ENCODING 42182
SWIDTH 960 0
DWIDTH 24 0
BBX 24 24 0 -6
BITMAP
000000
000000
0018C0
0018C0
0018C0
0018C0
0018C0
0018C0
07F8C0
07F8C0
0018C0
0018C0
0018C0
0018C0
07F8C0
07F8C0
0018C0
0018C0
0018C0
0018C0
0018C0
0018C0
000000
000000
ENDCHAR

STARTCHAR A4C7
ENCODING 42183
SWIDTH 960 0
DWIDTH 24 0
BBX 24 24 0 -6
BITMAP
000000
000000
000000
000000
000000
001800
001800
001800
001800
001800
001800
001800
001800
001800
001800
3FFFFC
3FFFFC
000000
000000
000000
000000
000000
000000
000000
ENDCHAR

STARTCHAR A4C8
ENCODING 42184
SWIDTH 960 0
DWIDTH 24 0
BBX 24 24 0 -6
BITMAP
000000
000000
000180
000180
000180
000180
000180
000180
000180
00C180
00C180
00C1FC
00C1FC
00C180
00C180
1FFF80
1FFF80
000180
000180
000180
000180
000180
000000
000000
ENDCHAR

STARTCHAR A4C9
ENCODING 42185
SWIDTH 960 0
DWIDTH 24 0
BBX 24 24 0 -6
BITMAP
000000
000000
000318
000318
000318
000318
000318
000318
018318
018318
018318
0183F8
0183F8
018318
018318
3FFF18
3FFF18
000318
000318
000318
000318
000318
000000
000000
ENDCHAR

STARTCHAR A4CA
ENCODING 42186
SWIDTH 960 0
DWIDTH 24 0
BBX 24 24 0 -6
BITMAP
000000
000000
000060
000060
000060
000060
000060
00C060
00C060
00C060
00C060
00C060
00C060
00C060
00C060
3FFFE0
3FFFE0
000060
000060
000060
000060
000060
000000
000000
ENDCHAR

STARTCHAR A4CB
ENCODING 42187
SWIDTH 960 0
DWIDTH 24 0
BBX 24 24 0 -6
BITMAP
000000
000000
000000
000000
000000
000000
018300
018300
018300
018300
018300
018300
018300
018300
018300
3FFFF8
3FFFF8
000000
000000
000000
000000
000000
000000
000000
ENDCHAR

STARTCHAR A4CC
ENCODING 42188
SWIDTH 960 0
DWIDTH 24 0
BBX 24 24 0 -6
BITMAP
000000
000000
000000
000000
000000
000000
000000
000000
3FFFFC
3FFFFC
001800
001800
001800
001800
001800
001800
001800
001800
001800
001800
000000
000000
000000
000000
ENDCHAR

STARTCHAR A4CD
ENCODING 42189
SWIDTH 960 0
DWIDTH 24 0
BBX 24 24 0 -6
BITMAP
000000
000000
000030
000030
000030
000030
000030
000030
000030
000030
3FFF30
3FFF30
00C030
00C030
00C7F0
00C7F0
00C030
00C030
00C030
00C030
00C030
00C030
000000
000000
ENDCHAR

STARTCHAR A4CE
ENCODING 42190
SWIDTH 960 0
DWIDTH 24 0
BBX 24 24 0 -6
BITMAP
000000
000000
0000CC
0000CC
0000CC
0000CC
0000CC
0000CC
0000CC
0000CC
3FFCCC
3FFCCC
0180CC
0180CC
019FCC
019FCC
0180CC
0180CC
0180CC
0180CC
0180CC
0180CC
000000
000000
ENDCHAR

STARTCHAR A4CF
ENCODING 42191
SWIDTH 960 0
DWIDTH 24 0
BBX 24 24 0 -6
BITMAP
000000
000000
000030
000030
000030
000030
000030
000030
000030
000030
000030
1FFFF0
1FFFF0
003030
003030
003030
003030
003030
003030
003030
003030
003030
000000
000000
ENDCHAR

STARTCHAR A4D0
ENCODING 42192
SWIDTH 960 0
DWIDTH 24 0
BBX 24 24 0 -6
BITMAP
000000
000000
000000
000000
000000
000000
000000
000000
3FFFFC
3FFFFC
00C300
00C300
00C300
00C300
00C300
00C300
00C300
00C300
00C300
00C300
00C300
00C300
000000
000000
ENDCHAR

STARTCHAR A4D1
ENCODING 42193
SWIDTH 960 0
DWIDTH 24 0
BBX 24 24 0 -6
BITMAP
000000
000000
000000
000000
000000
000000
000000
000000
000000
000000
000000
3FFFFC
3FFFFC
000000
000000
000000
000000
000000
000000
000000
000000
000000
000000
000000
ENDCHAR

STARTCHAR A4D2
ENCODING 42194
SWIDTH 960 0
DWIDTH 24 0
BBX 24 24 0 -6
BITMAP
000000
000000
000060
000060
000060
000060
000060
000060
000060
000060
000060
000060
000060
1FFFE0
1FFFE0
000060
000060
000060
000060
000060
000060
000060
000000
000000
ENDCHAR

STARTCHAR A4D3
ENCODING 42195
SWIDTH 960 0
DWIDTH 24 0
BBX 24 24 0 -6
BITMAP
000000
000000
001800
001800
001800
001800
001800
001800
001800
001800
001800
001800
001800
001800
001800
001800
001800
001800
001800
001800
001800
001800
000000
000000
ENDCHAR

STARTCHAR A4D4
ENCODING 42196
SWIDTH 960 0
DWIDTH 24 0
BBX 24 24 0 -6
BITMAP
000000
000000
000000
000000
000000
000000
000000
000000
000000
000000
000000
000000
000000
000000
000000
000000
000000
000000
000000
000000
000000
000000
000000
000000
ENDCHAR

STARTCHAR A4D5
ENCODING 42197
SWIDTH 960 0
DWIDTH 24 0
BBX 24 24 0 -6
BITMAP
000000
000000
000000
000000
000000
0C0600
0C0600
0C0600
0C0600
0C0600
0C0600
0C0600
0C0600
0C0600
0C0600
0C7600
0FF7F8
0FC7F8
000000
000000
000000
000000
000000
000000
ENDCHAR

STARTCHAR A4D6
ENCODING 42198
SWIDTH 960 0
DWIDTH 24 0
BBX 24 24 0 -6
BITMAP
000000
000000
000000
000000
000000
180FF8
180FF8
180C00
180C00
180C00
180C00
180C00
180C00
180C00
180C00
187C00
1FFFF8
1F8FF8
000000
000000
000000
000000
000000
000000
ENDCHAR

STARTCHAR A4D7
ENCODING 42199
SWIDTH 960 0
DWIDTH 24 0
BBX 24 24 0 -6
BITMAP
000000
000000
000000
000000
000000
180180
180180
180180
180180
180180
180180
1803C0
1803C0
180660
180E70
18FC38
1FF81C
1F1008
000000
000000
000000
000000
000000
000000
ENDCHAR

STARTCHAR A4D8
ENCODING 42200
SWIDTH 960 0
DWIDTH 24 0
BBX 24 24 0 -6
BITMAP
000000
000000
000000
000000
000000
180080
180080
1801C0
1801C0
180360
180360
180630
180630
180C18
180C18
18780C
1FFFFC
1F9FFC
000000
000000
000000
000000
000000
000000
ENDCHAR

STARTCHAR A4D9
ENCODING 42201
SWIDTH 960 0
DWIDTH 24 0
BBX 24 24 0 -6
BITMAP
000000
000000
000000
000000
000000
3F7C30
3F7C30
030C30
030C30
030C30
3F0C78
3F0C78
300C78
300CCC
300CCC
300CCC
3F0D86
3F0D86
000000
000000
000000
000000
000000
000000
ENDCHAR

STARTCHAR A4DA
ENCODING 42202
SWIDTH 960 0
DWIDTH 24 0
BBX 24 24 0 -6
BITMAP
000000
000000
000000
000000
000000
1FE7F8
1FE7F8
006600
006600
006600
1FE600
1FE600
180600
180600
180600
180600
1FE7F8
1FE7F8
000000
000000
000000
000000
000000
000000
ENDCHAR

STARTCHAR A4DB
ENCODING 42203
SWIDTH 960 0
DWIDTH 24 0
BBX 24 24 0 -6
BITMAP
000000
000000
000000
000000
000000
3F6630
3F6630
036630
036630
036630
3F7E78
3F7E78
306678
3066CC
3066CC
3066CC
3F7F86
3F7F86
000000
000000
000000
000000
000000
000000
ENDCHAR

STARTCHAR A4DC
ENCODING 42204
SWIDTH 960 0
DWIDTH 24 0
BBX 24 24 0 -6
BITMAP
000000
000000
000000
000000
000000
3FC080
3FC080
00C1C0
00C1C0
00C360
3FC360
3FC630
300630
300C18
300C18
30180C
3FDFFC
3FDFFC
000000
000000
000000
000000
000000
000000
ENDCHAR

STARTCHAR A4DD
ENCODING 42205
SWIDTH 960 0
DWIDTH 24 0
BBX 24 24 0 -6
BITMAP
000000
000000
000000
000000
000000
1FCFF0
1FCFF0
00C000
00C000
00C000
1FC3C0
1FC7E0
180C30
180C30
180C30
180C30
1FC7E0
1FC3C0
000000
000000
000000
000000
000000
000000
ENDCHAR

STARTCHAR A4DE
ENCODING 42206
SWIDTH 960 0
DWIDTH 24 0
BBX 24 24 0 -6
BITMAP
000000
000000
000000
000000
000000
1FE618
1FE618
186618
186618
186618
1867F8
1867F8
186618
186618
186618
186618
1FE7F8
1FE7F8
000000
000000
000000
000000
000000
000000
ENDCHAR

STARTCHAR A4DF
ENCODING 42207
SWIDTH 960 0
DWIDTH 24 0
BBX 24 24 0 -6
BITMAP
000000
000000
000000
000000
000000
1FE0C0
1FE0C0
1860C0
1860C0
1860C0
1861E0
1861E0
186330
186330
186618
186E1C
1FFC0E
1FE804
000000
000000
000000
000000
000000
000000
ENDCHAR

STARTCHAR A4E0
ENCODING 42208
SWIDTH 960 0
DWIDTH 24 0
BBX 24 24 0 -6
BITMAP
000000
000000
000000
000000
000000
1FC080
1FC080
18C1C0
18C1C0
18C360
18C360
18C630
18C630
18CC18
18CC18
18D80C
1FDFFC
1FDFFC
000000
000000
000000
000000
000000
000000
ENDCHAR

STARTCHAR A4E1
ENCODING 42209
SWIDTH 960 0
DWIDTH 24 0
BBX 24 24 0 -6
BITMAP
000000
000000
000000
000000
000000
01FFC0
01FFC0
0180C0
0180C0
01FFC0
01FFC0
000000
000000
007F00
00FF80
0180C0
0180C0
00FF80
007F00
000000
000000
000000
000000
000000
ENDCHAR

STARTCHAR A4E2
ENCODING 42210
SWIDTH 960 0
DWIDTH 24 0
BBX 24 24 0 -6
BITMAP
000000
000000
000000
000000
000000
186FF0
186FF0
186030
186030
186030
1FE030
1FE030
186030
186030
186030
186030
1FE030
1FE030
000000
000000
000000
000000
000000
000000
ENDCHAR

STARTCHAR A4E3
ENCODING 42211
SWIDTH 960 0
DWIDTH 24 0
BBX 24 24 0 -6
BITMAP
000000
000000
000000
000000
000000
0C33F8
0C33F8
0C3300
0C3300
0C3300
0FF300
0FF300
0C3300
0C3300
0C3300
0C3300
0FF3F8
0FF3F8
000000
000000
000000
000000
000000
000000
ENDCHAR

STARTCHAR A4E4
ENCODING 42212
SWIDTH 960 0
DWIDTH 24 0
BBX 24 24 0 -6
BITMAP
000000
000000
000000
000000
000000
330CFC
330CFC
330C0C
330C0C
3F0C0C
3F1E0C
331E0C
331E0C
33330C
33330C
33330C
3F618C
3F618C
000000
000000
000000
000000
000000
000000
ENDCHAR

STARTCHAR A4E5
ENCODING 42213
SWIDTH 960 0
DWIDTH 24 0
BBX 24 24 0 -6
BITMAP
000000
000000
000000
000000
000000
630C3E
630C3E
630C30
630C30
630C30
7F0C30
7F1E30
631E30
633330
633330
6361B0
7FE1FE
7F40BE
000000
000000
000000
000000
000000
000000
ENDCHAR

STARTCHAR A4E6
ENCODING 42214
SWIDTH 960 0
DWIDTH 24 0
BBX 24 24 0 -6
BITMAP
000000
000000
000000
000000
000000
30CFFC
30CFFC
30C0C0
30C0C0
30C0C0
3FC0C0
3FC1E0
30C1E0
30C330
30C330
30C618
3FCE1C
3FC408
000000
000000
000000
000000
000000
000000
ENDCHAR

STARTCHAR A4E7
ENCODING 42215
SWIDTH 960 0
DWIDTH 24 0
BBX 24 24 0 -6
BITMAP
000000
000000
000000
000000
000000
1867F8
1867F8
186600
186600
186600
1FE7F8
1FE7F8
186600
186600
186600
186600
1FE7F8
1FE7F8
000000
000000
000000
000000
000000
000000
ENDCHAR

STARTCHAR A4E8
ENCODING 42216
SWIDTH 960 0
DWIDTH 24 0
BBX 24 24 0 -6
BITMAP
000000
000000
000000
000000
0300C0
0300C0
03FFC0
03FFC0
0300C0
0300C0
03FFC0
03FFC0
000000
000000
01FF80
03FFC0
0300C0
0300C0
03FFC0
01FF80
000000
000000
000000
000000
ENDCHAR

STARTCHAR A4E9
ENCODING 42217
SWIDTH 960 0
DWIDTH 24 0
BBX 24 24 0 -6
BITMAP
000000
000000
000000
000000
0C6630
0C6630
0FE7F0
0FE7F0
0C6630
0C6630
0FE7F0
0FE7F0
000000
000000
03FFC0
07FFE0
060060
060060
07FFE0
03FFC0
000000
000000
000000
000000
ENDCHAR

STARTCHAR A4EA
ENCODING 42218
SWIDTH 960 0
DWIDTH 24 0
BBX 24 24 0 -6
BITMAP
000000
000000
000000
000000
000000
0187F8
0187F8
018018
018018
038018
03C018
03C018
066018
066018
0C3018
1C3818
381C18
100818
000000
000000
000000
000000
000000
000000
ENDCHAR

STARTCHAR A4EB
ENCODING 42219
SWIDTH 960 0
DWIDTH 24 0
BBX 24 24 0 -6
BITMAP
000000
000000
000000
000000
000000
030300
030300
030300
030300
030300
078300
078300
0CC300
0CC300
186300
387300
703BFC
2013FC
000000
000000
000000
000000
000000
000000
ENDCHAR

STARTCHAR A4EC
ENCODING 42220
SWIDTH 960 0
DWIDTH 24 0
BBX 24 24 0 -6
BITMAP
000000
000000
000000
000000
000000
0303FC
0303FC
030300
030300
070300
078300
078300
0CC300
0CC300
186300
387300
703BFC
2013FC
000000
000000
000000
000000
000000
000000
ENDCHAR

STARTCHAR A4ED
ENCODING 42221
SWIDTH 960 0
DWIDTH 24 0
BBX 24 24 0 -6
BITMAP
000000
000000
000000
000000
000000
03030C
03030C
03030C
03030C
03030C
0783FC
0783FC
0CC30C
0CC30C
18630C
38730C
703BFC
2013FC
000000
000000
000000
000000
000000
000000
ENDCHAR

STARTCHAR A4EE
ENCODING 42222
SWIDTH 960 0
DWIDTH 24 0
BBX 24 24 0 -6
BITMAP
000000
000000
000000
000000
000000
030FFC
030FFC
0300C0
0300C0
0700C0
0781E0
0781E0
0CC330
0CC330
186618
387E1C
703C0E
201804
000000
000000
000000
000000
000000
000000
ENDCHAR

STARTCHAR A4EF
ENCODING 42223
SWIDTH 960 0
DWIDTH 24 0
BBX 24 24 0 -6
BITMAP
000000
000000
000000
000000
000000
001800
001800
003C00
003C00
006600
006600
00C300
00C300
018180
018180
0300C0
03FFC0
03FFC0
000000
000000
000000
000000
000000
000000
ENDCHAR

STARTCHAR A4F0
ENCODING 42224
SWIDTH 960 0
DWIDTH 24 0
BBX 24 24 0 -6
BITMAP
000000
000000
000000
000000
000000
0600C0
0600C0
0F81F0
1FC3F8
18C318
30660C
30660C
30660C
30660C
30660C
18C318
1FC3F8
0700E0
000000
000000
000000
000000
000000
000000
ENDCHAR

STARTCHAR A4F1
ENCODING 42225
SWIDTH 960 0
DWIDTH 24 0
BBX 24 24 0 -6
BITMAP
000000
000000
000000
000000
000000
001800
001800
007E00
01FF80
018180
0300C0
0300C0
0300C0
0300C0
0300C0
018180
01FF80
007E00
000000
000000
000000
000000
000000
000000
ENDCHAR

STARTCHAR A4F2
ENCODING 42226
SWIDTH 960 0
DWIDTH 24 0
BBX 24 24 0 -6
BITMAP
000000
000000
000000
000000
000000
060180
060180
0F0180
1F8180
39C3C0
30C3C0
30C3C0
30C660
30C660
30CC30
39DC38
1FB81C
0F1008
000000
000000
000000
000000
000000
000000
ENDCHAR

STARTCHAR A4F3
ENCODING 42227
SWIDTH 960 0
DWIDTH 24 0
BBX 24 24 0 -6
BITMAP
000000
000000
000000
000000
000000
060080
060080
0F01C0
1F81C0
39C360
30C360
30C630
30C630
30CC18
30CC18
39D80C
1F9FFC
0F1FFC
000000
000000
000000
000000
000000
000000
ENDCHAR

STARTCHAR A4F4
ENCODING 42228
SWIDTH 960 0
DWIDTH 24 0
BBX 24 24 0 -6
BITMAP
000000
000000
000000
000000
03FF80
03FF80
00C600
00C600
00C600
03FF80
03FF80
000000
000000
01FF00
03FF80
030180
030180
03FF80
01FF00
000000
000000
000000
000000
000000
ENDCHAR

STARTCHAR A4F5
ENCODING 42229
SWIDTH 960 0
DWIDTH 24 0
BBX 24 24 0 -6
BITMAP
000000
000000
000000
000000
1F83F0
1F83F0
000000
000000
7FEFFC
7FEFFC
000000
000000
0F01E0
1F83F0
30C618
30C618
30C618
1F83F0
0F01E0
000000
000000
000000
000000
000000
ENDCHAR

STARTCHAR A4F6
ENCODING 42230
SWIDTH 960 0
DWIDTH 24 0
BBX 24 24 0 -6
BITMAP
000000
000000
000000
000000
000000
03FFE0
03FFE0
000000
000000
003E00
00FF80
00C180
0180C0
0180C0
0180C0
00C180
00FF80
003E00
000000
000000
000000
000000
000000
000000
ENDCHAR

STARTCHAR A4F7
ENCODING 42231
SWIDTH 960 0
DWIDTH 24 0
BBX 24 24 0 -6
BITMAP
000000
000000
0000C0
0000C0
0000C0
0000C0
0000C0
0000C0
0000FC
0000FC
0000C0
0630C0
0630C0
0630FC
0630FC
0630C0
3FFFC0
3FFFC0
0000C0
0000C0
0000C0
0000C0
000000
000000
ENDCHAR

STARTCHAR A4F8
ENCODING 42232
SWIDTH 960 0
DWIDTH 24 0
BBX 24 24 0 -6
BITMAP
000000
000000
000318
000318
000318
000318
000318
000318
0003F8
0003F8
066318
066318
066318
066318
0663F8
3FFFF8
3FFF18
000318
000318
000318
000318
000318
000000
000000
ENDCHAR

STARTCHAR A4F9
ENCODING 42233
SWIDTH 960 0
DWIDTH 24 0
BBX 24 24 0 -6
BITMAP
000000
000000
000030
000030
000030
000030
000030
000030
000030
000030
018C30
018C30
018C30
018C30
018C30
1FFFF0
1FFFF0
000030
000030
000030
000030
000030
000000
000000
ENDCHAR

STARTCHAR A4FA
ENCODING 42234
SWIDTH 960 0
DWIDTH 24 0
BBX 24 24 0 -6
BITMAP
000000
000000
000030
000030
000030
000030
000030
000030
000030
3FFF30
3FFF30
063030
0633F0
0633F0
063030
063030
0633F0
0633F0
063030
063030
063030
063030
000000
000000
ENDCHAR

STARTCHAR A4FB
ENCODING 42235
SWIDTH 960 0
DWIDTH 24 0
BBX 24 24 0 -6
BITMAP
000000
000000
000198
000198
000198
000198
000198
000198
000198
000198
3FFD98
3FFD98
0CC198
0CCF98
0CCF98
0CC198
0CC198
0CCF98
0CCF98
0CC198
0CC198
0CC198
000000
000000
ENDCHAR

STARTCHAR A4FC
ENCODING 42236
SWIDTH 960 0
DWIDTH 24 0
BBX 24 24 0 -6
BITMAP
000000
000000
000060
000060
000060
000060
000060
000060
000060
000060
000060
000060
3FFFE0
3FFFE0
031860
031860
031860
031860
031860
031860
031860
031860
000000
000000
ENDCHAR

STARTCHAR A4FD
ENCODING 42237
SWIDTH 960 0
DWIDTH 24 0
BBX 24 24 0 -6
BITMAP
000000
000000
000000
000000
000000
000000
000000
000000
000000
003800
007C00
007C00
007C00
003800
000000
000000
000000
000000
000000
000000
000000
000000
000000
000000
ENDCHAR

STARTCHAR A4FE
ENCODING 42238
SWIDTH 960 0
DWIDTH 24 0
BBX 24 24 0 -6
BITMAP
000000
000000
000180
000180
000180
000180
000180
000180
000180
038180
07C180
07C180
07C180
038180
000180
000180
000180
000180
000180
000180
000180
000180
000000
000000
ENDCHAR

STARTCHAR A5A1
ENCODING 42401
SWIDTH 960 0
DWIDTH 24 0
BBX 24 24 0 -6
BITMAP
000000
000000
000000
001800
001800
000000
000000
000000
001800
001800
001800
001800
001800
001800
001800
001800
001800
001800
001800
001800
001800
000000
000000
000000
ENDCHAR

STARTCHAR A5A2
ENCODING 42402
SWIDTH 960 0
DWIDTH 24 0
BBX 24 24 0 -6
BITMAP
000000
000000
000000
018300
018300
000000
000000
000000
018300
018300
018300
018300
018300
018300
018300
018300
018300
018300
018300
018300
018300
000000
000000
000000
ENDCHAR

STARTCHAR A5A3
ENCODING 42403
SWIDTH 960 0
DWIDTH 24 0
BBX 24 24 0 -6
BITMAP
000000
000000
000000
061860
061860
000000
000000
000000
061860
061860
061860
061860
061860
061860
061860
061860
061860
061860
061860
061860
061860
000000
000000
000000
ENDCHAR

STARTCHAR A5A4
ENCODING 42404
SWIDTH 960 0
DWIDTH 24 0
BBX 24 24 0 -6
BITMAP
000000
000000
000000
060000
060000
000000
000000
000000
066060
066060
0630C0
0630C0
0630C0
061980
061980
060F00
060F00
060F00
060600
060600
060600
000000
000000
000000
ENDCHAR

STARTCHAR A5A5
ENCODING 42405
SWIDTH 960 0
DWIDTH 24 0
BBX 24 24 0 -6
BITMAP
000000
000000
000000
000000
000000
000000
000000
000000
018180
018180
00C300
00C300
00C300
006600
006600
006600
003C00
003C00
003C00
001800
001800
000000
000000
000000
ENDCHAR

STARTCHAR A5A6
ENCODING 42406
SWIDTH 960 0
DWIDTH 24 0
BBX 24 24 0 -6
BITMAP
000000
000000
000000
0000C0
0000C0
000000
000000
000000
0C0CC0
0C0CC0
0618C0
0618C0
0618C0
0330C0
0330C0
0330C0
01E0C0
01E0C0
01E0C0
00C0C0
00C0C0
000000
000000
000000
ENDCHAR

STARTCHAR A5A7
ENCODING 42407
SWIDTH 960 0
DWIDTH 24 0
BBX 24 24 0 -6
BITMAP
000000
000000
000000
000318
000318
000000
000000
000000
303318
303318
186318
186318
186318
0CC318
0CC318
0CC318
078318
078318
030318
030318
030318
000000
000000
000000
ENDCHAR

STARTCHAR A5A8
ENCODING 42408
SWIDTH 960 0
DWIDTH 24 0
BBX 24 24 0 -6
BITMAP
000000
000000
000000
000CCC
000CCC
000000
000000
000000
30CCCC
30CCCC
30CCCC
198CCC
198CCC
198CCC
090CCC
0F0CCC
0F0CCC
060CCC
060CCC
060CCC
060CCC
000000
000000
000000
ENDCHAR

STARTCHAR A5A9
ENCODING 42409
SWIDTH 960 0
DWIDTH 24 0
BBX 24 24 0 -6
BITMAP
000000
000000
000000
060000
060000
000000
000000
000000
0630C0
0630C0
061980
061980
060F00
060F00
060600
060F00
060F00
061980
061980
0630C0
0630C0
000000
000000
000000
ENDCHAR

STARTCHAR A5AA
ENCODING 42410
SWIDTH 960 0
DWIDTH 24 0
BBX 24 24 0 -6
BITMAP
000000
000000
000000
000000
000000
000000
000000
000000
018180
018180
00C300
006600
006600
003C00
003C00
003C00
006600
006600
00C300
018180
018180
000000
000000
000000
ENDCHAR

STARTCHAR A5B0
ENCODING 42416
SWIDTH 960 0
DWIDTH 24 0
BBX 24 24 0 -6
BITMAP
000000
000000
000000
001800
001800
001800
001800
001800
001800
001800
001800
001800
001800
001800
001800
001800
001800
001800
001800
001800
001800
000000
000000
000000
ENDCHAR

STARTCHAR A5B1
ENCODING 42417
SWIDTH 960 0
DWIDTH 24 0
BBX 24 24 0 -6
BITMAP
000000
000000
000000
00C300
00C300
00C300
00C300
00C300
00C300
00C300
00C300
00C300
00C300
00C300
00C300
00C300
00C300
00C300
00C300
00C300
00C300
000000
000000
000000
ENDCHAR

STARTCHAR A5B2
ENCODING 42418
SWIDTH 960 0
DWIDTH 24 0
BBX 24 24 0 -6
BITMAP
000000
000000
000000
0318C0
0318C0
0318C0
0318C0
0318C0
0318C0
0318C0
0318C0
0318C0
0318C0
0318C0
0318C0
0318C0
0318C0
0318C0
0318C0
0318C0
0318C0
000000
000000
000000
ENDCHAR

STARTCHAR A5B3
ENCODING 42419
SWIDTH 960 0
DWIDTH 24 0
BBX 24 24 0 -6
BITMAP
000000
000000
000000
063030
063030
063030
061860
061860
061860
061860
060CC0
060CC0
060CC0
060CC0
060780
060780
060780
060780
060300
060300
060300
000000
000000
000000
ENDCHAR

STARTCHAR A5B4
ENCODING 42420
SWIDTH 960 0
DWIDTH 24 0
BBX 24 24 0 -6
BITMAP
000000
000000
000000
0300C0
0300C0
0300C0
018180
018180
018180
00C300
00C300
00C300
006600
006600
006600
003C00
003C00
003C00
001800
001800
001800
000000
000000
000000
ENDCHAR

STARTCHAR A5B5
ENCODING 42421
SWIDTH 960 0
DWIDTH 24 0
BBX 24 24 0 -6
BITMAP
000000
000000
000000
0C0CC0
0C0CC0
0C0CC0
0618C0
0618C0
0618C0
0618C0
0330C0
0330C0
0330C0
0330C0
01E0C0
01E0C0
01E0C0
01E0C0
00C0C0
00C0C0
00C0C0
000000
000000
000000
ENDCHAR

STARTCHAR A5B6
ENCODING 42422
SWIDTH 960 0
DWIDTH 24 0
BBX 24 24 0 -6
BITMAP
000000
000000
000000
186630
186630
186630
186630
0CC630
0CC630
0CC630
0CC630
0CC630
078630
078630
078630
078630
078630
030630
030630
030630
030630
000000
000000
000000
ENDCHAR

STARTCHAR A5B7
ENCODING 42423
SWIDTH 960 0
DWIDTH 24 0
BBX 24 24 0 -6
BITMAP
000000
000000
000000
30CCCC
30CCCC
30CCCC
30CCCC
30CCCC
198CCC
198CCC
198CCC
198CCC
198CCC
0F0CCC
0F0CCC
0F0CCC
0F0CCC
060CCC
060CCC
060CCC
060CCC
000000
000000
000000
ENDCHAR

STARTCHAR A5B8
ENCODING 42424
SWIDTH 960 0
DWIDTH 24 0
BBX 24 24 0 -6
BITMAP
000000
000000
000000
066030
063060
063060
0618C0
0618C0
060D80
060D80
060700
060700
060700
060700
060D80
060D80
0618C0
0618C0
063060
063060
066030
000000
000000
000000
ENDCHAR

STARTCHAR A5B9
ENCODING 42425
SWIDTH 960 0
DWIDTH 24 0
BBX 24 24 0 -6
BITMAP
000000
000000
000000
0700E0
0300C0
018180
01C380
00C300
006600
007600
003C00
001800
001C00
003C00
007600
006700
00C300
01C180
0181C0
0300C0
0700E0
000000
000000
000000
ENDCHAR

STARTCHAR A5C1
ENCODING 42433
SWIDTH 960 0
DWIDTH 24 0
BBX 24 24 0 -6
BITMAP
000000
000000
000000
000000
000060
0000E0
0001E0
000160
000360
000660
000C60
000860
001860
003060
006060
00FFE0
008060
018060
030060
060060
3F83F8
000000
000000
000000
ENDCHAR

STARTCHAR A5C2
ENCODING 42434
SWIDTH 960 0
DWIDTH 24 0
BBX 24 24 0 -6
BITMAP
000000
000000
000000
000000
07FFC0
018060
018030
018030
018030
030020
030040
03FF80
0300C0
030060
030060
060060
060060
0600C0
0600C0
060180
1FFE00
000000
000000
000000
ENDCHAR

STARTCHAR A5C3
ENCODING 42435
SWIDTH 960 0
DWIDTH 24 0
BBX 24 24 0 -6
BITMAP
000000
000000
000000
000000
03FFE0
00C060
00C020
00C020
00C000
00C000
018000
018000
018000
018000
018000
030000
030000
030000
030000
030000
0FC000
000000
000000
000000
ENDCHAR

STARTCHAR A5C4
ENCODING 42436
SWIDTH 960 0
DWIDTH 24 0
BBX 24 24 0 -6
BITMAP
000000
000000
000000
000000
000030
000070
0000F0
0001B0
000330
000660
000C60
001860
003060
006060
00C060
0180C0
0300C0
0600C0
0C00C0
1FFFC0
1FFFC0
000000
000000
000000
ENDCHAR

STARTCHAR A5C5
ENCODING 42437
SWIDTH 960 0
DWIDTH 24 0
BBX 24 24 0 -6
BITMAP
000000
000000
000000
000000
03FFF0
00C030
00C010
00C010
00C000
018080
018080
01FF80
018100
018100
018100
018000
030000
030040
030040
0300C0
0FFFC0
000000
000000
000000
ENDCHAR

STARTCHAR A5C6
ENCODING 42438
SWIDTH 960 0
DWIDTH 24 0
BBX 24 24 0 -6
BITMAP
000000
000000
000000
000000
01FFE0
018060
0100C0
010180
000300
000600
000600
000C00
001800
003000
006000
006000
00C000
018080
030080
060180
07FF80
000000
000000
000000
ENDCHAR

STARTCHAR A5C7
ENCODING 42439
SWIDTH 960 0
DWIDTH 24 0
BBX 24 24 0 -6
BITMAP
000000
000000
000000
000000
0FC1F8
030060
030060
030060
030060
0600C0
0600C0
0600C0
07FFC0
0600C0
0600C0
0600C0
0C0180
0C0180
0C0180
0C0180
3F07E0
000000
000000
000000
ENDCHAR

STARTCHAR A5C8
ENCODING 42440
SWIDTH 960 0
DWIDTH 24 0
BBX 24 24 0 -6
BITMAP
000000
000000
000000
003F00
00E0C0
018060
030020
030030
060030
060030
064130
0C4130
0CFF30
0C8230
0C8260
0C0060
0C0060
0C00C0
0400C0
060180
030700
00FC00
000000
000000
ENDCHAR

STARTCHAR A5C9
ENCODING 42441
SWIDTH 960 0
DWIDTH 24 0
BBX 24 24 0 -6
BITMAP
000000
000000
000000
000000
003F00
000C00
000C00
000C00
000C00
001800
001800
001800
001800
001800
001800
003000
003000
003000
003000
003000
00FC00
000000
000000
000000
ENDCHAR

STARTCHAR A5CA
ENCODING 42442
SWIDTH 960 0
DWIDTH 24 0
BBX 24 24 0 -6
BITMAP
000000
000000
000000
000000
07E3F8
0180C0
018180
018300
030600
030C00
031800
037000
03F800
039800
030C00
060C00
060600
060600
060300
060300
1F8FC0
000000
000000
000000
ENDCHAR

STARTCHAR A5CB
ENCODING 42443
SWIDTH 960 0
DWIDTH 24 0
BBX 24 24 0 -6
BITMAP
000000
000000
000000
000000
000060
0000E0
0001E0
000160
000360
000660
000C60
000860
001860
003060
006060
004060
00C060
018060
030060
060060
3F83F8
000000
000000
000000
ENDCHAR

STARTCHAR A5CC
ENCODING 42444
SWIDTH 960 0
DWIDTH 24 0
BBX 24 24 0 -6
BITMAP
000000
000000
000000
000000
1F001E
070018
070038
070078
070058
058098
0981B0
098130
098230
08C630
08C430
08C830
10D860
107060
106060
106060
7C01F8
000000
000000
000000
ENDCHAR

STARTCHAR A5CD
ENCODING 42445
SWIDTH 960 0
DWIDTH 24 0
BBX 24 24 0 -6
BITMAP
000000
000000
000000
000000
0780F8
01C020
01C020
016020
016020
013040
023040
021840
021840
020C40
020C40
020680
040680
040380
040380
040180
1F0180
000000
000000
000000
ENDCHAR

STARTCHAR A5CE
ENCODING 42446
SWIDTH 960 0
DWIDTH 24 0
BBX 24 24 0 -6
BITMAP
000000
000000
000000
000000
03FFF0
020020
040020
040020
000000
008080
008080
00FF80
010100
010100
010100
000000
040040
040040
040040
080080
0FFF80
080080
000000
000000
ENDCHAR

STARTCHAR A5CF
ENCODING 42447
SWIDTH 960 0
DWIDTH 24 0
BBX 24 24 0 -6
BITMAP
000000
000000
000000
003F00
00E0C0
018060
030020
030030
060030
060030
060030
0C0030
0C0030
0C0060
0C0060
0C0060
0C00C0
0400C0
060180
030700
00FC00
000000
000000
000000
ENDCHAR

STARTCHAR A5D0
ENCODING 42448
SWIDTH 960 0
DWIDTH 24 0
BBX 24 24 0 -6
BITMAP
000000
000000
000000
000000
0FFFF8
030060
030060
030060
030060
0600C0
0600C0
0600C0
0600C0
0600C0
0600C0
0C0180
0C0180
0C0180
0C0180
0C0180
3F07E0
000000
000000
000000
ENDCHAR

STARTCHAR A5D1
ENCODING 42449
SWIDTH 960 0
DWIDTH 24 0
BBX 24 24 0 -6
BITMAP
000000
000000
000000
000000
07FFC0
018060
018030
018030
018030
018030
030030
030060
0300E0
03FF80
030000
030000
060000
060000
060000
060000
1F8000
000000
000000
000000
ENDCHAR

STARTCHAR A5D2
ENCODING 42450
SWIDTH 960 0
DWIDTH 24 0
BBX 24 24 0 -6
BITMAP
000000
000000
000000
000000
03FFE0
030060
018020
00C020
006000
003000
001800
001000
002000
004000
008000
010000
020100
040100
080300
1FFF00
1FFF00
000000
000000
000000
ENDCHAR

STARTCHAR A5D3
ENCODING 42451
SWIDTH 960 0
DWIDTH 24 0
BBX 24 24 0 -6
BITMAP
000000
000000
000000
000000
0FFFF0
0C1830
081810
081810
081810
003000
003000
003000
003000
003000
003000
006000
006000
006000
006000
006000
01F800
000000
000000
000000
ENDCHAR

STARTCHAR A5D4
ENCODING 42452
SWIDTH 960 0
DWIDTH 24 0
BBX 24 24 0 -6
BITMAP
000000
000000
000000
000000
030780
0188C0
0090C0
00E000
00E000
00C000
00C000
018000
018000
018000
018000
018000
030000
030000
030000
030000
0FC000
000000
000000
000000
ENDCHAR

STARTCHAR A5D5
ENCODING 42453
SWIDTH 960 0
DWIDTH 24 0
BBX 24 24 0 -6
BITMAP
000000
000000
000000
003F00
000C00
003F00
00ECC0
018C60
030C20
060C30
061830
0C1830
0C1830
0C1830
0C1860
0C1860
0430C0
063180
033700
00FC00
003000
00FC00
000000
000000
ENDCHAR

STARTCHAR A5D6
ENCODING 42454
SWIDTH 960 0
DWIDTH 24 0
BBX 24 24 0 -6
BITMAP
000000
000000
000000
000000
03F1F0
00C040
006080
006100
003200
003200
001C00
001800
001C00
002C00
004600
008600
008300
010300
020180
040180
1F07E0
000000
000000
000000
ENDCHAR

STARTCHAR A5D7
ENCODING 42455
SWIDTH 960 0
DWIDTH 24 0
BBX 24 24 0 -6
BITMAP
000000
000000
000000
000000
1C7E30
261868
061860
061860
061860
0C3060
0C3060
0C30C0
0C30C0
0C3180
063700
03FC00
006000
006000
006000
006000
01F800
000000
000000
000000
ENDCHAR

STARTCHAR A5D8
ENCODING 42456
SWIDTH 960 0
DWIDTH 24 0
BBX 24 24 0 -6
BITMAP
000000
000000
000000
000000
003F80
00C0E0
018060
010030
030030
030030
030030
030070
010060
0180E0
00C1C0
004300
084210
08C210
088620
1F87E0
1F87E0
000000
000000
000000
ENDCHAR

STARTCHAR A5E1
ENCODING 42465
SWIDTH 960 0
DWIDTH 24 0
BBX 24 24 0 -6
BITMAP
000000
000000
000000
000000
000000
000000
000000
000000
000000
003E60
00E160
0180C0
0300C0
0300C0
0600C0
060180
060180
060180
060380
030DE0
01F0C0
000000
000000
000000
ENDCHAR

STARTCHAR A5E2
ENCODING 42466
SWIDTH 960 0
DWIDTH 24 0
BBX 24 24 0 -6
BITMAP
000000
000000
000000
000000
000780
0018C0
003060
002060
006060
0040C0
004DC0
00CF00
008180
018080
0180C0
0100C0
030180
030180
06C700
063C00
060000
0C0000
0C0000
000000
ENDCHAR

STARTCHAR A5E3
ENCODING 42467
SWIDTH 960 0
DWIDTH 24 0
BBX 24 24 0 -6
BITMAP
000000
000000
000000
000000
000000
000000
000000
000000
000000
00E1C0
01F7C0
013400
001800
001000
003000
003000
003000
006000
006000
006000
00E000
00C000
00C000
000000
ENDCHAR

STARTCHAR A5E4
ENCODING 42468
SWIDTH 960 0
DWIDTH 24 0
BBX 24 24 0 -6
BITMAP
000000
000000
000000
00F000
01FC00
018600
018100
00C080
006000
001800
003E00
00E300
018100
018180
030180
030180
030180
030300
030300
018E00
00F800
000000
000000
000000
ENDCHAR

STARTCHAR A5E5
ENCODING 42469
SWIDTH 960 0
DWIDTH 24 0
BBX 24 24 0 -6
BITMAP
000000
000000
000000
000000
000000
000000
000000
000000
000000
001F80
0030C0
006040
006000
003E00
00C600
018000
018000
018000
01C100
00FE00
007800
000000
000000
000000
ENDCHAR

STARTCHAR A5E6
ENCODING 42470
SWIDTH 960 0
DWIDTH 24 0
BBX 24 24 0 -6
BITMAP
000000
000000
000000
0038C0
0073C0
006780
003E00
001800
002000
004000
008000
010000
010000
020000
020000
020000
030000
01F800
00FC00
000600
000200
003200
003C00
000000
ENDCHAR

STARTCHAR A5E7
ENCODING 42471
SWIDTH 960 0
DWIDTH 24 0
BBX 24 24 0 -6
BITMAP
000000
000000
000000
000000
000000
000000
000000
000000
000000
01C3C0
03EC60
023020
003020
006060
004040
00C0C0
018080
018180
030100
030300
000300
000600
000600
000000
ENDCHAR

STARTCHAR A5E8
ENCODING 42472
SWIDTH 960 0
DWIDTH 24 0
BBX 24 24 0 -6
BITMAP
000000
000000
000000
000F00
003180
0060C0
00C0C0
0080C0
0180C0
0100C0
0300C0
03FF80
030180
060180
060300
060300
060200
060600
060C00
031800
01E000
000000
000000
000000
ENDCHAR

STARTCHAR A5E9
ENCODING 42473
SWIDTH 960 0
DWIDTH 24 0
BBX 24 24 0 -6
BITMAP
000000
000000
000000
000000
000000
000000
000000
000000
000000
000C00
001C00
001800
003800
003000
002000
006000
004000
004000
004400
007C00
003800
000000
000000
000000
ENDCHAR

STARTCHAR A5EA
ENCODING 42474
SWIDTH 960 0
DWIDTH 24 0
BBX 24 24 0 -6
BITMAP
000000
000000
000000
000000
000000
000000
000000
000000
000000
00C180
00C7C0
00CC00
00D000
01A000
01F000
019800
019800
031840
031840
031C80
030F00
000000
000000
000000
ENDCHAR

STARTCHAR A5EB
ENCODING 42475
SWIDTH 960 0
DWIDTH 24 0
BBX 24 24 0 -6
BITMAP
000000
000000
000000
001C00
001E00
000100
000100
000100
000200
000200
000600
000400
000C00
000C00
001400
003400
006400
00E600
01C300
01C380
018180
000000
000000
000000
ENDCHAR

STARTCHAR A5EC
ENCODING 42476
SWIDTH 960 0
DWIDTH 24 0
BBX 24 24 0 -6
BITMAP
000000
000000
000000
000000
000000
000000
000000
000000
000000
018180
018180
018180
038380
030300
030300
030300
020200
020640
050FC0
04F380
040000
0C0000
0C0000
000000
ENDCHAR

STARTCHAR A5ED
ENCODING 42477
SWIDTH 960 0
DWIDTH 24 0
BBX 24 24 0 -6
BITMAP
000000
000000
000000
000000
000000
000000
000000
000000
000000
018040
01C040
00C040
00C0C0
00C080
008180
008300
008E00
013C00
01F800
01E000
038000
000000
000000
000000
ENDCHAR

STARTCHAR A5EE
ENCODING 42478
SWIDTH 960 0
DWIDTH 24 0
BBX 24 24 0 -6
BITMAP
000000
000000
000000
000E00
001000
0011C0
000FC0
003000
004000
004000
003F00
004700
008000
010000
010000
030000
038000
03F800
01FC00
000200
000200
003200
003C00
000000
ENDCHAR

STARTCHAR A5EF
ENCODING 42479
SWIDTH 960 0
DWIDTH 24 0
BBX 24 24 0 -6
BITMAP
000000
000000
000000
000000
000000
000000
000000
000000
000000
001F00
006180
00C0C0
0180C0
0180C0
0300C0
0300C0
030180
030180
030300
018600
00F800
000000
000000
000000
ENDCHAR

STARTCHAR A5F0
ENCODING 42480
SWIDTH 960 0
DWIDTH 24 0
BBX 24 24 0 -6
BITMAP
000000
000000
000000
000000
000000
000000
000000
000000
000000
01FFE0
07FFC0
084200
004200
00C400
008400
018400
018C00
038C00
070C80
070F80
070700
000000
000000
000000
ENDCHAR

STARTCHAR A5F1
ENCODING 42481
SWIDTH 960 0
DWIDTH 24 0
BBX 24 24 0 -6
BITMAP
000000
000000
000000
000000
000000
000000
000000
000000
000000
000F00
003180
0060C0
00C0C0
00C0C0
0180C0
018180
038180
038300
02C600
027800
060000
060000
060000
000000
ENDCHAR

STARTCHAR A5F2
ENCODING 42482
SWIDTH 960 0
DWIDTH 24 0
BBX 24 24 0 -6
BITMAP
000000
000000
000000
000000
000000
000000
000000
000000
000000
003FC0
00FFC0
01C600
030300
030300
060300
060300
060300
060600
060600
031C00
01F000
000000
000000
000000
ENDCHAR

STARTCHAR A5F3
ENCODING 42483
SWIDTH 960 0
DWIDTH 24 0
BBX 24 24 0 -6
BITMAP
000000
000000
000000
000000
000000
000000
000000
000000
000000
007FC0
01FFC0
020800
001000
001000
002000
002000
006000
006000
006200
007E00
003C00
000000
000000
000000
ENDCHAR

STARTCHAR A5F4
ENCODING 42484
SWIDTH 960 0
DWIDTH 24 0
BBX 24 24 0 -6
BITMAP
000000
000000
000000
000000
000000
000000
000000
000000
000000
018100
01C080
01C080
01C0C0
0180C0
0180C0
0300C0
030180
030180
030300
018600
00F800
000000
000000
000000
ENDCHAR

STARTCHAR A5F5
ENCODING 42485
SWIDTH 960 0
DWIDTH 24 0
BBX 24 24 0 -6
BITMAP
000000
000000
000000
000000
000000
000000
000000
000000
000000
006380
0187C0
030460
020820
060820
060820
061040
061040
071080
03A300
01FC00
002000
006000
006000
000000
ENDCHAR

STARTCHAR A5F6
ENCODING 42486
SWIDTH 960 0
DWIDTH 24 0
BBX 24 24 0 -6
BITMAP
000000
000000
000000
000000
000000
000000
000000
000000
000000
01E0E0
03F1C0
021380
001700
001E00
001C00
003800
007000
00F000
01D000
039000
071880
0E1F80
1C0F00
000000
ENDCHAR

STARTCHAR A5F7
ENCODING 42487
SWIDTH 960 0
DWIDTH 24 0
BBX 24 24 0 -6
BITMAP
000000
000000
000000
000C00
000C00
000C00
000C00
000800
000800
0008C0
0110E0
021060
061060
041060
0C3060
0C20C0
0C20C0
0E2180
064700
01FC00
004000
00C000
00C000
000000
ENDCHAR

STARTCHAR A5F8
ENCODING 42488
SWIDTH 960 0
DWIDTH 24 0
BBX 24 24 0 -6
BITMAP
000000
000000
000000
000000
000000
000000
000000
000000
000000
004080
008060
010020
030C30
020C30
061C30
061C30
060830
060860
060860
0318C0
01E700
000000
000000
000000
ENDCHAR

STARTCHAR A6A1
ENCODING 42657
SWIDTH 960 0
DWIDTH 24 0
BBX 24 24 0 -6
BITMAP
000000
000000
000000
000000
000000
000000
000000
000000
000000
000000
000000
000000
FFFFFF
000000
000000
000000
000000
000000
000000
000000
000000
000000
000000
000000
ENDCHAR

STARTCHAR A6A2
ENCODING 42658
SWIDTH 960 0
DWIDTH 24 0
BBX 24 24 0 -6
BITMAP
000800
000800
000800
000800
000800
000800
000800
000800
000800
000800
000800
000800
000800
000800
000800
000800
000800
000800
000800
000800
000800
000800
000800
000800
ENDCHAR

STARTCHAR A6A3
ENCODING 42659
SWIDTH 960 0
DWIDTH 24 0
BBX 24 24 0 -6
BITMAP
000000
000000
000000
000000
000000
000000
000000
000000
000000
000000
000000
000000
000FFF
000800
000800
000800
000800
000800
000800
000800
000800
000800
000800
000800
ENDCHAR

STARTCHAR A6A4
ENCODING 42660
SWIDTH 960 0
DWIDTH 24 0
BBX 24 24 0 -6
BITMAP
000000
000000
000000
000000
000000
000000
000000
000000
000000
000000
000000
000000
FFF800
000800
000800
000800
000800
000800
000800
000800
000800
000800
000800
000800
ENDCHAR

STARTCHAR A6A5
ENCODING 42661
SWIDTH 960 0
DWIDTH 24 0
BBX 24 24 0 -6
BITMAP
000800
000800
000800
000800
000800
000800
000800
000800
000800
000800
000800
000800
FFF800
000000
000000
000000
000000
000000
000000
000000
000000
000000
000000
000000
ENDCHAR

STARTCHAR A6A6
ENCODING 42662
SWIDTH 960 0
DWIDTH 24 0
BBX 24 24 0 -6
BITMAP
000800
000800
000800
000800
000800
000800
000800
000800
000800
000800
000800
000800
000FFF
000000
000000
000000
000000
000000
000000
000000
000000
000000
000000
000000
ENDCHAR

STARTCHAR A6A7
ENCODING 42663
SWIDTH 960 0
DWIDTH 24 0
BBX 24 24 0 -6
BITMAP
000800
000800
000800
000800
000800
000800
000800
000800
000800
000800
000800
000800
000FFF
000800
000800
000800
000800
000800
000800
000800
000800
000800
000800
000800
ENDCHAR

STARTCHAR A6A8
ENCODING 42664
SWIDTH 960 0
DWIDTH 24 0
BBX 24 24 0 -6
BITMAP
000000
000000
000000
000000
000000
000000
000000
000000
000000
000000
000000
000000
FFFFFF
000800
000800
000800
000800
000800
000800
000800
000800
000800
000800
000800
ENDCHAR

STARTCHAR A6A9
ENCODING 42665
SWIDTH 960 0
DWIDTH 24 0
BBX 24 24 0 -6
BITMAP
000800
000800
000800
000800
000800
000800
000800
000800
000800
000800
000800
000800
FFF800
000800
000800
000800
000800
000800
000800
000800
000800
000800
000800
000800
ENDCHAR

STARTCHAR A6AA
ENCODING 42666
SWIDTH 960 0
DWIDTH 24 0
BBX 24 24 0 -6
BITMAP
000800
000800
000800
000800
000800
000800
000800
000800
000800
000800
000800
000800
FFFFFF
000000
000000
000000
000000
000000
000000
000000
000000
000000
000000
000000
ENDCHAR

STARTCHAR A6AB
ENCODING 42667
SWIDTH 960 0
DWIDTH 24 0
BBX 24 24 0 -6
BITMAP
000800
000800
000800
000800
000800
000800
000800
000800
000800
000800
000800
000800
FFFFFF
000800
000800
000800
000800
000800
000800
000800
000800
000800
000800
000800
ENDCHAR

STARTCHAR A6AC
ENCODING 42668
SWIDTH 960 0
DWIDTH 24 0
BBX 24 24 0 -6
BITMAP
000000
000000
000000
000000
000000
000000
000000
000000
000000
000000
000000
FFFFFF
FFFFFF
FFFFFF
000000
000000
000000
000000
000000
000000
000000
000000
000000
000000
ENDCHAR

STARTCHAR A6AD
ENCODING 42669
SWIDTH 960 0
DWIDTH 24 0
BBX 24 24 0 -6
BITMAP
001C00
001C00
001C00
001C00
001C00
001C00
001C00
001C00
001C00
001C00
001C00
001C00
001C00
001C00
001C00
001C00
001C00
001C00
001C00
001C00
001C00
001C00
001C00
001C00
ENDCHAR

STARTCHAR A6AE
ENCODING 42670
SWIDTH 960 0
DWIDTH 24 0
BBX 24 24 0 -6
BITMAP
000000
000000
000000
000000
000000
000000
000000
000000
000000
000000
000000
001FFF
001FFF
001FFF
001C00
001C00
001C00
001C00
001C00
001C00
001C00
001C00
001C00
001C00
ENDCHAR

STARTCHAR A6AF
ENCODING 42671
SWIDTH 960 0
DWIDTH 24 0
BBX 24 24 0 -6
BITMAP
000000
000000
000000
000000
000000
000000
000000
000000
000000
000000
000000
FFFC00
FFFC00
FFFC00
001C00
001C00
001C00
001C00
001C00
001C00
001C00
001C00
001C00
001C00
ENDCHAR

STARTCHAR A6B0
ENCODING 42672
SWIDTH 960 0
DWIDTH 24 0
BBX 24 24 0 -6
BITMAP
001C00
001C00
001C00
001C00
001C00
001C00
001C00
001C00
001C00
001C00
001C00
FFFC00
FFFC00
FFFC00
000000
000000
000000
000000
000000
000000
000000
000000
000000
000000
ENDCHAR

STARTCHAR A6B1
ENCODING 42673
SWIDTH 960 0
DWIDTH 24 0
BBX 24 24 0 -6
BITMAP
001C00
001C00
001C00
001C00
001C00
001C00
001C00
001C00
001C00
001C00
001C00
001FFF
001FFF
001FFF
000000
000000
000000
000000
000000
000000
000000
000000
000000
000000
ENDCHAR

STARTCHAR A6B2
ENCODING 42674
SWIDTH 960 0
DWIDTH 24 0
BBX 24 24 0 -6
BITMAP
001C00
001C00
001C00
001C00
001C00
001C00
001C00
001C00
001C00
001C00
001C00
001FFF
001FFF
001FFF
001C00
001C00
001C00
001C00
001C00
001C00
001C00
001C00
001C00
001C00
ENDCHAR

STARTCHAR A6B3
ENCODING 42675
SWIDTH 960 0
DWIDTH 24 0
BBX 24 24 0 -6
BITMAP
000000
000000
000000
000000
000000
000000
000000
000000
000000
000000
000000
FFFFFF
FFFFFF
FFFFFF
001C00
001C00
001C00
001C00
001C00
001C00
001C00
001C00
001C00
001C00
ENDCHAR

STARTCHAR A6B4
ENCODING 42676
SWIDTH 960 0
DWIDTH 24 0
BBX 24 24 0 -6
BITMAP
001C00
001C00
001C00
001C00
001C00
001C00
001C00
001C00
001C00
001C00
001C00
FFFC00
FFFC00
FFFC00
001C00
001C00
001C00
001C00
001C00
001C00
001C00
001C00
001C00
001C00
ENDCHAR

STARTCHAR A6B5
ENCODING 42677
SWIDTH 960 0
DWIDTH 24 0
BBX 24 24 0 -6
BITMAP
001C00
001C00
001C00
001C00
001C00
001C00
001C00
001C00
001C00
001C00
001C00
FFFFFF
FFFFFF
FFFFFF
000000
000000
000000
000000
000000
000000
000000
000000
000000
000000
ENDCHAR

STARTCHAR A6B6
ENCODING 42678
SWIDTH 960 0
DWIDTH 24 0
BBX 24 24 0 -6
BITMAP
001C00
001C00
001C00
001C00
001C00
001C00
001C00
001C00
001C00
001C00
001C00
FFFFFF
FFFFFF
FFFFFF
001C00
001C00
001C00
001C00
001C00
001C00
001C00
001C00
001C00
001C00
ENDCHAR

STARTCHAR A6B7
ENCODING 42679
SWIDTH 960 0
DWIDTH 24 0
BBX 24 24 0 -6
BITMAP
001C00
001C00
001C00
001C00
001C00
001C00
001C00
001C00
001C00
001C00
001C00
001C00
001FFF
001C00
001C00
001C00
001C00
001C00
001C00
001C00
001C00
001C00
001C00
001C00
ENDCHAR

STARTCHAR A6B8
ENCODING 42680
SWIDTH 960 0
DWIDTH 24 0
BBX 24 24 0 -6
BITMAP
000000
000000
000000
000000
000000
000000
000000
000000
000000
000000
000000
FFFFFF
FFFFFF
FFFFFF
000800
000800
000800
000800
000800
000800
000800
000800
000800
000800
ENDCHAR

STARTCHAR A6B9
ENCODING 42681
SWIDTH 960 0
DWIDTH 24 0
BBX 24 24 0 -6
BITMAP
001C00
001C00
001C00
001C00
001C00
001C00
001C00
001C00
001C00
001C00
001C00
001C00
FFFC00
001C00
001C00
001C00
001C00
001C00
001C00
001C00
001C00
001C00
001C00
001C00
ENDCHAR

STARTCHAR A6BA
ENCODING 42682
SWIDTH 960 0
DWIDTH 24 0
BBX 24 24 0 -6
BITMAP
000800
000800
000800
000800
000800
000800
000800
000800
000800
000800
000800
FFFFFF
FFFFFF
FFFFFF
000000
000000
000000
000000
000000
000000
000000
000000
000000
000000
ENDCHAR

STARTCHAR A6BB
ENCODING 42683
SWIDTH 960 0
DWIDTH 24 0
BBX 24 24 0 -6
BITMAP
000800
000800
000800
000800
000800
000800
000800
000800
000800
000800
000800
FFFFFF
FFFFFF
FFFFFF
000800
000800
000800
000800
000800
000800
000800
000800
000800
000800
ENDCHAR

STARTCHAR A6BC
ENCODING 42684
SWIDTH 960 0
DWIDTH 24 0
BBX 24 24 0 -6
BITMAP
000800
000800
000800
000800
000800
000800
000800
000800
000800
000800
000800
000FFF
000FFF
000FFF
000800
000800
000800
000800
000800
000800
000800
000800
000800
000800
ENDCHAR

STARTCHAR A6BD
ENCODING 42685
SWIDTH 960 0
DWIDTH 24 0
BBX 24 24 0 -6
BITMAP
000000
000000
000000
000000
000000
000000
000000
000000
000000
000000
000000
000000
FFFFFF
001C00
001C00
001C00
001C00
001C00
001C00
001C00
001C00
001C00
001C00
001C00
ENDCHAR

STARTCHAR A6BE
ENCODING 42686
SWIDTH 960 0
DWIDTH 24 0
BBX 24 24 0 -6
BITMAP
000800
000800
000800
000800
000800
000800
000800
000800
000800
000800
000800
FFF800
FFF800
FFF800
000800
000800
000800
000800
000800
000800
000800
000800
000800
000800
ENDCHAR

STARTCHAR A6BF
ENCODING 42687
SWIDTH 960 0
DWIDTH 24 0
BBX 24 24 0 -6
BITMAP
001C00
001C00
001C00
001C00
001C00
001C00
001C00
001C00
001C00
001C00
001C00
001C00
FFFFFF
000000
000000
000000
000000
000000
000000
000000
000000
000000
000000
000000
ENDCHAR

STARTCHAR A6C0
ENCODING 42688
SWIDTH 960 0
DWIDTH 24 0
BBX 24 24 0 -6
BITMAP
001C00
001C00
001C00
001C00
001C00
001C00
001C00
001C00
001C00
001C00
001C00
001C00
FFFFFF
001C00
001C00
001C00
001C00
001C00
001C00
001C00
001C00
001C00
001C00
001C00
ENDCHAR

STARTCHAR A6C1
ENCODING 42689
SWIDTH 960 0
DWIDTH 24 0
BBX 24 24 0 -6
BITMAP
000000
000000
000000
000000
000000
000000
000000
000000
000000
000000
000000
000000
FFFC00
001C00
001C00
001C00
001C00
001C00
001C00
001C00
001C00
001C00
001C00
001C00
ENDCHAR

STARTCHAR A6C2
ENCODING 42690
SWIDTH 960 0
DWIDTH 24 0
BBX 24 24 0 -6
BITMAP
000000
000000
000000
000000
000000
000000
000000
000000
000000
000000
000000
FFF800
FFF800
FFF800
000800
000800
000800
000800
000800
000800
000800
000800
000800
000800
ENDCHAR

STARTCHAR A6C3
ENCODING 42691
SWIDTH 960 0
DWIDTH 24 0
BBX 24 24 0 -6
BITMAP
001C00
001C00
001C00
001C00
001C00
001C00
001C00
001C00
001C00
001C00
001C00
001C00
FFFC00
000000
000000
000000
000000
000000
000000
000000
000000
000000
000000
000000
ENDCHAR

STARTCHAR A6C4
ENCODING 42692
SWIDTH 960 0
DWIDTH 24 0
BBX 24 24 0 -6
BITMAP
000800
000800
000800
000800
000800
000800
000800
000800
000800
000800
000800
FFF800
FFF800
FFF800
000000
000000
000000
000000
000000
000000
000000
000000
000000
000000
ENDCHAR

STARTCHAR A6C5
ENCODING 42693
SWIDTH 960 0
DWIDTH 24 0
BBX 24 24 0 -6
BITMAP
001C00
001C00
001C00
001C00
001C00
001C00
001C00
001C00
001C00
001C00
001C00
001C00
001FFF
000000
000000
000000
000000
000000
000000
000000
000000
000000
000000
000000
ENDCHAR

STARTCHAR A6C6
ENCODING 42694
SWIDTH 960 0
DWIDTH 24 0
BBX 24 24 0 -6
BITMAP
000800
000800
000800
000800
000800
000800
000800
000800
000800
000800
000800
000FFF
000FFF
000FFF
000000
000000
000000
000000
000000
000000
000000
000000
000000
000000
ENDCHAR

STARTCHAR A6C7
ENCODING 42695
SWIDTH 960 0
DWIDTH 24 0
BBX 24 24 0 -6
BITMAP
000000
000000
000000
000000
000000
000000
000000
000000
000000
000000
000000
000000
001FFF
001C00
001C00
001C00
001C00
001C00
001C00
001C00
001C00
001C00
001C00
001C00
ENDCHAR

STARTCHAR A6C8
ENCODING 42696
SWIDTH 960 0
DWIDTH 24 0
BBX 24 24 0 -6
BITMAP
000000
000000
000000
000000
000000
000000
000000
000000
000000
000000
000000
000FFF
000FFF
000FFF
000800
000800
000800
000800
000800
000800
000800
000800
000800
000800
ENDCHAR

STARTCHAR A6C9
ENCODING 42697
SWIDTH 960 0
DWIDTH 24 0
BBX 24 24 0 -6
BITMAP
001C00
001C00
001C00
001C00
001C00
001C00
001C00
001C00
001C00
001C00
001C00
001C00
001FFF
000800
000800
000800
000800
000800
000800
000800
000800
000800
000800
000800
ENDCHAR

STARTCHAR A6CA
ENCODING 42698
SWIDTH 960 0
DWIDTH 24 0
BBX 24 24 0 -6
BITMAP
000800
000800
000800
000800
000800
000800
000800
000800
000800
000800
000800
000800
001FFF
001C00
001C00
001C00
001C00
001C00
001C00
001C00
001C00
001C00
001C00
001C00
ENDCHAR

STARTCHAR A6CB
ENCODING 42699
SWIDTH 960 0
DWIDTH 24 0
BBX 24 24 0 -6
BITMAP
001C00
001C00
001C00
001C00
001C00
001C00
001C00
001C00
001C00
001C00
001C00
001FFF
001FFF
001FFF
000800
000800
000800
000800
000800
000800
000800
000800
000800
000800
ENDCHAR

STARTCHAR A6CC
ENCODING 42700
SWIDTH 960 0
DWIDTH 24 0
BBX 24 24 0 -6
BITMAP
000800
000800
000800
000800
000800
000800
000800
000800
000800
000800
000800
001FFF
001FFF
001FFF
001C00
001C00
001C00
001C00
001C00
001C00
001C00
001C00
001C00
001C00
ENDCHAR

STARTCHAR A6CD
ENCODING 42701
SWIDTH 960 0
DWIDTH 24 0
BBX 24 24 0 -6
BITMAP
001C00
001C00
001C00
001C00
001C00
001C00
001C00
001C00
001C00
001C00
001C00
001C00
FFFC00
000800
000800
000800
000800
000800
000800
000800
000800
000800
000800
000800
ENDCHAR

STARTCHAR A6CE
ENCODING 42702
SWIDTH 960 0
DWIDTH 24 0
BBX 24 24 0 -6
BITMAP
000800
000800
000800
000800
000800
000800
000800
000800
000800
000800
000800
000800
FFFC00
001C00
001C00
001C00
001C00
001C00
001C00
001C00
001C00
001C00
001C00
001C00
ENDCHAR

STARTCHAR A6CF
ENCODING 42703
SWIDTH 960 0
DWIDTH 24 0
BBX 24 24 0 -6
BITMAP
001C00
001C00
001C00
001C00
001C00
001C00
001C00
001C00
001C00
001C00
001C00
FFFC00
FFFC00
FFFC00
000800
000800
000800
000800
000800
000800
000800
000800
000800
000800
ENDCHAR

STARTCHAR A6D0
ENCODING 42704
SWIDTH 960 0
DWIDTH 24 0
BBX 24 24 0 -6
BITMAP
000800
000800
000800
000800
000800
000800
000800
000800
000800
000800
000800
FFFC00
FFFC00
FFFC00
001C00
001C00
001C00
001C00
001C00
001C00
001C00
001C00
001C00
001C00
ENDCHAR

STARTCHAR A6D1
ENCODING 42705
SWIDTH 960 0
DWIDTH 24 0
BBX 24 24 0 -6
BITMAP
000000
000000
000000
000000
000000
000000
000000
000000
000000
000000
000000
FFF800
FFFFFF
FFF800
000800
000800
000800
000800
000800
000800
000800
000800
000800
000800
ENDCHAR

STARTCHAR A6D2
ENCODING 42706
SWIDTH 960 0
DWIDTH 24 0
BBX 24 24 0 -6
BITMAP
000000
000000
000000
000000
000000
000000
000000
000000
000000
000000
000000
000FFF
FFFFFF
000FFF
000800
000800
000800
000800
000800
000800
000800
000800
000800
000800
ENDCHAR

STARTCHAR A6D3
ENCODING 42707
SWIDTH 960 0
DWIDTH 24 0
BBX 24 24 0 -6
BITMAP
000000
000000
000000
000000
000000
000000
000000
000000
000000
000000
000000
FFFC00
FFFFFF
FFFC00
001C00
001C00
001C00
001C00
001C00
001C00
001C00
001C00
001C00
001C00
ENDCHAR

STARTCHAR A6D4
ENCODING 42708
SWIDTH 960 0
DWIDTH 24 0
BBX 24 24 0 -6
BITMAP
000000
000000
000000
000000
000000
000000
000000
000000
000000
000000
000000
001FFF
FFFFFF
001FFF
001C00
001C00
001C00
001C00
001C00
001C00
001C00
001C00
001C00
001C00
ENDCHAR

STARTCHAR A6D5
ENCODING 42709
SWIDTH 960 0
DWIDTH 24 0
BBX 24 24 0 -6
BITMAP
000800
000800
000800
000800
000800
000800
000800
000800
000800
000800
000800
FFF800
FFFFFF
FFF800
000000
000000
000000
000000
000000
000000
000000
000000
000000
000000
ENDCHAR

STARTCHAR A6D6
ENCODING 42710
SWIDTH 960 0
DWIDTH 24 0
BBX 24 24 0 -6
BITMAP
000800
000800
000800
000800
000800
000800
000800
000800
000800
000800
000800
000FFF
FFFFFF
000FFF
000000
000000
000000
000000
000000
000000
000000
000000
000000
000000
ENDCHAR

STARTCHAR A6D7
ENCODING 42711
SWIDTH 960 0
DWIDTH 24 0
BBX 24 24 0 -6
BITMAP
001C00
001C00
001C00
001C00
001C00
001C00
001C00
001C00
001C00
001C00
001C00
FFFC00
FFFFFF
FFFC00
000000
000000
000000
000000
000000
000000
000000
000000
000000
000000
ENDCHAR

STARTCHAR A6D8
ENCODING 42712
SWIDTH 960 0
DWIDTH 24 0
BBX 24 24 0 -6
BITMAP
001C00
001C00
001C00
001C00
001C00
001C00
001C00
001C00
001C00
001C00
001C00
001FFF
FFFFFF
001FFF
000000
000000
000000
000000
000000
000000
000000
000000
000000
000000
ENDCHAR

STARTCHAR A6D9
ENCODING 42713
SWIDTH 960 0
DWIDTH 24 0
BBX 24 24 0 -6
BITMAP
000800
000800
000800
000800
000800
000800
000800
000800
000800
000800
000800
FFF800
FFFFFF
FFF800
000800
000800
000800
000800
000800
000800
000800
000800
000800
000800
ENDCHAR

STARTCHAR A6DA
ENCODING 42714
SWIDTH 960 0
DWIDTH 24 0
BBX 24 24 0 -6
BITMAP
000800
000800
000800
000800
000800
000800
000800
000800
000800
000800
000800
000FFF
FFFFFF
000FFF
000800
000800
000800
000800
000800
000800
000800
000800
000800
000800
ENDCHAR

STARTCHAR A6DB
ENCODING 42715
SWIDTH 960 0
DWIDTH 24 0
BBX 24 24 0 -6
BITMAP
001C00
001C00
001C00
001C00
001C00
001C00
001C00
001C00
001C00
001C00
001C00
001C00
FFFFFF
000800
000800
000800
000800
000800
000800
000800
000800
000800
000800
000800
ENDCHAR

STARTCHAR A6DC
ENCODING 42716
SWIDTH 960 0
DWIDTH 24 0
BBX 24 24 0 -6
BITMAP
000800
000800
000800
000800
000800
000800
000800
000800
000800
000800
000800
000800
FFFFFF
001C00
001C00
001C00
001C00
001C00
001C00
001C00
001C00
001C00
001C00
001C00
ENDCHAR

STARTCHAR A6DD
ENCODING 42717
SWIDTH 960 0
DWIDTH 24 0
BBX 24 24 0 -6
BITMAP
001C00
001C00
001C00
001C00
001C00
001C00
001C00
001C00
001C00
001C00
001C00
FFFC00
FFFFFF
FFF800
000800
000800
000800
000800
000800
000800
000800
000800
000800
000800
ENDCHAR

STARTCHAR A6DE
ENCODING 42718
SWIDTH 960 0
DWIDTH 24 0
BBX 24 24 0 -6
BITMAP
001C00
001C00
001C00
001C00
001C00
001C00
001C00
001C00
001C00
001C00
001C00
001FFF
FFFFFF
000FFF
000800
000800
000800
000800
000800
000800
000800
000800
000800
000800
ENDCHAR

STARTCHAR A6DF
ENCODING 42719
SWIDTH 960 0
DWIDTH 24 0
BBX 24 24 0 -6
BITMAP
000800
000800
000800
000800
000800
000800
000800
000800
000800
000800
000800
FFF800
FFFFFF
FFFC00
001C00
001C00
001C00
001C00
001C00
001C00
001C00
001C00
001C00
001C00
ENDCHAR

STARTCHAR A6E0
ENCODING 42720
SWIDTH 960 0
DWIDTH 24 0
BBX 24 24 0 -6
BITMAP
000800
000800
000800
000800
000800
000800
000800
000800
000800
000800
000800
000FFF
FFFFFF
001FFF
001C00
001C00
001C00
001C00
001C00
001C00
001C00
001C00
001C00
001C00
ENDCHAR

STARTCHAR A6E1
ENCODING 42721
SWIDTH 960 0
DWIDTH 24 0
BBX 24 24 0 -6
BITMAP
001C00
001C00
001C00
001C00
001C00
001C00
001C00
001C00
001C00
001C00
001C00
FFFFFF
FFFFFF
FFFFFF
000800
000800
000800
000800
000800
000800
000800
000800
000800
000800
ENDCHAR

STARTCHAR A6E2
ENCODING 42722
SWIDTH 960 0
DWIDTH 24 0
BBX 24 24 0 -6
BITMAP
000800
000800
000800
000800
000800
000800
000800
000800
000800
000800
000800
FFFFFF
FFFFFF
FFFFFF
001C00
001C00
001C00
001C00
001C00
001C00
001C00
001C00
001C00
001C00
ENDCHAR

STARTCHAR A6E3
ENCODING 42723
SWIDTH 960 0
DWIDTH 24 0
BBX 24 24 0 -6
BITMAP
001C00
001C00
001C00
001C00
001C00
001C00
001C00
001C00
001C00
001C00
001C00
FFFC00
FFFFFF
FFFC00
001C00
001C00
001C00
001C00
001C00
001C00
001C00
001C00
001C00
001C00
ENDCHAR

STARTCHAR A6E4
ENCODING 42724
SWIDTH 960 0
DWIDTH 24 0
BBX 24 24 0 -6
BITMAP
001C00
001C00
001C00
001C00
001C00
001C00
001C00
001C00
001C00
001C00
001C00
001FFF
FFFFFF
001FFF
001C00
001C00
001C00
001C00
001C00
001C00
001C00
001C00
001C00
001C00
ENDCHAR

STARTCHAR A7A1
ENCODING 42913
SWIDTH 960 0
DWIDTH 24 0
BBX 24 24 0 -6
BITMAP
000000
000000
000060
000090
000090
000110
000110
000110
042220
042220
042220
042240
084240
084280
084100
084310
08C520
1730C0
100000
100000
100000
100000
000000
000000
ENDCHAR

STARTCHAR A7A2
ENCODING 42914
SWIDTH 960 0
DWIDTH 24 0
BBX 24 24 0 -6
BITMAP
000000
000000
000030
000048
000048
000088
000088
000088
1EE110
111110
111110
111120
111120
111140
111080
111188
111290
111460
000000
000000
000000
000000
000000
000000
ENDCHAR

STARTCHAR A7A3
ENCODING 42915
SWIDTH 960 0
DWIDTH 24 0
BBX 24 24 0 -6
BITMAP
000000
000000
004060
004090
004090
004110
004110
004110
074220
08C220
104220
104240
104240
104280
104100
104310
08CD20
0740C0
000000
000000
000000
000000
000000
000000
ENDCHAR

STARTCHAR A7A4
ENCODING 42916
SWIDTH 960 0
DWIDTH 24 0
BBX 24 24 0 -6
BITMAP
000000
000000
000600
000900
001100
002100
002100
002100
004200
004200
004400
004400
004800
005000
002000
006100
00A200
011C00
000000
000000
000000
000000
000000
000000
ENDCHAR

STARTCHAR A7A5
ENCODING 42917
SWIDTH 960 0
DWIDTH 24 0
BBX 24 24 0 -6
BITMAP
000000
000000
080060
080090
080090
080110
080110
080110
082220
084220
088220
090240
0A0240
0E0280
090100
088310
084520
0820C0
000000
000000
000000
000000
000000
000000
ENDCHAR

STARTCHAR A7A6
ENCODING 42918
SWIDTH 960 0
DWIDTH 24 0
BBX 24 24 0 -6
BITMAP
000000
000000
000000
000000
000000
000000
000000
000000
03C1E0
042210
082410
080400
080400
080400
080400
082410
042210
03C1E0
000000
000000
000000
000000
000000
000000
ENDCHAR

STARTCHAR A7A7
ENCODING 42919
SWIDTH 960 0
DWIDTH 24 0
BBX 24 24 0 -6
BITMAP
000000
000000
000018
000004
000018
000004
000018
000000
1D8EC0
124920
124920
124920
124920
124920
124920
124920
124920
124920
000000
000000
000000
000000
000000
000000
ENDCHAR

STARTCHAR A7A8
ENCODING 42920
SWIDTH 960 0
DWIDTH 24 0
BBX 24 24 0 -6
BITMAP
000000
000000
000018
000004
000018
000004
000018
000000
0E3DC0
112220
212220
202220
202220
202220
202220
212220
112220
0E2220
000000
000000
000000
000000
000000
000000
ENDCHAR

STARTCHAR A7A9
ENCODING 42921
SWIDTH 960 0
DWIDTH 24 0
BBX 24 24 0 -6
BITMAP
000000
000000
000030
000008
000030
000008
000030
000000
03EF00
021080
021080
021080
021080
021080
021080
021080
021080
021080
000000
000000
000000
000000
000000
000000
ENDCHAR

STARTCHAR A7AA
ENCODING 42922
SWIDTH 960 0
DWIDTH 24 0
BBX 24 24 0 -6
BITMAP
000000
000000
200018
200004
200018
200004
200018
200000
213DC0
222220
242220
282220
382220
242220
242220
222220
212220
212220
000000
000000
000000
000000
000000
000000
ENDCHAR

STARTCHAR A7AB
ENCODING 42923
SWIDTH 960 0
DWIDTH 24 0
BBX 24 24 0 -6
BITMAP
000000
000000
018000
024000
020000
020000
020000
020000
0F9EE0
021110
021110
021110
021110
021110
021110
021110
021110
021110
000000
000000
000000
000000
000000
000000
ENDCHAR

STARTCHAR A7AC
ENCODING 42924
SWIDTH 960 0
DWIDTH 24 0
BBX 24 24 0 -6
BITMAP
000000
000000
000000
000000
000000
000000
000000
000000
1F0F70
108888
108888
108888
108888
108888
108888
108888
108888
108888
000000
000000
000000
000000
000000
000000
ENDCHAR

STARTCHAR A7AD
ENCODING 42925
SWIDTH 960 0
DWIDTH 24 0
BBX 24 24 0 -6
BITMAP
000000
000000
000000
000000
000000
000000
000000
000000
088F70
088888
088888
088888
110888
110888
110888
110888
110888
2E8888
200000
200000
200000
200000
000000
000000
ENDCHAR

STARTCHAR A7AE
ENCODING 42926
SWIDTH 960 0
DWIDTH 24 0
BBX 24 24 0 -6
BITMAP
000000
000000
000000
000000
000000
000000
000000
000000
0EC760
092490
092490
092490
092490
092490
092490
092490
092490
092490
000000
000000
000000
000000
000000
000000
ENDCHAR

STARTCHAR A7AF
ENCODING 42927
SWIDTH 960 0
DWIDTH 24 0
BBX 24 24 0 -6
BITMAP
000000
000000
000000
000000
000000
000000
000000
000000
078F70
084888
104888
100888
100888
100888
100888
104888
084888
078888
000000
000000
000000
000000
000000
000000
ENDCHAR

STARTCHAR A7B0
ENCODING 42928
SWIDTH 960 0
DWIDTH 24 0
BBX 24 24 0 -6
BITMAP
000000
000000
100000
100000
100000
100000
100000
100000
104F70
108888
110888
120888
140888
1C0888
120888
110888
108888
104888
000000
000000
000000
000000
000000
000000
ENDCHAR

STARTCHAR A7B1
ENCODING 42929
SWIDTH 960 0
DWIDTH 24 0
BBX 24 24 0 -6
BITMAP
000000
000000
000018
000004
000008
000010
00001C
000000
1D8EC0
124920
124920
124920
124920
124920
124920
124920
124920
124920
000000
000000
000000
000000
000000
000000
ENDCHAR

STARTCHAR A7B2
ENCODING 42930
SWIDTH 960 0
DWIDTH 24 0
BBX 24 24 0 -6
BITMAP
000000
000000
000018
000004
000008
000010
00001C
000000
0E3DC0
112220
212220
202220
202220
202220
202220
212220
112220
0E2220
000000
000000
000000
000000
000000
000000
ENDCHAR

STARTCHAR A7B3
ENCODING 42931
SWIDTH 960 0
DWIDTH 24 0
BBX 24 24 0 -6
BITMAP
000000
000000
000060
000010
000020
000040
000070
000000
07DE00
042100
042100
042100
042100
042100
042100
042100
042100
042100
000000
000000
000000
000000
000000
000000
ENDCHAR

STARTCHAR A7B4
ENCODING 42932
SWIDTH 960 0
DWIDTH 24 0
BBX 24 24 0 -6
BITMAP
000000
000000
100018
100004
100008
100010
10001C
100000
104EC0
108920
110920
120920
140920
1C0920
120920
110920
108920
104920
000000
000000
000000
000000
000000
000000
ENDCHAR

STARTCHAR A7B5
ENCODING 42933
SWIDTH 960 0
DWIDTH 24 0
BBX 24 24 0 -6
BITMAP
000000
000000
080000
080000
080000
080000
080000
080000
0B07C0
0C8020
084020
084020
0843E0
084420
084420
084420
084420
0843D0
000000
000000
000000
000000
000000
000000
ENDCHAR

STARTCHAR A7B6
ENCODING 42934
SWIDTH 960 0
DWIDTH 24 0
BBX 24 24 0 -6
BITMAP
000000
000000
000000
000000
000000
000000
000000
000000
0221D0
022220
022220
044220
044220
0441C0
088200
088200
0C8200
0B61E0
100210
100210
100210
1001E0
000000
000000
ENDCHAR

STARTCHAR A7B7
ENCODING 42935
SWIDTH 960 0
DWIDTH 24 0
BBX 24 24 0 -6
BITMAP
000000
000000
000000
000000
000000
000000
000000
000000
1EE0F4
111108
111108
111108
111108
1110F0
111100
111100
111100
1110F8
000104
000104
000104
0000F8
000000
000000
ENDCHAR

STARTCHAR A7B8
ENCODING 42936
SWIDTH 960 0
DWIDTH 24 0
BBX 24 24 0 -6
BITMAP
000000
000000
080000
080000
080000
080000
080000
080000
0823D0
084420
088420
090420
0A0420
0E03C0
090400
088400
084400
0823E0
000410
000410
000410
0003E0
000000
000000
ENDCHAR

STARTCHAR A7B9
ENCODING 42937
SWIDTH 960 0
DWIDTH 24 0
BBX 24 24 0 -6
BITMAP
000000
000000
040000
040000
040080
040080
040080
040080
0413F0
042080
044080
048080
050080
070080
048080
044080
042080
041070
000000
000000
000000
000000
000000
000000
ENDCHAR

STARTCHAR A7BA
ENCODING 42938
SWIDTH 960 0
DWIDTH 24 0
BBX 24 24 0 -6
BITMAP
000000
000000
000000
000010
000010
000010
000010
000010
071E10
088110
108110
100110
100F10
101110
101110
109110
089110
070F90
000000
000000
000000
000000
000000
000000
ENDCHAR

STARTCHAR A7BB
ENCODING 42939
SWIDTH 960 0
DWIDTH 24 0
BBX 24 24 0 -6
BITMAP
000000
000000
200004
200004
200004
200004
200004
200004
2233C4
224824
248824
288024
3081E4
308224
288224
248A24
224A24
2231E4
000000
000000
000000
000000
000000
000000
ENDCHAR

STARTCHAR A7BC
ENCODING 42940
SWIDTH 960 0
DWIDTH 24 0
BBX 24 24 0 -6
BITMAP
000000
000000
0047C0
004420
004410
004410
004410
004410
074420
08C7C0
104420
104410
104410
104410
104410
104410
08C420
0747C0
000000
000000
000000
000000
000000
000000
ENDCHAR

STARTCHAR A7BD
ENCODING 42941
SWIDTH 960 0
DWIDTH 24 0
BBX 24 24 0 -6
BITMAP
000000
000000
000100
000100
000100
000200
000200
000200
3B04F0
248508
248500
248900
2488F0
248808
249008
249108
249108
24A0F0
002000
002000
004000
004000
000000
000000
ENDCHAR

STARTCHAR A7BE
ENCODING 42942
SWIDTH 960 0
DWIDTH 24 0
BBX 24 24 0 -6
BITMAP
000000
000000
000118
000104
000108
000210
00021C
000200
3B04E0
248510
248500
248900
2488E0
248810
249010
249110
249110
24A0E0
002000
002000
004000
004000
000000
000000
ENDCHAR

STARTCHAR A7BF
ENCODING 42943
SWIDTH 960 0
DWIDTH 24 0
BBX 24 24 0 -6
BITMAP
000000
000000
000000
000000
000000
000000
000000
000000
0F83C0
084420
084400
084400
0843C0
084020
084020
084420
084420
0F83C0
080000
080000
080000
080000
000000
000000
ENDCHAR

STARTCHAR A7C0
ENCODING 42944
SWIDTH 960 0
DWIDTH 24 0
BBX 24 24 0 -6
BITMAP
000000
000000
000000
000000
000000
000000
000000
000000
0F83C0
084420
084420
084400
0843C0
084020
084020
084420
084420
0843C0
000000
000000
000000
000000
000000
000000
ENDCHAR

STARTCHAR A7C1
ENCODING 42945
SWIDTH 960 0
DWIDTH 24 0
BBX 24 24 0 -6
BITMAP
000000
000000
000000
000000
000000
000000
000000
000000
0211E0
021210
021200
042200
0421E0
042010
042010
084210
0C4210
0BB1E0
080000
100000
100000
100000
000000
000000
ENDCHAR

STARTCHAR A7C2
ENCODING 42946
SWIDTH 960 0
DWIDTH 24 0
BBX 24 24 0 -6
BITMAP
000000
000000
000000
000000
000000
000000
000000
000000
1EE1E0
111210
111210
111200
1111E0
111010
111010
111210
111210
1111E0
000000
000000
000000
000000
000000
000000
ENDCHAR

STARTCHAR A7C3
ENCODING 42947
SWIDTH 960 0
DWIDTH 24 0
BBX 24 24 0 -6
BITMAP
000000
000000
000820
000820
000820
000820
000440
000440
0F8440
084440
084280
084280
084280
084280
084100
084100
084100
0F8100
080000
080000
080000
080000
000000
000000
ENDCHAR

STARTCHAR A7C4
ENCODING 42948
SWIDTH 960 0
DWIDTH 24 0
BBX 24 24 0 -6
BITMAP
000000
000000
000820
000820
000820
000820
000440
000440
0F8440
084440
084280
084280
084280
084280
084100
084100
084100
084100
000000
000000
000000
000000
000000
000000
ENDCHAR

STARTCHAR A7C5
ENCODING 42949
SWIDTH 960 0
DWIDTH 24 0
BBX 24 24 0 -6
BITMAP
000000
000000
000410
000410
000410
000410
000220
000220
042220
042220
042140
042140
044140
084140
084080
084080
0C4080
0BB080
080000
100000
100000
100000
100000
000000
ENDCHAR

STARTCHAR A7C6
ENCODING 42950
SWIDTH 960 0
DWIDTH 24 0
BBX 24 24 0 -6
BITMAP
000000
000000
000410
000410
000410
000410
000220
000220
1EE220
111220
111140
111140
111140
111140
111080
111080
111080
111080
000000
000000
000000
000000
000000
000000
ENDCHAR

STARTCHAR A7C7
ENCODING 42951
SWIDTH 960 0
DWIDTH 24 0
BBX 24 24 0 -6
BITMAP
000000
000000
080410
080410
080410
080410
080220
080220
082220
084220
088140
090140
0A0140
0E0140
090080
088080
084080
082080
000000
000000
000000
000000
000000
000000
ENDCHAR

STARTCHAR A7C8
ENCODING 42952
SWIDTH 960 0
DWIDTH 24 0
BBX 24 24 0 -6
BITMAP
000000
000000
183208
183208
183208
183208
145110
145110
145110
145110
1290A0
1290A0
1290A0
1290A0
111040
111040
111040
111040
000000
000000
000000
000000
000000
000000
ENDCHAR

STARTCHAR A7C9
ENCODING 42953
SWIDTH 960 0
DWIDTH 24 0
BBX 24 24 0 -6
BITMAP
000000
000000
000100
000100
000100
000280
000280
000280
0F0280
088440
084440
084440
0847C0
084440
084820
084820
088820
0F0820
080000
080000
080000
080000
000000
000000
ENDCHAR

STARTCHAR A7CA
ENCODING 42954
SWIDTH 960 0
DWIDTH 24 0
BBX 24 24 0 -6
BITMAP
000000
000000
000080
000080
000080
000080
000140
000140
0B8140
0C4140
084220
084220
0843E0
084220
084410
084410
084410
084410
000000
000000
000000
000000
000000
000000
ENDCHAR

STARTCHAR A7CB
ENCODING 42955
SWIDTH 960 0
DWIDTH 24 0
BBX 24 24 0 -6
BITMAP
000000
000000
000040
000040
000040
000040
0000A0
0000A0
0220A0
0220A0
022110
022110
0421F0
044110
044208
044208
0C4208
0BB208
080000
080000
100000
100000
000000
000000
ENDCHAR

STARTCHAR A7CC
ENCODING 42956
SWIDTH 960 0
DWIDTH 24 0
BBX 24 24 0 -6
BITMAP
000000
000000
000040
000040
000040
000040
0000A0
0000A0
1EE0A0
1110A0
111110
111110
1111F0
111110
111208
111208
111208
111208
000000
000000
000000
000000
000000
000000
ENDCHAR

STARTCHAR A7CD
ENCODING 42957
SWIDTH 960 0
DWIDTH 24 0
BBX 24 24 0 -6
BITMAP
000000
000000
080080
080080
080080
080080
080140
080140
082140
084140
088220
090220
0A03E0
0E0220
090410
088410
084410
082410
000000
000000
000000
000000
000000
000000
ENDCHAR

STARTCHAR A7CE
ENCODING 42958
SWIDTH 960 0
DWIDTH 24 0
BBX 24 24 0 -6
BITMAP
000000
000000
001110
001110
001110
001110
001110
001110
1F0AA0
108AA0
108AA0
108AA0
108AA0
108AA0
108440
108440
108440
1F0440
100000
100000
100000
100000
000000
000000
ENDCHAR

STARTCHAR A7CF
ENCODING 42959
SWIDTH 960 0
DWIDTH 24 0
BBX 24 24 0 -6
BITMAP
000000
000000
001110
001110
001110
001110
001110
001110
1F0AA0
108AA0
108AA0
108AA0
108AA0
108AA0
108440
108440
108440
108440
000000
000000
000000
000000
000000
000000
ENDCHAR

STARTCHAR A7D0
ENCODING 42960
SWIDTH 960 0
DWIDTH 24 0
BBX 24 24 0 -6
BITMAP
000000
000000
000888
000888
000888
000888
000888
000888
084550
084550
084550
084550
088550
108550
108220
108220
188220
174220
200000
200000
200000
200000
000000
000000
ENDCHAR

STARTCHAR A7D1
ENCODING 42961
SWIDTH 960 0
DWIDTH 24 0
BBX 24 24 0 -6
BITMAP
000000
000000
000444
000444
000444
000444
000444
000444
3DC2A8
2222A8
2222A8
2222A8
2222A8
2222A8
222110
222110
222110
222110
000000
000000
000000
000000
000000
000000
ENDCHAR

STARTCHAR A7D2
ENCODING 42962
SWIDTH 960 0
DWIDTH 24 0
BBX 24 24 0 -6
BITMAP
000000
000000
100888
100888
100888
100888
100888
100888
104948
108550
110550
120550
140550
1C0550
120220
110220
108220
104220
000000
000000
000000
000000
000000
000000
ENDCHAR

STARTCHAR A7D3
ENCODING 42963
SWIDTH 960 0
DWIDTH 24 0
BBX 24 24 0 -6
BITMAP
000000
000000
104888
104888
104888
104888
18C888
18C888
18C948
18C550
154550
154550
154550
154550
124220
124220
124220
124220
000000
000000
000000
000000
000000
000000
ENDCHAR

STARTCHAR A7D4
ENCODING 42964
SWIDTH 960 0
DWIDTH 24 0
BBX 24 24 0 -6
BITMAP
000000
000000
081000
081000
081000
081000
081000
081000
0811F8
0FF008
081010
081010
081020
081040
081040
081080
081100
0811F8
000000
000000
000000
000000
000000
000000
ENDCHAR

STARTCHAR A7D5
ENCODING 42965
SWIDTH 960 0
DWIDTH 24 0
BBX 24 24 0 -6
BITMAP
000000
000000
102100
102100
102100
102100
102100
102100
10A17C
113F04
122108
142108
182110
182110
142120
122120
112140
10A17C
000000
000000
000000
000000
000000
000000
ENDCHAR

STARTCHAR A7D6
ENCODING 42966
SWIDTH 960 0
DWIDTH 24 0
BBX 24 24 0 -6
BITMAP
000000
000000
209100
209100
209100
319100
319100
319100
31917C
2A9F04
2A9108
2A9108
2A9110
2A9110
249120
249120
249140
24917C
000000
000000
000000
000000
000000
000000
ENDCHAR

STARTCHAR A7D7
ENCODING 42967
SWIDTH 960 0
DWIDTH 24 0
BBX 24 24 0 -6
BITMAP
000000
000000
0C2100
122100
212100
212100
212100
202100
20217C
203F04
272108
212108
212110
212110
212120
212120
132140
0D217C
000000
000000
000000
000000
000000
000000
ENDCHAR

STARTCHAR A7D8
ENCODING 42968
SWIDTH 960 0
DWIDTH 24 0
BBX 24 24 0 -6
BITMAP
000000
000000
3FA100
042100
042100
042100
042100
042100
04217C
043F04
042108
042108
042110
042110
042120
042120
042140
04217C
000000
000000
000000
000000
000000
000000
ENDCHAR

STARTCHAR A7D9
ENCODING 42969
SWIDTH 960 0
DWIDTH 24 0
BBX 24 24 0 -6
BITMAP
000000
000000
003800
00C600
010100
010100
020080
020080
020080
020080
010100
010100
008200
004400
004400
024480
024480
03C780
000000
000000
000000
000000
000000
000000
ENDCHAR

STARTCHAR A7DA
ENCODING 42970
SWIDTH 960 0
DWIDTH 24 0
BBX 24 24 0 -6
BITMAP
000000
000000
1001E0
100210
100408
100408
100804
100804
104804
108804
110408
120408
140210
1C0210
120120
110924
108924
104F3C
000000
000000
000000
000000
000000
000000
ENDCHAR

STARTCHAR A7DB
ENCODING 42971
SWIDTH 960 0
DWIDTH 24 0
BBX 24 24 0 -6
BITMAP
000000
000000
2021E0
202210
202408
202408
306804
306804
306804
28A804
28A408
28A408
252210
252210
252120
222924
222924
222F3C
000000
000000
000000
000000
000000
000000
ENDCHAR

STARTCHAR A7DC
ENCODING 42972
SWIDTH 960 0
DWIDTH 24 0
BBX 24 24 0 -6
BITMAP
000000
000000
0007F0
000400
000400
000400
000400
000400
0F8400
0847C0
084400
084400
084400
084400
084400
084400
084400
0F8400
080000
080000
080000
080000
000000
000000
ENDCHAR

STARTCHAR A7DD
ENCODING 42973
SWIDTH 960 0
DWIDTH 24 0
BBX 24 24 0 -6
BITMAP
000000
000000
0007F0
000400
000400
000400
000400
000400
0F8400
0847E0
084400
084400
084400
084400
084400
084400
084400
084400
000000
000000
000000
000000
000000
000000
ENDCHAR

STARTCHAR A7DE
ENCODING 42974
SWIDTH 960 0
DWIDTH 24 0
BBX 24 24 0 -6
BITMAP
000000
000000
0003F8
000200
000200
000200
000200
000200
000200
0423F0
042200
042200
042200
084200
084200
084200
0C4200
0BA200
100000
100000
100000
100000
000000
000000
ENDCHAR

STARTCHAR A7DF
ENCODING 42975
SWIDTH 960 0
DWIDTH 24 0
BBX 24 24 0 -6
BITMAP
000000
000000
000008
000008
000008
000008
000008
000008
3DC388
222448
222448
222448
222448
222448
222448
222448
222448
222388
000000
000000
000000
000000
000000
000000
ENDCHAR

STARTCHAR A7E0
ENCODING 42976
SWIDTH 960 0
DWIDTH 24 0
BBX 24 24 0 -6
BITMAP
000000
000000
000010
000010
000010
000010
000010
000010
03C1D0
042230
082410
080410
080410
080410
080410
082410
042230
03C1D0
000000
000000
000000
000000
000000
000000
ENDCHAR

STARTCHAR A7E1
ENCODING 42977
SWIDTH 960 0
DWIDTH 24 0
BBX 24 24 0 -6
BITMAP
000000
000000
000008
000008
000008
000008
000008
000008
26F068
280898
300908
307908
208908
208908
208908
208908
208898
207468
000000
000000
000000
000000
000000
000000
ENDCHAR

STARTCHAR A7E2
ENCODING 42978
SWIDTH 960 0
DWIDTH 24 0
BBX 24 24 0 -6
BITMAP
000000
000000
000008
000008
000008
26F068
280898
300908
307908
208908
208898
207868
00000C
000070
000380
001C70
00E088
070080
380070
000008
000088
000070
000000
000000
ENDCHAR

STARTCHAR A7E3
ENCODING 42979
SWIDTH 960 0
DWIDTH 24 0
BBX 24 24 0 -6
BITMAP
000000
000000
000040
000040
25C340
2824C0
30E440
212440
2124C6
20D358
000060
000198
000604
001804
006008
018390
06045C
180400
600380
000040
000440
000380
000000
000000
ENDCHAR

STARTCHAR A7E4
ENCODING 42980
SWIDTH 960 0
DWIDTH 24 0
BBX 24 24 0 -6
BITMAP
000000
000000
000000
000000
000000
000000
000000
000000
03C270
042280
042300
040300
03C200
002200
002200
042200
042200
03C200
000000
000000
000000
000000
000000
000000
ENDCHAR

STARTCHAR A7E5
ENCODING 42981
SWIDTH 960 0
DWIDTH 24 0
BBX 24 24 0 -6
BITMAP
000000
000000
05C000
062000
041000
041000
041000
041000
0413C0
041020
041020
062020
05C1E0
040220
040220
040220
040220
0401F0
000000
000000
000000
000000
000000
000000
ENDCHAR

STARTCHAR A7E6
ENCODING 42982
SWIDTH 960 0
DWIDTH 24 0
BBX 24 24 0 -6
BITMAP
000000
000000
103800
102400
102200
102200
102200
102200
10A2F0
112208
122208
142408
183878
182088
142088
122088
112088
10A07C
000000
000000
000000
000000
000000
000000
ENDCHAR

STARTCHAR A7E7
ENCODING 42983
SWIDTH 960 0
DWIDTH 24 0
BBX 24 24 0 -6
BITMAP
000000
000000
209C00
209200
209100
209100
319100
319100
319170
319208
2A9C08
2A9008
2A9038
2A9048
249048
249048
249048
24903C
000000
000000
000000
000000
000000
000000
ENDCHAR

STARTCHAR A7E8
ENCODING 42984
SWIDTH 960 0
DWIDTH 24 0
BBX 24 24 0 -6
BITMAP
000000
000000
0E3800
112400
212200
212200
202200
202200
2022F0
202208
272408
213878
212088
212088
212088
212088
112088
0F207C
000000
000000
000000
000000
000000
000000
ENDCHAR

STARTCHAR A7E9
ENCODING 42985
SWIDTH 960 0
DWIDTH 24 0
BBX 24 24 0 -6
BITMAP
000000
000000
111200
111200
111200
111200
111200
111200
0AA2E0
0AA310
0AA208
0AA208
0AA208
0AA208
044208
044208
044310
0442E0
000000
000000
000000
000000
000000
000000
ENDCHAR

STARTCHAR A7EA
ENCODING 42986
SWIDTH 960 0
DWIDTH 24 0
BBX 24 24 0 -6
BITMAP
000000
000000
040000
040000
040000
040000
040000
040000
043DC0
042220
042220
042220
042220
042220
042220
042220
042220
042220
000000
000000
000000
000000
000000
000000
ENDCHAR

STARTCHAR A7EB
ENCODING 42987
SWIDTH 960 0
DWIDTH 24 0
BBX 24 24 0 -6
BITMAP
000000
000000
040000
040000
040000
040000
040000
040000
042020
041040
040880
040500
040200
040200
040500
040880
041040
042020
000000
000000
000000
000000
000000
000000
ENDCHAR

STARTCHAR A7EC
ENCODING 42988
SWIDTH 960 0
DWIDTH 24 0
BBX 24 24 0 -6
BITMAP
000000
000000
0F8000
084000
082000
082000
082000
082000
0841D0
0F8230
084410
082410
082410
082410
082410
082410
084230
0F81D0
000010
000010
000010
000010
000000
000000
ENDCHAR

STARTCHAR A7ED
ENCODING 42989
SWIDTH 960 0
DWIDTH 24 0
BBX 24 24 0 -6
BITMAP
000000
000000
03C000
042000
081000
081000
100000
100000
100204
100204
10F108
101108
101090
101090
081060
081060
041040
03F040
000080
000080
000100
000100
000000
000000
ENDCHAR

STARTCHAR A7EE
ENCODING 42990
SWIDTH 960 0
DWIDTH 24 0
BBX 24 24 0 -6
BITMAP
000000
000000
03C000
042000
081000
081000
080000
080000
060208
01C208
002110
001110
001110
0010A0
0810A0
0810A0
042040
03C040
000000
000000
000000
000000
000000
000000
ENDCHAR

STARTCHAR A7EF
ENCODING 42991
SWIDTH 960 0
DWIDTH 24 0
BBX 24 24 0 -6
BITMAP
000000
000000
002000
002000
382800
444800
444800
444800
404800
40499A
408924
408B24
408A24
408C18
408E20
450A20
450B20
45091C
3909A2
010022
020022
02001C
000000
000000
ENDCHAR

STARTCHAR A8A1
ENCODING 43169
SWIDTH 960 0
DWIDTH 24 0
BBX 24 24 0 -6
BITMAP
000000
000000
000000
000000
000000
007FE0
006000
00B000
00B000
00B000
011800
011FC0
011800
020C00
03FC00
020C00
040600
040600
0E07E0
000000
000000
000000
000000
000000
ENDCHAR

STARTCHAR A8A2
ENCODING 43170
SWIDTH 960 0
DWIDTH 24 0
BBX 24 24 0 -6
BITMAP
000000
000000
000000
000000
000000
03FC00
00C700
00C180
00C180
00C0C0
00C0C0
07F8C0
00C0C0
00C0C0
00C0C0
00C180
00C180
00C700
03FC00
000000
000000
000000
000000
000000
ENDCHAR

STARTCHAR A8A3
ENCODING 43171
SWIDTH 960 0
DWIDTH 24 0
BBX 24 24 0 -6
BITMAP
000000
000000
000000
000000
000000
003C00
006600
006600
000600
003E00
006600
006600
003B00
000000
000000
000000
03FFE0
000000
000000
000000
000000
000000
000000
000000
ENDCHAR

STARTCHAR A8A4
ENCODING 43172
SWIDTH 960 0
DWIDTH 24 0
BBX 24 24 0 -6
BITMAP
000000
000000
000000
000000
000000
01E3C0
00C180
00C180
07FFF0
00C180
00C180
00FF80
00C180
00C180
00C180
00C180
00C180
00C180
01E3C0
000000
000000
000000
000000
000000
ENDCHAR

STARTCHAR A8A6
ENCODING 43174
SWIDTH 960 0
DWIDTH 24 0
BBX 24 24 0 -6
BITMAP
000000
000000
000000
000000
03C3C0
018180
018180
018180
018180
018180
018180
018180
018180
018180
018180
018180
03C180
001980
001B00
000E00
000000
000000
000000
000000
ENDCHAR

STARTCHAR A8A8
ENCODING 43176
SWIDTH 960 0
DWIDTH 24 0
BBX 24 24 0 -6
BITMAP
000000
000000
000000
000000
07E000
018000
018000
018000
018000
0180E0
0180E0
0180E0
018000
018000
018080
018080
018080
018180
07FF80
000000
000000
000000
000000
000000
ENDCHAR

STARTCHAR A8A9
ENCODING 43177
SWIDTH 960 0
DWIDTH 24 0
BBX 24 24 0 -6
BITMAP
000000
000000
000000
000000
01F800
006000
006000
006600
007800
01E000
066000
006000
006000
006000
006020
006020
006020
006060
01FFE0
000000
000000
000000
000000
000000
ENDCHAR

STARTCHAR A8AA
ENCODING 43178
SWIDTH 960 0
DWIDTH 24 0
BBX 24 24 0 -6
BITMAP
000000
000000
000000
000000
000000
000000
001E60
0071C0
00C1C0
00C340
018660
018C60
019860
01B060
01E060
00C0C0
01C0C0
037380
061E00
0C0000
000000
000000
000000
000000
ENDCHAR

STARTCHAR A8AB
ENCODING 43179
SWIDTH 960 0
DWIDTH 24 0
BBX 24 24 0 -6
BITMAP
000000
000000
000000
000000
000000
000000
01E000
061FF0
0C0C00
0C0C00
180600
180600
1807F0
180600
180600
0C0C00
0C0C00
061FF0
01E000
000000
000000
000000
000000
000000
ENDCHAR

STARTCHAR A8AC
ENCODING 43180
SWIDTH 960 0
DWIDTH 24 0
BBX 24 24 0 -6
BITMAP
000000
000000
000000
000000
000000
003C00
006600
006600
006600
006600
006600
006600
003C00
000000
000000
000000
03FFE0
000000
000000
000000
000000
000000
000000
000000
ENDCHAR

STARTCHAR A8AD
ENCODING 43181
SWIDTH 960 0
DWIDTH 24 0
BBX 24 24 0 -6
BITMAP
000000
000000
000000
000000
01FC00
006000
006000
007E00
006380
006180
0060C0
0060C0
0060C0
0060C0
006180
006380
007E00
006000
006000
01FC00
000000
000000
000000
000000
ENDCHAR

STARTCHAR A8AE
ENCODING 43182
SWIDTH 960 0
DWIDTH 24 0
BBX 24 24 0 -6
BITMAP
000000
000000
000000
000000
000000
03FFC0
0318C0
021840
021840
001800
001800
01FF80
001800
001800
001800
001800
001800
001800
007E00
000000
000000
000000
000000
000000
ENDCHAR

STARTCHAR A8AF
ENCODING 43183
SWIDTH 960 0
DWIDTH 24 0
BBX 24 24 0 -6
BITMAP
000000
000000
000000
000000
00C000
00CF80
00F1C0
00C0C0
00C060
00C060
00C060
00C060
00C060
00C060
00C060
00C0C0
00C1C0
00C700
000000
000000
000000
000000
000000
000000
ENDCHAR

STARTCHAR A8B1
ENCODING 43185
SWIDTH 960 0
DWIDTH 24 0
BBX 24 24 0 -6
BITMAP
000000
000000
00FF00
0300C0
040020
080010
100008
100008
21FF04
21FF04
200304
200304
200304
200304
200304
200304
100308
100008
080010
040020
0300C0
00FF00
000000
000000
ENDCHAR

STARTCHAR A8B2
ENCODING 43186
SWIDTH 960 0
DWIDTH 24 0
BBX 24 24 0 -6
BITMAP
000000
000000
00FF00
0300C0
040020
080010
100008
10C008
20C004
20C004
20C004
20C004
20C004
20C004
20FF04
20FF04
100008
100008
080010
040020
0300C0
00FF00
000000
000000
ENDCHAR

STARTCHAR A8B3
ENCODING 43187
SWIDTH 960 0
DWIDTH 24 0
BBX 24 24 0 -6
BITMAP
000000
000000
00FF00
0300C0
040020
080010
100008
100008
20FF04
20FF04
20C004
20C004
20C004
20C004
20FF04
20FF04
100008
100008
080010
040020
0300C0
00FF00
000000
000000
ENDCHAR

STARTCHAR A8B4
ENCODING 43188
SWIDTH 960 0
DWIDTH 24 0
BBX 24 24 0 -6
BITMAP
000000
000000
00FF00
0300C0
040020
080010
100008
10FF08
20FF04
200304
200304
20FF04
20FF04
20C004
20C004
20FF04
10FF08
100008
080010
040020
0300C0
00FF00
000000
000000
ENDCHAR

STARTCHAR A8B5
ENCODING 43189
SWIDTH 960 0
DWIDTH 24 0
BBX 24 24 0 -6
BITMAP
000000
000000
00FF00
0300C0
040020
080010
100008
100008
20FF04
20FF04
20C304
20C304
20C304
20C304
20FF04
20FF04
100008
100008
080010
040020
0300C0
00FF00
000000
000000
ENDCHAR

STARTCHAR A8B6
ENCODING 43190
SWIDTH 960 0
DWIDTH 24 0
BBX 24 24 0 -6
BITMAP
000000
000000
00FF00
0300C0
040020
080010
100008
10C308
20C304
20C304
20FF04
20FF04
20C304
20C304
20C304
20FF04
10FF08
100008
080010
040020
0300C0
00FF00
000000
000000
ENDCHAR

STARTCHAR A8B7
ENCODING 43191
SWIDTH 960 0
DWIDTH 24 0
BBX 24 24 0 -6
BITMAP
000000
000000
00FF00
0300C0
040020
080010
100008
101808
201804
201804
203C04
203C04
206604
20E704
21C384
208104
100008
100008
080010
040020
0300C0
00FF00
000000
000000
ENDCHAR

STARTCHAR A8B8
ENCODING 43192
SWIDTH 960 0
DWIDTH 24 0
BBX 24 24 0 -6
BITMAP
000000
000000
00FF00
0300C0
040020
080010
100008
103C08
20FF04
20C304
218184
218184
218184
218184
20C304
20FF04
103C08
100008
080010
040020
0300C0
00FF00
000000
000000
ENDCHAR

STARTCHAR A8B9
ENCODING 43193
SWIDTH 960 0
DWIDTH 24 0
BBX 24 24 0 -6
BITMAP
000000
000000
00FF00
0300C0
040020
080010
100008
100008
21FF84
21FF84
201804
203C04
203C04
206604
20E704
21C384
108108
100008
080010
040020
0300C0
00FF00
000000
000000
ENDCHAR

STARTCHAR A8BA
ENCODING 43194
SWIDTH 960 0
DWIDTH 24 0
BBX 24 24 0 -6
BITMAP
000000
000000
00FF00
0300C0
040020
080010
107E08
107E08
200004
200004
21FF84
21FF84
201804
203C04
206604
21C384
118188
100008
080010
040020
0300C0
00FF00
000000
000000
ENDCHAR

STARTCHAR A8BB
ENCODING 43195
SWIDTH 960 0
DWIDTH 24 0
BBX 24 24 0 -6
BITMAP
000000
000000
00FF00
0300C0
040020
080010
100008
100008
20FF04
20FF04
200304
200304
201F04
20FF04
20E304
200304
100308
100008
080010
040020
0300C0
00FF00
000000
000000
ENDCHAR

STARTCHAR A8BC
ENCODING 43196
SWIDTH 960 0
DWIDTH 24 0
BBX 24 24 0 -6
BITMAP
000000
000000
00FF00
0300C0
040020
080010
100008
10FF08
20FF04
20C004
20C004
20FF04
20FF04
20C004
20C004
20FF04
10FF08
100008
080010
040020
0300C0
00FF00
000000
000000
ENDCHAR

STARTCHAR A8BD
ENCODING 43197
SWIDTH 960 0
DWIDTH 24 0
BBX 24 24 0 -6
BITMAP
000000
000000
00FF00
0300C0
040020
080010
100008
11FF88
21FF84
206604
206604
206604
206604
206604
21FF84
21FF84
100008
100008
080010
040020
0300C0
00FF00
000000
000000
ENDCHAR

STARTCHAR A8BE
ENCODING 43198
SWIDTH 960 0
DWIDTH 24 0
BBX 24 24 0 -6
BITMAP
000000
000000
00FF00
0300C0
040020
080010
101808
101808
21FF84
21FF84
200004
200004
20FF04
21FF84
218184
218184
11FF88
10FF08
080010
040020
0300C0
00FF00
000000
000000
ENDCHAR

STARTCHAR A8BF
ENCODING 43199
SWIDTH 960 0
DWIDTH 24 0
BBX 24 24 0 -6
BITMAP
000000
000000
00FF00
0300C0
040020
080310
100308
17F308
27F304
203304
203304
2063E4
2063E4
20C304
21C304
238304
170308
120308
080310
040020
0300C0
00FF00
000000
000000
ENDCHAR

STARTCHAR A8C0
ENCODING 43200
SWIDTH 960 0
DWIDTH 24 0
BBX 24 24 0 -6
BITMAP
000000
000000
00FF00
0300C0
040020
080310
100308
130308
230304
230304
230304
2303E4
2303E4
233B04
23FB04
23C304
100308
100308
080310
040020
0300C0
00FF00
000000
000000
ENDCHAR

STARTCHAR A8C1
ENCODING 43201
SWIDTH 960 0
DWIDTH 24 0
BBX 24 24 0 -6
BITMAP
000000
000000
00FF00
0300C0
040020
080310
100308
100308
23F304
23F304
230304
2303E4
2303E4
230304
230304
23F304
13F308
100308
080310
040020
0300C0
00FF00
000000
000000
ENDCHAR

STARTCHAR A8C2
ENCODING 43202
SWIDTH 960 0
DWIDTH 24 0
BBX 24 24 0 -6
BITMAP
000000
000000
00FF00
0300C0
040020
080310
100308
13F308
23F304
203304
203304
23F3E4
23F3E4
230304
230304
23F304
13F308
100308
080310
040020
0300C0
00FF00
000000
000000
ENDCHAR

STARTCHAR A8C3
ENCODING 43203
SWIDTH 960 0
DWIDTH 24 0
BBX 24 24 0 -6
BITMAP
000000
000000
00FF00
0300C0
040020
080310
100308
13F308
23F304
233304
233304
2333E4
2333E4
233304
233304
23F304
13F308
100308
080310
040020
0300C0
00FF00
000000
000000
ENDCHAR

STARTCHAR A8C4
ENCODING 43204
SWIDTH 960 0
DWIDTH 24 0
BBX 24 24 0 -6
BITMAP
000000
000000
00FF00
0300C0
040020
080310
100308
133308
233304
233304
23F3E4
23F3E4
233304
233304
233304
23F304
13F308
100308
080310
040020
0300C0
00FF00
000000
000000
ENDCHAR

STARTCHAR A8C5
ENCODING 43205
SWIDTH 960 0
DWIDTH 24 0
BBX 24 24 0 -6
BITMAP
000000
000000
00FF00
0300C0
040020
080310
10C308
10C308
20C304
20C304
21E304
21E3E4
21E3E4
233304
233304
273B04
121308
100308
080310
040020
0300C0
00FF00
000000
000000
ENDCHAR

STARTCHAR A8C6
ENCODING 43206
SWIDTH 960 0
DWIDTH 24 0
BBX 24 24 0 -6
BITMAP
000000
000000
00FF00
0300C0
040020
080310
100308
11C308
23E304
263304
263304
2633E4
2633E4
263304
263304
23E304
11C308
100308
080310
040020
0300C0
00FF00
000000
000000
ENDCHAR

STARTCHAR A8C7
ENCODING 43207
SWIDTH 960 0
DWIDTH 24 0
BBX 24 24 0 -6
BITMAP
000000
000000
00FF00
0300C0
040020
080310
100308
17FB08
27FB04
20C304
20C304
20C3E4
21E3E4
21E304
233304
273B04
121308
100308
080310
040020
0300C0
00FF00
000000
000000
ENDCHAR

STARTCHAR A8C8
ENCODING 43208
SWIDTH 960 0
DWIDTH 24 0
BBX 24 24 0 -6
BITMAP
000000
000000
00FF00
0300C0
040020
080310
10C308
10C308
27FB04
27FB04
20C304
20C3E4
20C3E4
21E304
21E304
233304
173B08
121308
080310
040020
0300C0
00FF00
000000
000000
ENDCHAR

STARTCHAR A8C9
ENCODING 43209
SWIDTH 960 0
DWIDTH 24 0
BBX 24 24 0 -6
BITMAP
000000
000000
00FF00
0300C0
040020
080010
100308
13F308
23F304
203304
203304
23F3E4
23E3E4
206304
206304
20C304
11C308
138308
090310
040020
0300C0
00FF00
000000
000000
ENDCHAR

STARTCHAR A8CA
ENCODING 43210
SWIDTH 960 0
DWIDTH 24 0
BBX 24 24 0 -6
BITMAP
000000
000000
00FF00
0300C0
040020
080310
100308
13F308
23F304
230304
230304
23F3E4
23F3E4
230304
230304
23F304
13F308
100308
080310
040020
0300C0
00FF00
000000
000000
ENDCHAR

STARTCHAR A8CB
ENCODING 43211
SWIDTH 960 0
DWIDTH 24 0
BBX 24 24 0 -6
BITMAP
000000
000000
00FF00
0300C0
040020
080310
100308
17FB08
27FB04
233304
233304
2333E4
2333E4
233304
233304
27FB04
17FB08
100308
080310
040020
0300C0
00FF00
000000
000000
ENDCHAR

STARTCHAR A8CC
ENCODING 43212
SWIDTH 960 0
DWIDTH 24 0
BBX 24 24 0 -6
BITMAP
000000
000000
00FF00
0300C0
040020
08C310
10C308
10C308
27FB04
27FB04
2003E4
2003E4
21E304
23F304
233304
233304
13F308
11E308
080310
040020
0300C0
00FF00
000000
000000
ENDCHAR

STARTCHAR A8CD
ENCODING 43213
SWIDTH 960 0
DWIDTH 24 0
BBX 24 24 0 -6
BITMAP
000000
000000
00FF00
0300C0
040020
080010
100008
10FC08
20FE04
200604
200604
207E04
20FE04
20C604
20C604
20FF04
107B08
100008
080010
040020
0300C0
00FF00
000000
000000
ENDCHAR

STARTCHAR A8CE
ENCODING 43214
SWIDTH 960 0
DWIDTH 24 0
BBX 24 24 0 -6
BITMAP
000000
000000
00FF00
0300C0
040020
080010
106008
106008
206004
206E04
207F04
207384
206184
206184
206184
207384
107F08
106E08
080010
040020
0300C0
00FF00
000000
000000
ENDCHAR

STARTCHAR A8CF
ENCODING 43215
SWIDTH 960 0
DWIDTH 24 0
BBX 24 24 0 -6
BITMAP
000000
000000
00FF00
0300C0
040020
080010
100008
103C08
207E04
20E304
20C304
20C004
20C004
20C304
20E304
207E04
103C08
100008
080010
040020
0300C0
00FF00
000000
000000
ENDCHAR

STARTCHAR A8D0
ENCODING 43216
SWIDTH 960 0
DWIDTH 24 0
BBX 24 24 0 -6
BITMAP
000000
000000
00FF00
0300C0
040020
080310
100308
100308
200304
203B04
207F04
20E704
20C304
20C304
20C304
20E704
107F08
103B08
080010
040020
0300C0
00FF00
000000
000000
ENDCHAR

STARTCHAR A8D1
ENCODING 43217
SWIDTH 960 0
DWIDTH 24 0
BBX 24 24 0 -6
BITMAP
000000
000000
00FF00
0300C0
040020
080010
100008
103C08
207E04
20C304
20C304
20FF04
20FF04
20C004
20C004
207F04
103E08
100008
080010
040020
0300C0
00FF00
000000
000000
ENDCHAR

STARTCHAR A8D2
ENCODING 43218
SWIDTH 960 0
DWIDTH 24 0
BBX 24 24 0 -6
BITMAP
000000
000000
00FF00
0300C0
040020
080E10
101E08
101808
201804
201804
207E04
207E04
201804
201804
201804
201804
101808
101808
081810
040020
0300C0
00FF00
000000
000000
ENDCHAR

STARTCHAR A8D3
ENCODING 43219
SWIDTH 960 0
DWIDTH 24 0
BBX 24 24 0 -6
BITMAP
000000
000000
00FF00
0300C0
040020
080010
107F08
10FF08
20C304
20C304
20C304
20FF04
207F04
200304
200304
200304
10C308
10FF08
087E10
040020
0300C0
00FF00
000000
000000
ENDCHAR

STARTCHAR A8D4
ENCODING 43220
SWIDTH 960 0
DWIDTH 24 0
BBX 24 24 0 -6
BITMAP
000000
000000
00FF00
0300C0
040020
086010
106008
106008
206004
206004
207F04
207F84
206184
206184
206184
206184
106188
106188
080010
040020
0300C0
00FF00
000000
000000
ENDCHAR

STARTCHAR A8D5
ENCODING 43221
SWIDTH 960 0
DWIDTH 24 0
BBX 24 24 0 -6
BITMAP
000000
000000
00FF00
0300C0
040020
081810
101808
100008
200004
200004
201804
201804
201804
201804
201804
201804
101808
101808
080010
040020
0300C0
00FF00
000000
000000
ENDCHAR

STARTCHAR A8D6
ENCODING 43222
SWIDTH 960 0
DWIDTH 24 0
BBX 24 24 0 -6
BITMAP
000000
000000
00FF00
0300C0
040020
081810
101808
100008
200004
200004
201804
201804
201804
201804
201804
201804
101808
107808
087010
040020
0300C0
00FF00
000000
000000
ENDCHAR

STARTCHAR A8D7
ENCODING 43223
SWIDTH 960 0
DWIDTH 24 0
BBX 24 24 0 -6
BITMAP
000000
000000
00FF00
0300C0
040020
08C010
10C008
10C008
20C004
20C304
20C604
20CC04
20D804
20F004
20F804
20CC04
10C608
10C308
080010
040020
0300C0
00FF00
000000
000000
ENDCHAR

STARTCHAR A8D8
ENCODING 43224
SWIDTH 960 0
DWIDTH 24 0
BBX 24 24 0 -6
BITMAP
000000
000000
00FF00
0300C0
040020
081810
101808
101808
201804
201804
201804
201804
201804
201804
201804
201804
101808
101808
080010
040020
0300C0
00FF00
000000
000000
ENDCHAR

STARTCHAR A8D9
ENCODING 43225
SWIDTH 960 0
DWIDTH 24 0
BBX 24 24 0 -6
BITMAP
000000
000000
00FF00
0300C0
040020
080010
100008
100008
21FF04
21FF84
219984
219984
219984
219984
219984
219984
100008
100008
080010
040020
0300C0
00FF00
000000
000000
ENDCHAR

STARTCHAR A8DA
ENCODING 43226
SWIDTH 960 0
DWIDTH 24 0
BBX 24 24 0 -6
BITMAP
000000
000000
00FF00
0300C0
040020
080010
100008
100008
20FE04
20FF04
20C304
20C304
20C304
20C304
20C304
20C304
100008
100008
080010
040020
0300C0
00FF00
000000
000000
ENDCHAR

STARTCHAR A8DB
ENCODING 43227
SWIDTH 960 0
DWIDTH 24 0
BBX 24 24 0 -6
BITMAP
000000
000000
00FF00
0300C0
040020
080010
100008
107E08
20FF04
21C384
218184
218184
218184
21C384
20FF04
207E04
100008
100008
080010
040020
0300C0
00FF00
000000
000000
ENDCHAR

STARTCHAR A8DC
ENCODING 43228
SWIDTH 960 0
DWIDTH 24 0
BBX 24 24 0 -6
BITMAP
000000
000000
00FF00
0300C0
040020
080010
100008
107E08
207F04
206184
206184
206184
207F04
207E04
206004
206004
106008
106008
080010
040020
0300C0
00FF00
000000
000000
ENDCHAR

STARTCHAR A8DD
ENCODING 43229
SWIDTH 960 0
DWIDTH 24 0
BBX 24 24 0 -6
BITMAP
000000
000000
00FF00
0300C0
040020
080010
100008
103F08
207F04
20C304
20C304
20C304
207F04
203F04
200304
200304
100308
100308
080010
040020
0300C0
00FF00
000000
000000
ENDCHAR

STARTCHAR A8DE
ENCODING 43230
SWIDTH 960 0
DWIDTH 24 0
BBX 24 24 0 -6
BITMAP
000000
000000
00FF00
0300C0
040020
080010
100008
100008
206604
206E04
207004
207004
206004
206004
206004
206004
100008
100008
080010
040020
0300C0
00FF00
000000
000000
ENDCHAR

STARTCHAR A8DF
ENCODING 43231
SWIDTH 960 0
DWIDTH 24 0
BBX 24 24 0 -6
BITMAP
000000
000000
00FF00
0300C0
040020
080010
100008
107E08
20FF04
20C304
20C004
20FE04
207F04
200304
20C304
20FF04
107E08
100008
080010
040020
0300C0
00FF00
000000
000000
ENDCHAR

STARTCHAR A8E0
ENCODING 43232
SWIDTH 960 0
DWIDTH 24 0
BBX 24 24 0 -6
BITMAP
000000
000000
00FF00
0300C0
040020
083010
103008
103008
20FE04
20FE04
203004
203004
203004
203004
203004
203C04
101C08
100008
080010
040020
0300C0
00FF00
000000
000000
ENDCHAR

STARTCHAR A8E1
ENCODING 43233
SWIDTH 960 0
DWIDTH 24 0
BBX 24 24 0 -6
BITMAP
000000
000000
00FF00
0300C0
040020
080010
100008
100008
20C304
20C304
20C304
20C304
20C304
20C304
20FF04
207F04
100008
100008
080010
040020
0300C0
00FF00
000000
000000
ENDCHAR

STARTCHAR A8E2
ENCODING 43234
SWIDTH 960 0
DWIDTH 24 0
BBX 24 24 0 -6
BITMAP
000000
000000
00FF00
0300C0
040020
080010
100008
100008
20C304
20C304
20C304
206604
206604
203C04
203C04
201804
101808
100008
080010
040020
0300C0
00FF00
000000
000000
ENDCHAR

STARTCHAR A8E3
ENCODING 43235
SWIDTH 960 0
DWIDTH 24 0
BBX 24 24 0 -6
BITMAP
000000
000000
00FF00
0300C0
040020
080010
100008
100008
261864
261864
233CC4
233CC4
233CC4
21E784
21E784
20C304
10C308
100008
080010
040020
0300C0
00FF00
000000
000000
ENDCHAR

STARTCHAR A8E4
ENCODING 43236
SWIDTH 960 0
DWIDTH 24 0
BBX 24 24 0 -6
BITMAP
000000
000000
00FF00
0300C0
040020
080010
100008
100008
218184
20C304
206604
203C04
201804
203C04
206604
20C304
118188
100008
080010
040020
0300C0
00FF00
000000
000000
ENDCHAR

STARTCHAR A8E5
ENCODING 43237
SWIDTH 960 0
DWIDTH 24 0
BBX 24 24 0 -6
BITMAP
000000
000000
00FF00
0300C0
040020
080010
100008
10C308
20C304
206604
206604
203C04
203C04
201804
201804
203004
103008
106008
086010
040020
0300C0
00FF00
000000
000000
ENDCHAR

STARTCHAR A8E6
ENCODING 43238
SWIDTH 960 0
DWIDTH 24 0
BBX 24 24 0 -6
BITMAP
000000
000000
00FF00
0300C0
040020
080010
100008
10FF08
20FF04
200604
200C04
201804
201804
203004
206004
20FF04
10FF08
100008
080010
040020
0300C0
00FF00
000000
000000
ENDCHAR

STARTCHAR A8E7
ENCODING 43239
SWIDTH 960 0
DWIDTH 24 0
BBX 24 24 0 -6
BITMAP
000000
000000
00FF00
0300C0
040020
080010
103808
103808
201804
201804
201804
201804
201804
201804
201804
201804
101808
101808
080010
040020
0300C0
00FF00
000000
000000
ENDCHAR

STARTCHAR A8E8
ENCODING 43240
SWIDTH 960 0
DWIDTH 24 0
BBX 24 24 0 -6
BITMAP
000000
000000
00FF00
0300C0
040020
080010
103C08
107E08
20C304
20C304
200304
200604
201C04
203004
206004
20C004
10FF08
10FF08
080010
040020
0300C0
00FF00
000000
000000
ENDCHAR

STARTCHAR A8E9
ENCODING 43241
SWIDTH 960 0
DWIDTH 24 0
BBX 24 24 0 -6
BITMAP
000000
000000
00FF00
0300C0
040020
080010
103C08
107E08
20E704
20C304
200304
200E04
200E04
200304
20C304
20E704
107E08
103C08
080010
040020
0300C0
00FF00
000000
000000
ENDCHAR

STARTCHAR A8EA
ENCODING 43242
SWIDTH 960 0
DWIDTH 24 0
BBX 24 24 0 -6
BITMAP
000000
000000
00FF00
0300C0
040020
080010
101C08
101C08
203C04
202C04
206C04
204C04
20CC04
208C04
21FF04
21FF04
100C08
100C08
080010
040020
0300C0
00FF00
000000
000000
ENDCHAR

STARTCHAR A8EB
ENCODING 43243
SWIDTH 960 0
DWIDTH 24 0
BBX 24 24 0 -6
BITMAP
000000
000000
00FF00
0300C0
040020
080010
10FE08
10FE08
20C004
20C004
20FC04
20FE04
200704
200304
200304
20C704
10FE08
107C08
080010
040020
0300C0
00FF00
000000
000000
ENDCHAR

STARTCHAR A8EC
ENCODING 43244
SWIDTH 960 0
DWIDTH 24 0
BBX 24 24 0 -6
BITMAP
000000
000000
00FF00
0300C0
040020
080010
103C08
107E08
20C304
20C004
20C004
20FE04
20FF04
20C304
20C304
20C304
107E08
103C08
080010
040020
0300C0
00FF00
000000
000000
ENDCHAR

STARTCHAR A8ED
ENCODING 43245
SWIDTH 960 0
DWIDTH 24 0
BBX 24 24 0 -6
BITMAP
000000
000000
00FF00
0300C0
040020
080010
10FF08
10FF08
20C604
200604
200604
200C04
200C04
200C04
201804
201804
101808
101808
080010
040020
0300C0
00FF00
000000
000000
ENDCHAR

STARTCHAR A8EE
ENCODING 43246
SWIDTH 960 0
DWIDTH 24 0
BBX 24 24 0 -6
BITMAP
000000
000000
00FF00
0300C0
040020
080010
103C08
107E08
20C304
20C304
20C304
207E04
20FF04
20C304
20C304
20C304
107E08
103C08
080010
040020
0300C0
00FF00
000000
000000
ENDCHAR

STARTCHAR A8EF
ENCODING 43247
SWIDTH 960 0
DWIDTH 24 0
BBX 24 24 0 -6
BITMAP
000000
000000
00FF00
0300C0
040020
080010
103C08
107E08
20C304
20C304
20C304
20FF04
207F04
200304
200304
20C304
107E08
103C08
080010
040020
0300C0
00FF00
000000
000000
ENDCHAR

STARTCHAR A8F0
ENCODING 43248
SWIDTH 960 0
DWIDTH 24 0
BBX 24 24 0 -6
BITMAP
000000
000000
00FF00
0300C0
040020
080010
138708
138F88
2198C4
2198C4
2198C4
2198C4
2198C4
2198C4
2198C4
2198C4
118F88
118708
080010
040020
0300C0
00FF00
000000
000000
ENDCHAR

STARTCHAR A8F1
ENCODING 43249
SWIDTH 960 0
DWIDTH 24 0
BBX 24 24 0 -6
BITMAP
000000
000000
00FF00
0300C0
040020
080010
11C708
11C708
20C304
20C304
20C304
20C304
20C304
20C304
20C304
20C304
10C308
10C308
080010
040020
0300C0
00FF00
000000
000000
ENDCHAR

STARTCHAR A8F2
ENCODING 43250
SWIDTH 960 0
DWIDTH 24 0
BBX 24 24 0 -6
BITMAP
000000
000000
00FF00
0300C0
040020
080010
138F88
139FC8
2198C4
2198C4
2180C4
2181C4
218384
218704
218E04
219C04
119FC8
119FC8
080010
040020
0300C0
00FF00
000000
000000
ENDCHAR

STARTCHAR A8F3
ENCODING 43251
SWIDTH 960 0
DWIDTH 24 0
BBX 24 24 0 -6
BITMAP
000000
000000
00FF00
0300C0
040020
080010
138F88
139FC8
2198C4
2198C4
2180C4
218384
2183C4
2180C4
2198C4
2198C4
119FC8
118F88
080010
040020
0300C0
00FF00
000000
000000
ENDCHAR

STARTCHAR A8F4
ENCODING 43252
SWIDTH 960 0
DWIDTH 24 0
BBX 24 24 0 -6
BITMAP
000000
000000
00FF00
0300C0
040020
080010
138308
138708
218704
218F04
218F04
219B04
219B04
21B304
21BFC4
21BFC4
118308
118308
080010
040020
0300C0
00FF00
000000
000000
ENDCHAR

STARTCHAR A8F5
ENCODING 43253
SWIDTH 960 0
DWIDTH 24 0
BBX 24 24 0 -6
BITMAP
000000
000000
00FF00
0300C0
040020
080010
139FC8
139FC8
219804
219804
219F84
219FC4
2180C4
2180C4
2198C4
2198C4
119FC8
118F88
080010
040020
0300C0
00FF00
000000
000000
ENDCHAR

STARTCHAR A8F6
ENCODING 43254
SWIDTH 960 0
DWIDTH 24 0
BBX 24 24 0 -6
BITMAP
000000
000000
000000
000000
000000
000800
3809F0
3813F8
181318
182318
182018
184030
184060
1880C0
188180
190300
1903F8
1A03F8
020000
000000
000000
000000
000000
000000
ENDCHAR

STARTCHAR A8F7
ENCODING 43255
SWIDTH 960 0
DWIDTH 24 0
BBX 24 24 0 -6
BITMAP
000000
000000
000000
000000
000000
000800
3809F0
3813F8
181318
182318
182018
184070
184078
188018
188318
190318
1903F8
1A01F0
020000
000000
000000
000000
000000
000000
ENDCHAR

STARTCHAR A8F8
ENCODING 43256
SWIDTH 960 0
DWIDTH 24 0
BBX 24 24 0 -6
BITMAP
000000
000000
000000
000000
000000
000200
3E02F8
7F05FC
63058C
63098C
03080C
061038
0C100C
18200C
30218C
60418C
7F41FC
7F80F8
008000
000000
000000
000000
000000
000000
ENDCHAR

STARTCHAR A8F9
ENCODING 43257
SWIDTH 960 0
DWIDTH 24 0
BBX 24 24 0 -6
BITMAP
000000
000000
000000
000000
000000
000400
380430
380830
180870
181070
1810F0
1820B0
1821B0
184130
1843FC
1883FC
188030
190030
010000
000000
000000
000000
000000
000000
ENDCHAR

STARTCHAR A8FA
ENCODING 43258
SWIDTH 960 0
DWIDTH 24 0
BBX 24 24 0 -6
BITMAP
000000
000000
000000
000000
000000
000100
1F0130
3F8230
318270
018470
0184F0
0708B0
0189B0
019130
0193FC
31A3FC
3FA030
1F4030
004000
000000
000000
000000
000000
000000
ENDCHAR

STARTCHAR A8FB
ENCODING 43259
SWIDTH 960 0
DWIDTH 24 0
BBX 24 24 0 -6
BITMAP
000000
000000
000000
000000
000000
000800
3809F0
3813F8
181318
182318
182318
1841F0
1841F0
188318
188318
190318
1903F8
1A01F0
020000
000000
000000
000000
000000
000000
ENDCHAR

STARTCHAR A8FC
ENCODING 43260
SWIDTH 960 0
DWIDTH 24 0
BBX 24 24 0 -6
BITMAP
000000
000000
000000
000000
000000
000100
3E017C
7F02FE
6302C6
6304C6
0304C6
0E087C
0E08FE
0310C6
6310C6
6320C6
7F20FE
3E407C
004000
000000
000000
000000
000000
000000
ENDCHAR

STARTCHAR A8FD
ENCODING 43261
SWIDTH 960 0
DWIDTH 24 0
BBX 24 24 0 -6
BITMAP
000000
000000
000000
000000
000000
000100
7F017C
7F02FE
6002C6
6004C6
6004C6
7E087C
7F087C
0310C6
0310C6
6320C6
7F20FE
3E407C
004000
000000
000000
000000
000000
000000
ENDCHAR

STARTCHAR A8FE
ENCODING 43262
SWIDTH 960 0
DWIDTH 24 0
BBX 24 24 0 -6
BITMAP
000000
000000
000000
000000
000000
000200
7F027C
7F04FE
6304C6
6308C6
0208C6
06107C
06107C
0420C6
0C20C6
0C40C6
0C40FE
0C807C
008000
000000
000000
000000
000000
000000
ENDCHAR

STARTCHAR A9A1
ENCODING 43425
SWIDTH 960 0
DWIDTH 24 0
BBX 24 24 0 -6
BITMAP
000000
000000
000000
000000
000000
000000
000000
01E380
0334C0
0318C0
0018C0
007FC0
019800
031800
0318C0
032CC0
01C780
000000
000000
000000
000000
000000
000000
000000
ENDCHAR

STARTCHAR A9A2
ENCODING 43426
SWIDTH 960 0
DWIDTH 24 0
BBX 24 24 0 -6
BITMAP
000000
000000
000000
000E00
000600
000600
007F80
000600
000600
003600
00CE00
008600
018600
018600
018600
018600
008600
00CE00
003300
000000
000000
000000
000000
000000
ENDCHAR

STARTCHAR A9A3
ENCODING 43427
SWIDTH 960 0
DWIDTH 24 0
BBX 24 24 0 -6
BITMAP
000000
000000
000000
000000
000000
000180
000300
003E00
006E00
00DB00
003300
000300
00FF00
00C300
00C300
004600
003C00
000000
000000
000000
000000
000000
000000
000000
ENDCHAR

STARTCHAR A9A4
ENCODING 43428
SWIDTH 960 0
DWIDTH 24 0
BBX 24 24 0 -6
BITMAP
000000
000000
000000
000000
006000
00E000
006000
006000
01FF00
006000
006E00
007300
006180
006180
006180
006180
006180
006180
006180
00F3C0
000000
000000
000000
000000
ENDCHAR

STARTCHAR A9A5
ENCODING 43429
SWIDTH 960 0
DWIDTH 24 0
BBX 24 24 0 -6
BITMAP
000000
000000
000000
000000
000000
000000
000000
000000
001800
003800
001800
001800
001800
001800
001800
001800
001800
003C00
000000
000000
000000
000000
000000
000000
ENDCHAR

STARTCHAR A9A6
ENCODING 43430
SWIDTH 960 0
DWIDTH 24 0
BBX 24 24 0 -6
BITMAP
000000
000000
000000
00C180
00C180
000000
000000
000000
00C180
01C380
00C180
00C180
00C180
00C180
00C180
00C180
00C180
01E180
000D80
000D80
000700
000000
000000
000000
ENDCHAR

STARTCHAR A9A7
ENCODING 43431
SWIDTH 960 0
DWIDTH 24 0
BBX 24 24 0 -6
BITMAP
000000
000000
000000
000000
000000
000000
000000
01CF80
00C600
00CC00
00D800
00F000
00D800
00CC00
00C600
00C300
01E7C0
000000
000000
000000
000000
000000
000000
000000
ENDCHAR

STARTCHAR A9A8
ENCODING 43432
SWIDTH 960 0
DWIDTH 24 0
BBX 24 24 0 -6
BITMAP
000000
000000
000000
000000
00C000
01C000
00C000
00C000
00C000
00C000
00C380
00C380
00C380
00C000
00C000
00C000
00C000
00C000
00C000
01E000
000000
000000
000000
000000
ENDCHAR

STARTCHAR A9A9
ENCODING 43433
SWIDTH 960 0
DWIDTH 24 0
BBX 24 24 0 -6
BITMAP
000000
000000
000000
000000
001800
003800
001800
001880
001900
001A00
001C00
001800
001800
003800
005800
009800
011800
001800
001800
003C00
000000
000000
000000
000000
ENDCHAR

STARTCHAR A9AA
ENCODING 43434
SWIDTH 960 0
DWIDTH 24 0
BBX 24 24 0 -6
BITMAP
000000
000000
000600
000600
000400
000400
000400
001E00
003700
006580
006980
00C980
00C980
00CB00
00CB00
006E00
003C00
001000
001000
001000
003000
003000
000000
000000
ENDCHAR

STARTCHAR A9AB
ENCODING 43435
SWIDTH 960 0
DWIDTH 24 0
BBX 24 24 0 -6
BITMAP
000000
000000
000000
000000
000000
000000
01E3C0
033460
061830
061830
061FF0
061800
061800
061830
033460
01E3C0
000000
000000
000000
000000
000000
000000
000000
000000
ENDCHAR

STARTCHAR A9AC
ENCODING 43436
SWIDTH 960 0
DWIDTH 24 0
BBX 24 24 0 -6
BITMAP
000000
000000
000000
000C00
001600
001200
002200
002200
002400
004400
004800
004800
004400
008200
008200
008200
008200
00FC00
008000
008000
008000
000000
000000
000000
ENDCHAR

STARTCHAR A9AD
ENCODING 43437
SWIDTH 960 0
DWIDTH 24 0
BBX 24 24 0 -6
BITMAP
000000
000000
000000
000000
01E000
00C000
00C000
00FC00
00C300
00C180
00C180
00C180
00C180
00C100
00C300
00C600
00F800
00C000
00C000
01E000
000000
000000
000000
000000
ENDCHAR

STARTCHAR A9AE
ENCODING 43438
SWIDTH 960 0
DWIDTH 24 0
BBX 24 24 0 -6
BITMAP
000000
000000
000000
001000
001800
001000
007000
019000
001000
003000
00FE00
003000
003000
003000
003000
003000
003000
003200
001200
000C00
000000
000000
000000
000000
ENDCHAR

STARTCHAR A9AF
ENCODING 43439
SWIDTH 960 0
DWIDTH 24 0
BBX 24 24 0 -6
BITMAP
000000
000000
000000
000000
01DE00
00E300
00C300
00C300
00C300
00C300
00C300
00C300
00C300
01E300
000300
000300
000300
006200
006600
003C00
000000
000000
000000
000000
ENDCHAR

STARTCHAR A9B0
ENCODING 43440
SWIDTH 960 0
DWIDTH 24 0
BBX 24 24 0 -6
BITMAP
000000
000000
000000
010000
038000
030000
060000
040000
000000
003BC0
001C60
001860
001860
001860
001860
001860
001860
001860
003CF0
000000
000000
000000
000000
000000
ENDCHAR

STARTCHAR A9B1
ENCODING 43441
SWIDTH 960 0
DWIDTH 24 0
BBX 24 24 0 -6
BITMAP
000000
000000
080010
080010
100008
100008
100008
21FF04
21FF04
200304
200304
200304
200304
200304
200304
200304
200304
100308
100008
100008
080010
080010
000000
000000
ENDCHAR

STARTCHAR A9B2
ENCODING 43442
SWIDTH 960 0
DWIDTH 24 0
BBX 24 24 0 -6
BITMAP
000000
000000
080010
080010
100008
100008
100008
20C004
20C004
20C004
20C004
20C004
20C004
20C004
20FF84
20FF84
200004
100008
100008
100008
080010
080010
000000
000000
ENDCHAR

STARTCHAR A9B3
ENCODING 43443
SWIDTH 960 0
DWIDTH 24 0
BBX 24 24 0 -6
BITMAP
000000
000000
080010
080010
100008
100008
100008
200004
21FF04
21FF04
218004
218004
218004
218004
21FF04
21FF04
200004
100008
100008
100008
080010
080010
000000
000000
ENDCHAR

STARTCHAR A9B4
ENCODING 43444
SWIDTH 960 0
DWIDTH 24 0
BBX 24 24 0 -6
BITMAP
000000
000000
080010
080010
100008
100008
100008
21FF04
21FF04
200304
200304
21FF04
21FF04
218004
218004
21FF04
21FF04
100008
100008
100008
080010
080010
000000
000000
ENDCHAR

STARTCHAR A9B5
ENCODING 43445
SWIDTH 960 0
DWIDTH 24 0
BBX 24 24 0 -6
BITMAP
000000
000000
080010
080010
100008
100008
100008
21FF04
21FF04
218304
218304
218304
218304
218304
218304
21FF04
21FF04
100008
100008
100008
080010
080010
000000
000000
ENDCHAR

STARTCHAR A9B6
ENCODING 43446
SWIDTH 960 0
DWIDTH 24 0
BBX 24 24 0 -6
BITMAP
000000
000000
080010
080010
100008
100008
100008
20C184
20C184
20C184
20FF84
20FF84
20C184
20C184
20C184
20FF84
20FF84
100008
100008
100008
080010
080010
000000
000000
ENDCHAR

STARTCHAR A9B7
ENCODING 43447
SWIDTH 960 0
DWIDTH 24 0
BBX 24 24 0 -6
BITMAP
000000
000000
080010
080010
100008
100008
100008
201804
201804
201804
201804
203C04
202404
206604
20C304
2381C4
210084
100008
100008
100008
080010
080010
000000
000000
ENDCHAR

STARTCHAR A9B8
ENCODING 43448
SWIDTH 960 0
DWIDTH 24 0
BBX 24 24 0 -6
BITMAP
000000
000000
080010
080010
100008
100008
100008
207E04
20FF04
21C384
218184
218184
218184
218184
21C384
20FF04
207E04
100008
100008
100008
080010
080010
000000
000000
ENDCHAR

STARTCHAR A9B9
ENCODING 43449
SWIDTH 960 0
DWIDTH 24 0
BBX 24 24 0 -6
BITMAP
000000
000000
080010
080010
100008
100008
100008
21FF84
21FF84
201804
201804
203C04
203C04
206604
20E704
21C384
208104
100008
100008
100008
080010
080010
000000
000000
ENDCHAR

STARTCHAR A9BA
ENCODING 43450
SWIDTH 960 0
DWIDTH 24 0
BBX 24 24 0 -6
BITMAP
000000
000000
080010
080010
100008
100008
101808
201804
201804
21FF84
21FF84
201804
201804
203C04
206604
20C304
21C384
108108
100008
100008
080010
080010
000000
000000
ENDCHAR

STARTCHAR A9BB
ENCODING 43451
SWIDTH 960 0
DWIDTH 24 0
BBX 24 24 0 -6
BITMAP
000000
000000
080010
080010
100008
100008
100008
23FF84
23FF84
200184
200184
200184
21FF84
21FF84
200184
200184
200184
100188
100008
100008
080010
080010
000000
000000
ENDCHAR

STARTCHAR A9BC
ENCODING 43452
SWIDTH 960 0
DWIDTH 24 0
BBX 24 24 0 -6
BITMAP
000000
000000
080010
080010
100008
100008
100008
21FF84
21FF84
218004
218004
21FF84
21FF84
218004
218004
21FF84
21FF84
100008
100008
100008
080010
080010
000000
000000
ENDCHAR

STARTCHAR A9BD
ENCODING 43453
SWIDTH 960 0
DWIDTH 24 0
BBX 24 24 0 -6
BITMAP
000000
000000
080010
080010
100008
100008
100008
21FFC4
21FFC4
206304
206304
206304
206304
206304
206304
21FFC4
21FFC4
100008
100008
100008
080010
080010
000000
000000
ENDCHAR

STARTCHAR A9BE
ENCODING 43454
SWIDTH 960 0
DWIDTH 24 0
BBX 24 24 0 -6
BITMAP
000000
000000
080010
080010
100008
100008
101808
201804
23FFC4
23FFC4
200004
200004
20FF04
21FF84
218184
218184
21FF84
10FF08
100008
100008
080010
080010
000000
000000
ENDCHAR

STARTCHAR A9BF
ENCODING 43455
SWIDTH 960 0
DWIDTH 24 0
BBX 24 24 0 -6
BITMAP
000000
000000
080010
080010
100008
100308
100308
27F304
27F304
203304
203304
2073E4
2063E4
20E304
21C304
238304
270304
120308
100308
100008
080010
080010
000000
000000
ENDCHAR

STARTCHAR A9C0
ENCODING 43456
SWIDTH 960 0
DWIDTH 24 0
BBX 24 24 0 -6
BITMAP
000000
000000
080010
080010
100008
100308
100308
218304
218304
218304
218304
2183E4
2183E4
218304
21FF04
21FF04
200304
100308
100308
100008
080010
080010
000000
000000
ENDCHAR

STARTCHAR A9C1
ENCODING 43457
SWIDTH 960 0
DWIDTH 24 0
BBX 24 24 0 -6
BITMAP
000000
000000
080010
080010
100308
100308
100308
23FB04
23FB04
230304
2303E4
2303E4
230304
230304
23FB04
23FB04
200304
100308
100308
100008
080010
080010
000000
000000
ENDCHAR

STARTCHAR A9C2
ENCODING 43458
SWIDTH 960 0
DWIDTH 24 0
BBX 24 24 0 -6
BITMAP
000000
000000
080010
080010
100008
100188
100188
23F984
23F984
201984
201984
23F9F4
23F9F4
230184
230184
23F984
23F984
100188
100188
100008
080010
080010
000000
000000
ENDCHAR

STARTCHAR A9C3
ENCODING 43459
SWIDTH 960 0
DWIDTH 24 0
BBX 24 24 0 -6
BITMAP
000000
000000
080010
080010
100008
100308
100308
23F304
23F304
233304
233304
2333E4
2333E4
233304
233304
23F304
23F304
100308
100308
100008
080010
080010
000000
000000
ENDCHAR

STARTCHAR A9C4
ENCODING 43460
SWIDTH 960 0
DWIDTH 24 0
BBX 24 24 0 -6
BITMAP
000000
000000
080010
080010
100008
100188
100188
231984
231984
231984
23F9F4
23F9F4
231984
231984
231984
23F984
23F984
100188
100188
100008
080010
080010
000000
000000
ENDCHAR

STARTCHAR A9C5
ENCODING 43461
SWIDTH 960 0
DWIDTH 24 0
BBX 24 24 0 -6
BITMAP
000000
000000
080010
080010
100008
100188
10C188
20C184
20C184
20C184
20C184
21E1F4
21E1F4
212184
233184
233184
261984
121188
100188
100008
080010
080010
000000
000000
ENDCHAR

STARTCHAR A9C6
ENCODING 43462
SWIDTH 960 0
DWIDTH 24 0
BBX 24 24 0 -6
BITMAP
000000
000000
080010
080010
100008
100188
100188
21E184
23F184
273984
261984
2619F4
2619F4
261984
273984
23F184
21E184
100188
100188
100008
080010
080010
000000
000000
ENDCHAR

STARTCHAR A9C7
ENCODING 43463
SWIDTH 960 0
DWIDTH 24 0
BBX 24 24 0 -6
BITMAP
000000
000000
080010
080010
100008
100188
100188
27F984
27F984
20C184
20C184
20C1F4
21E1F4
21E184
233184
233184
263984
121188
100188
100008
080010
080010
000000
000000
ENDCHAR

STARTCHAR A9C8
ENCODING 43464
SWIDTH 960 0
DWIDTH 24 0
BBX 24 24 0 -6
BITMAP
000000
000000
080010
080010
100008
13F188
13F188
200184
200184
27F984
27F984
20C1F4
20C1F4
21E184
21E184
233184
273984
121188
100188
100008
080010
080010
000000
000000
ENDCHAR

STARTCHAR A9C9
ENCODING 43465
SWIDTH 960 0
DWIDTH 24 0
BBX 24 24 0 -6
BITMAP
000000
000000
080010
080010
100008
100188
17F188
27F184
203184
203184
27F184
27F1F4
2071F4
206184
20E184
21C184
278184
130188
100188
100008
080010
080010
000000
000000
ENDCHAR

STARTCHAR A9CA
ENCODING 43466
SWIDTH 960 0
DWIDTH 24 0
BBX 24 24 0 -6
BITMAP
000000
000000
080010
080010
100008
100188
100188
23F984
23F984
230184
230184
23F9F4
23F9F4
230184
230184
23F984
23F984
100188
100188
100008
080010
080010
000000
000000
ENDCHAR

STARTCHAR A9CB
ENCODING 43467
SWIDTH 960 0
DWIDTH 24 0
BBX 24 24 0 -6
BITMAP
000000
000000
080010
080010
100008
100188
100188
27FD84
27FD84
231984
231984
2319F4
2319F4
231984
231984
27FD84
27FD84
100188
100188
100008
080010
080010
000000
000000
ENDCHAR

STARTCHAR A9CC
ENCODING 43468
SWIDTH 960 0
DWIDTH 24 0
BBX 24 24 0 -6
BITMAP
000000
000000
080010
080010
11F188
11F188
100188
200184
27FD84
27FD84
2001F4
2001F4
21F184
23F984
231984
231984
23F984
11F188
100188
100008
080010
080010
000000
000000
ENDCHAR

STARTCHAR A9CD
ENCODING 43469
SWIDTH 960 0
DWIDTH 24 0
BBX 24 24 0 -6
BITMAP
000000
000000
080010
080010
100008
100008
100008
20FC04
20FE04
200604
200604
207E04
20FE04
20C604
20C604
20FF84
207B84
100008
100008
100008
080010
080010
000000
000000
ENDCHAR

STARTCHAR A9CE
ENCODING 43470
SWIDTH 960 0
DWIDTH 24 0
BBX 24 24 0 -6
BITMAP
000000
000000
080010
080010
100008
10C008
10C008
20C004
20C004
20DC04
20FE04
20E704
20C304
20C304
20C304
20C304
20E704
10FE08
10DC08
100008
080010
080010
000000
000000
ENDCHAR

STARTCHAR A9CF
ENCODING 43471
SWIDTH 960 0
DWIDTH 24 0
BBX 24 24 0 -6
BITMAP
000000
000000
080010
080010
100008
100008
100008
203E04
207F04
20E304
20C004
20C004
20C004
20C004
20E304
207F04
203E04
100008
100008
100008
080010
080010
000000
000000
ENDCHAR

STARTCHAR A9D0
ENCODING 43472
SWIDTH 960 0
DWIDTH 24 0
BBX 24 24 0 -6
BITMAP
000000
000000
080010
080010
100008
100308
100308
200304
200304
203B04
207F04
20E704
20C304
20C304
20C304
20C304
20E704
107F08
103B08
100008
080010
080010
000000
000000
ENDCHAR

STARTCHAR A9D1
ENCODING 43473
SWIDTH 960 0
DWIDTH 24 0
BBX 24 24 0 -6
BITMAP
000000
000000
080010
080010
100008
100008
100008
203C04
207E04
20C304
20C304
20FF04
20FF04
20C004
20C304
207E04
203C04
100008
100008
100008
080010
080010
000000
000000
ENDCHAR

STARTCHAR A9D2
ENCODING 43474
SWIDTH 960 0
DWIDTH 24 0
BBX 24 24 0 -6
BITMAP
000000
000000
080010
080010
100008
101E08
103E08
203004
203004
20FE04
20FE04
203004
203004
203004
203004
203004
203004
103008
103008
100008
080010
080010
000000
000000
ENDCHAR

STARTCHAR A9D3
ENCODING 43475
SWIDTH 960 0
DWIDTH 24 0
BBX 24 24 0 -6
BITMAP
000000
000000
080010
080010
100008
103608
107E08
20C604
20C604
20C604
20C604
207E04
203E04
200604
200604
20C604
20C604
107C08
103808
100008
080010
080010
000000
000000
ENDCHAR

STARTCHAR A9D4
ENCODING 43476
SWIDTH 960 0
DWIDTH 24 0
BBX 24 24 0 -6
BITMAP
000000
000000
080010
080010
100008
106008
106008
206004
206004
206004
206E04
207F04
207304
206304
206304
206304
206304
106308
106308
100008
080010
080010
000000
000000
ENDCHAR

STARTCHAR A9D5
ENCODING 43477
SWIDTH 960 0
DWIDTH 24 0
BBX 24 24 0 -6
BITMAP
000000
000000
080010
080010
100008
101808
101808
200004
200004
200004
201804
201804
201804
201804
201804
201804
201804
101808
101808
100008
080010
080010
000000
000000
ENDCHAR

STARTCHAR A9D6
ENCODING 43478
SWIDTH 960 0
DWIDTH 24 0
BBX 24 24 0 -6
BITMAP
000000
000000
080010
080010
100008
101808
101808
200004
200004
201804
201804
201804
201804
201804
201804
201804
201804
107808
107008
100008
080010
080010
000000
000000
ENDCHAR

STARTCHAR A9D7
ENCODING 43479
SWIDTH 960 0
DWIDTH 24 0
BBX 24 24 0 -6
BITMAP
000000
000000
080010
080010
100008
10C008
10C008
20C004
20C004
20C304
20C604
20CC04
20D804
20F004
20F004
20D804
20CC04
10C608
10C308
100008
080010
080010
000000
000000
ENDCHAR

STARTCHAR A9D8
ENCODING 43480
SWIDTH 960 0
DWIDTH 24 0
BBX 24 24 0 -6
BITMAP
000000
000000
080010
080010
100008
101808
101808
201804
201804
201804
201804
201804
201804
201804
201804
201804
201804
101808
101808
100008
080010
080010
000000
000000
ENDCHAR

STARTCHAR A9D9
ENCODING 43481
SWIDTH 960 0
DWIDTH 24 0
BBX 24 24 0 -6
BITMAP
000000
000000
080010
080010
100008
100008
100008
237784
23FFC4
239CC4
2318C4
2318C4
2318C4
2318C4
2318C4
2318C4
2318C4
100008
100008
100008
080010
080010
000000
000000
ENDCHAR

STARTCHAR A9DA
ENCODING 43482
SWIDTH 960 0
DWIDTH 24 0
BBX 24 24 0 -6
BITMAP
000000
000000
080010
080010
100008
100008
100008
20DE04
20FF04
20E304
20C304
20C304
20C304
20C304
20C304
20C304
20C304
100008
100008
100008
080010
080010
000000
000000
ENDCHAR

STARTCHAR A9DB
ENCODING 43483
SWIDTH 960 0
DWIDTH 24 0
BBX 24 24 0 -6
BITMAP
000000
000000
080010
080010
100008
100008
100008
203C04
207E04
20E704
20C304
20C304
20C304
20C304
20E704
207E04
203C04
100008
100008
100008
080010
080010
000000
000000
ENDCHAR

STARTCHAR A9DC
ENCODING 43484
SWIDTH 960 0
DWIDTH 24 0
BBX 24 24 0 -6
BITMAP
000000
000000
080010
080010
100008
10DC08
10FE08
20E704
20C304
20C304
20C304
20C304
20E704
20FE04
20DC04
20C004
20C004
10C008
10C008
100008
080010
080010
000000
000000
ENDCHAR

STARTCHAR A9DD
ENCODING 43485
SWIDTH 960 0
DWIDTH 24 0
BBX 24 24 0 -6
BITMAP
000000
000000
080010
080010
100008
107B08
10FF08
21C704
218304
218304
218304
218304
21C704
20FF04
207B04
200304
200304
100308
100308
100008
080010
080010
000000
000000
ENDCHAR

STARTCHAR A9DE
ENCODING 43486
SWIDTH 960 0
DWIDTH 24 0
BBX 24 24 0 -6
BITMAP
000000
000000
080010
080010
100008
100008
100008
206704
206F04
207804
207004
206004
206004
206004
206004
206004
206004
100008
100008
100008
080010
080010
000000
000000
ENDCHAR

STARTCHAR A9DF
ENCODING 43487
SWIDTH 960 0
DWIDTH 24 0
BBX 24 24 0 -6
BITMAP
000000
000000
080010
080010
100008
100008
103E08
207F04
20C304
20C004
20C004
207C04
203E04
200304
200304
20C304
20FE04
107C08
100008
100008
080010
080010
000000
000000
ENDCHAR

STARTCHAR A9E0
ENCODING 43488
SWIDTH 960 0
DWIDTH 24 0
BBX 24 24 0 -6
BITMAP
000000
000000
080010
080010
100008
103008
103008
203004
203004
20FE04
20FE04
203004
203004
203004
203004
203004
203004
103C08
101C08
100008
080010
080010
000000
000000
ENDCHAR

STARTCHAR A9E1
ENCODING 43489
SWIDTH 960 0
DWIDTH 24 0
BBX 24 24 0 -6
BITMAP
000000
000000
080010
080010
100008
100008
100008
20C304
20C304
20C304
20C304
20C304
20C304
20C304
20E704
207F84
203984
100008
100008
100008
080010
080010
000000
000000
ENDCHAR

STARTCHAR A9E2
ENCODING 43490
SWIDTH 960 0
DWIDTH 24 0
BBX 24 24 0 -6
BITMAP
000000
000000
080010
080010
100008
100008
100008
20C304
20C304
20C304
206604
206604
202404
203C04
203C04
201804
201804
100008
100008
100008
080010
080010
000000
000000
ENDCHAR

STARTCHAR A9E3
ENCODING 43491
SWIDTH 960 0
DWIDTH 24 0
BBX 24 24 0 -6
BITMAP
000000
000000
080010
080010
100008
100008
100008
2318C4
2318C4
2318C4
21BD84
21A584
21A584
21E784
20C304
20C304
20C304
100008
100008
100008
080010
080010
000000
000000
ENDCHAR

STARTCHAR A9E4
ENCODING 43492
SWIDTH 960 0
DWIDTH 24 0
BBX 24 24 0 -6
BITMAP
000000
000000
080010
080010
100008
100008
100008
20C304
20C304
206604
203C04
201804
201804
203C04
206604
20C304
20C304
100008
100008
100008
080010
080010
000000
000000
ENDCHAR

STARTCHAR A9E5
ENCODING 43493
SWIDTH 960 0
DWIDTH 24 0
BBX 24 24 0 -6
BITMAP
000000
000000
080010
080010
100008
10C188
10C188
206304
206304
203604
203604
201C04
201C04
201804
201804
203004
203004
106008
106008
100008
080010
080010
000000
000000
ENDCHAR

STARTCHAR A9E6
ENCODING 43494
SWIDTH 960 0
DWIDTH 24 0
BBX 24 24 0 -6
BITMAP
000000
000000
080010
080010
100008
100008
100008
20FE04
20FE04
200C04
200804
201804
203004
202004
206004
20FE04
20FE04
100008
100008
100008
080010
080010
000000
000000
ENDCHAR

STARTCHAR A9E7
ENCODING 43495
SWIDTH 960 0
DWIDTH 24 0
BBX 24 24 0 -6
BITMAP
000000
000000
080010
080010
100008
100008
103808
203804
201804
201804
201804
201804
201804
201804
201804
201804
201804
101808
100008
100008
080010
080010
000000
000000
ENDCHAR

STARTCHAR A9E8
ENCODING 43496
SWIDTH 960 0
DWIDTH 24 0
BBX 24 24 0 -6
BITMAP
000000
000000
080010
080010
100008
100008
107E08
20FF04
20C304
20C304
200304
200704
200E04
203C04
207004
20E004
20FF04
10FF08
100008
100008
080010
080010
000000
000000
ENDCHAR

STARTCHAR A9E9
ENCODING 43497
SWIDTH 960 0
DWIDTH 24 0
BBX 24 24 0 -6
BITMAP
000000
000000
080010
080010
100008
100008
107E08
20FF04
20C304
200304
200304
201E04
201E04
200304
200304
20C304
20FF04
107E08
100008
100008
080010
080010
000000
000000
ENDCHAR

STARTCHAR A9EA
ENCODING 43498
SWIDTH 960 0
DWIDTH 24 0
BBX 24 24 0 -6
BITMAP
000000
000000
080010
080010
100008
100008
101C08
201C04
203C04
203C04
206C04
206C04
20CC04
20CC04
21FF04
21FF04
200C04
100C08
100C08
100008
080010
080010
000000
000000
ENDCHAR

STARTCHAR A9EB
ENCODING 43499
SWIDTH 960 0
DWIDTH 24 0
BBX 24 24 0 -6
BITMAP
000000
000000
080010
080010
100008
100008
10FF08
20FF04
20C004
20C004
20FE04
20FF04
200304
200304
200304
20C304
20FF04
107E08
100008
100008
080010
080010
000000
000000
ENDCHAR

STARTCHAR A9EC
ENCODING 43500
SWIDTH 960 0
DWIDTH 24 0
BBX 24 24 0 -6
BITMAP
000000
000000
080010
080010
100008
100008
107E08
20FF04
20C304
20C004
20C004
20FE04
20FF04
20C304
20C304
20C304
20FF04
107E08
100008
100008
080010
080010
000000
000000
ENDCHAR

STARTCHAR A9ED
ENCODING 43501
SWIDTH 960 0
DWIDTH 24 0
BBX 24 24 0 -6
BITMAP
000000
000000
080010
080010
100008
100008
10FF08
20FF04
20C304
20C604
200604
200604
200C04
200C04
200C04
201804
201804
101808
100008
100008
080010
080010
000000
000000
ENDCHAR

STARTCHAR A9EE
ENCODING 43502
SWIDTH 960 0
DWIDTH 24 0
BBX 24 24 0 -6
BITMAP
000000
000000
080010
080010
100008
100008
107E08
20FF04
20C304
20C304
20C304
207E04
207E04
20C304
20C304
20C304
20FF04
107E08
100008
100008
080010
080010
000000
000000
ENDCHAR

STARTCHAR A9EF
ENCODING 43503
SWIDTH 960 0
DWIDTH 24 0
BBX 24 24 0 -6
BITMAP
000000
000000
080010
080010
100008
100008
107E08
20FF04
20C304
20C304
20C304
20FF04
207F04
200304
200304
20C304
20FF04
107E08
100008
100008
080010
080010
000000
000000
ENDCHAR

STARTCHAR A9F0
ENCODING 43504
SWIDTH 960 0
DWIDTH 24 0
BBX 24 24 0 -6
BITMAP
000000
000000
080010
080010
100008
100008
138F88
239FC4
2198C4
2198C4
2198C4
2198C4
2198C4
2198C4
2198C4
2198C4
219FC4
118F88
100008
100008
080010
080010
000000
000000
ENDCHAR

STARTCHAR A9F1
ENCODING 43505
SWIDTH 960 0
DWIDTH 24 0
BBX 24 24 0 -6
BITMAP
000000
000000
080010
080010
100008
100008
10E708
20E704
206304
206304
206304
206304
206304
206304
206304
206304
206304
106308
100008
100008
080010
080010
000000
000000
ENDCHAR

STARTCHAR A9F2
ENCODING 43506
SWIDTH 960 0
DWIDTH 24 0
BBX 24 24 0 -6
BITMAP
000000
000000
080010
080010
100008
100008
138F88
239FC4
2198C4
2198C4
2180C4
218184
218304
218604
218C04
219804
219FC4
119FC8
100008
100008
080010
080010
000000
000000
ENDCHAR

STARTCHAR A9F3
ENCODING 43507
SWIDTH 960 0
DWIDTH 24 0
BBX 24 24 0 -6
BITMAP
000000
000000
080010
080010
100008
100008
138F88
239FC4
2198C4
2180C4
2180C4
218784
218784
2180C4
2180C4
2198C4
219FC4
118F88
100008
100008
080010
080010
000000
000000
ENDCHAR

STARTCHAR A9F4
ENCODING 43508
SWIDTH 960 0
DWIDTH 24 0
BBX 24 24 0 -6
BITMAP
000000
000000
080010
080010
100008
100008
138388
238384
218784
218784
218D84
218D84
219984
219984
219FC4
219FC4
218184
118188
100008
100008
080010
080010
000000
000000
ENDCHAR

STARTCHAR A9F5
ENCODING 43509
SWIDTH 960 0
DWIDTH 24 0
BBX 24 24 0 -6
BITMAP
000000
000000
080010
080010
100008
100008
139FC8
239FC4
219804
219804
219F84
219FC4
2180C4
2180C4
2180C4
2198C4
219FC4
118F88
100008
100008
080010
080010
000000
000000
ENDCHAR

STARTCHAR A9F6
ENCODING 43510
SWIDTH 960 0
DWIDTH 24 0
BBX 24 24 0 -6
BITMAP
000000
000000
003800
001800
001800
001800
001800
001800
001800
001800
000000
000000
000000
000000
000000
000000
000000
000000
000000
000000
000000
000000
000000
000000
ENDCHAR

STARTCHAR A9F7
ENCODING 43511
SWIDTH 960 0
DWIDTH 24 0
BBX 24 24 0 -6
BITMAP
000000
000000
00FE00
00FF00
000300
007F00
00FE00
00C000
00FF00
00FF00
000000
000000
000000
000000
000000
000000
000000
000000
000000
000000
000000
000000
000000
000000
ENDCHAR

STARTCHAR A9F8
ENCODING 43512
SWIDTH 960 0
DWIDTH 24 0
BBX 24 24 0 -6
BITMAP
000000
000000
00FE00
00FF00
000300
00FE00
00FF00
000300
00FF00
00FE00
000000
000000
000000
000000
000000
000000
000000
000000
000000
000000
000000
000000
000000
000000
ENDCHAR

STARTCHAR A9F9
ENCODING 43513
SWIDTH 960 0
DWIDTH 24 0
BBX 24 24 0 -6
BITMAP
000000
000000
000C00
001C00
003C00
006C00
00FF00
00FF00
000C00
000C00
000000
000000
000000
000000
000000
000000
000000
000000
000000
000000
000000
000000
000000
000000
ENDCHAR

STARTCHAR A9FA
ENCODING 43514
SWIDTH 960 0
DWIDTH 24 0
BBX 24 24 0 -6
BITMAP
000000
000000
00FE00
00FF00
00C300
00C300
00C300
00C300
00C300
00C300
000000
000000
000000
000000
000000
000000
000000
000000
000000
000000
000000
000000
000000
000000
ENDCHAR

STARTCHAR A9FB
ENCODING 43515
SWIDTH 960 0
DWIDTH 24 0
BBX 24 24 0 -6
BITMAP
000000
000000
000000
000000
000000
000000
000000
000000
000000
000000
000000
000000
000000
000000
003800
001800
001800
001800
001800
001800
001800
001800
000000
000000
ENDCHAR

STARTCHAR A9FC
ENCODING 43516
SWIDTH 960 0
DWIDTH 24 0
BBX 24 24 0 -6
BITMAP
000000
000000
000000
000000
000000
000000
000000
000000
000000
000000
000000
000000
000000
000000
00FE00
00FF00
000300
007F00
00FE00
00C000
00FF00
00FF00
000000
000000
ENDCHAR

STARTCHAR A9FD
ENCODING 43517
SWIDTH 960 0
DWIDTH 24 0
BBX 24 24 0 -6
BITMAP
000000
000000
000000
000000
000000
000000
000000
000000
000000
000000
000000
000000
000000
000000
00FE00
00FF00
000300
00FE00
00FF00
000300
00FF00
00FE00
000000
000000
ENDCHAR

STARTCHAR A9FE
ENCODING 43518
SWIDTH 960 0
DWIDTH 24 0
BBX 24 24 0 -6
BITMAP
000000
000000
000000
000000
000000
000000
000000
000000
000000
000000
000000
000000
000000
000000
000C00
001C00
003C00
006C00
00FF00
00FF00
000C00
000C00
000000
000000
ENDCHAR

STARTCHAR AAA1
ENCODING 43681
SWIDTH 960 0
DWIDTH 24 0
BBX 24 24 0 -6
BITMAP
000000
000000
000000
000000
000000
000000
000000
000000
002000
002000
003E00
01FE00
01E000
002400
003F00
006580
00ACC0
0128C0
0138C0
0371C0
01C780
000300
000000
000000
ENDCHAR

STARTCHAR AAA2
ENCODING 43682
SWIDTH 960 0
DWIDTH 24 0
BBX 24 24 0 -6
BITMAP
000000
000000
006000
006000
006000
006300
006F00
07FE00
07F800
006000
006000
006F80
007FE0
00FC60
01EC30
037830
027030
06E030
07F060
0330E0
0007C0
000700
000000
000000
ENDCHAR

STARTCHAR AAA3
ENCODING 43683
SWIDTH 960 0
DWIDTH 24 0
BBX 24 24 0 -6
BITMAP
000000
000000
000000
000000
000000
000000
000000
000000
000000
000000
000000
000000
018000
018100
018380
0181C0
0180C0
0180E0
01D860
00D800
00F000
006000
000000
000000
ENDCHAR

STARTCHAR AAA4
ENCODING 43684
SWIDTH 960 0
DWIDTH 24 0
BBX 24 24 0 -6
BITMAP
000000
000000
000000
000000
000000
030000
030000
030000
030000
030000
030080
0601C0
0600E0
060060
060070
060030
063030
063000
036000
03E000
01C000
00C000
000000
000000
ENDCHAR

STARTCHAR AAA5
ENCODING 43685
SWIDTH 960 0
DWIDTH 24 0
BBX 24 24 0 -6
BITMAP
000000
000000
000000
000000
000000
000000
002000
007800
003E00
000C00
000000
000000
001E00
00FF00
00E300
000300
000300
000700
000600
000E00
001C00
000800
000000
000000
ENDCHAR

STARTCHAR AAA6
ENCODING 43686
SWIDTH 960 0
DWIDTH 24 0
BBX 24 24 0 -6
BITMAP
000000
000000
006000
007800
001E00
000600
000000
001F00
01FF80
01C1C0
0000C0
0000C0
0000C0
0000C0
0001C0
000180
000380
000300
000700
000E00
001C00
000800
000000
000000
ENDCHAR

STARTCHAR AAA7
ENCODING 43687
SWIDTH 960 0
DWIDTH 24 0
BBX 24 24 0 -6
BITMAP
000000
000000
000000
000000
000000
000000
000000
000000
003800
003E00
000E00
000000
000000
000C00
00FE00
00CC00
001800
003800
006C00
00C400
0187C0
0183C0
000000
000000
ENDCHAR

STARTCHAR AAA8
ENCODING 43688
SWIDTH 960 0
DWIDTH 24 0
BBX 24 24 0 -6
BITMAP
000000
000000
000000
004000
00F800
003F00
000600
000000
000700
003F80
03F300
018600
000C00
001800
003000
007800
00FC00
01CC00
038C00
070600
0207F0
0003F0
000000
000000
ENDCHAR

STARTCHAR AAA9
ENCODING 43689
SWIDTH 960 0
DWIDTH 24 0
BBX 24 24 0 -6
BITMAP
000000
000000
000000
000000
000000
000000
000000
000000
000000
006000
006080
007DC0
03FCE0
03E040
006000
007F00
01FF80
03E1C0
0360C0
0361C0
01E780
00C700
000000
000000
ENDCHAR

STARTCHAR AAAA
ENCODING 43690
SWIDTH 960 0
DWIDTH 24 0
BBX 24 24 0 -6
BITMAP
000000
000000
000000
006000
006000
006000
006020
006E70
00FE38
0FF01C
0F6008
006000
006000
006F80
00FFC0
03F0E0
076060
0E6060
0C60E0
0E67C0
07E780
01E000
000000
000000
ENDCHAR

STARTCHAR AAAB
ENCODING 43691
SWIDTH 960 0
DWIDTH 24 0
BBX 24 24 0 -6
BITMAP
000000
000000
000000
000000
006000
006000
006000
006040
00FCE0
0FFE70
0FC630
00C638
018618
018618
018600
030E00
030C00
060C00
061C00
0C7800
0C7000
000000
000000
000000
ENDCHAR

STARTCHAR AAAC
ENCODING 43692
SWIDTH 960 0
DWIDTH 24 0
BBX 24 24 0 -6
BITMAP
000000
000000
000030
000018
0060CC
006060
006030
006000
00FC40
0FFEE0
0FC670
00C630
018638
018618
018610
030C00
030C00
060C00
061800
0C7800
0C7000
000000
000000
000000
ENDCHAR

STARTCHAR AAAD
ENCODING 43693
SWIDTH 960 0
DWIDTH 24 0
BBX 24 24 0 -6
BITMAP
000000
000000
000000
000000
01C000
00C000
006600
007E00
03F800
03F000
0019C0
001FC0
07FF00
07FC00
000600
000700
00FF80
01FF00
038000
030000
03FE00
01FC00
000000
000000
ENDCHAR

STARTCHAR AAAE
ENCODING 43694
SWIDTH 960 0
DWIDTH 24 0
BBX 24 24 0 -6
BITMAP
000000
000000
000008
00001C
01C04E
00C0E4
006670
007E20
03F800
03F000
0019C0
001FC0
07FF00
07FC00
000600
000700
00FF80
01FF00
038000
030000
03FE00
01FC00
000000
000000
ENDCHAR

STARTCHAR AAAF
ENCODING 43695
SWIDTH 960 0
DWIDTH 24 0
BBX 24 24 0 -6
BITMAP
000000
000000
000800
000C00
001C00
001800
003000
006000
00C000
00C000
018000
018000
00C000
00C000
006000
002000
003000
001800
001800
000C00
000C00
000C00
000000
000000
ENDCHAR

STARTCHAR AAB0
ENCODING 43696
SWIDTH 960 0
DWIDTH 24 0
BBX 24 24 0 -6
BITMAP
000000
000000
001000
001800
003820
003070
006038
006090
00C1C0
00C0E0
018040
018000
018000
00C000
006000
003000
003000
001800
001800
000C00
000C00
000C00
000000
000000
ENDCHAR

STARTCHAR AAB1
ENCODING 43697
SWIDTH 960 0
DWIDTH 24 0
BBX 24 24 0 -6
BITMAP
000000
000000
000000
000600
060700
060300
060300
0603E0
0603E0
067F00
0C7F00
0C0300
0C0300
0D0300
0D8300
0F0300
0F0300
0E0600
060600
060600
000C00
000C00
000000
000000
ENDCHAR

STARTCHAR AAB2
ENCODING 43698
SWIDTH 960 0
DWIDTH 24 0
BBX 24 24 0 -6
BITMAP
000000
000008
00001C
00184E
181CE4
180C70
180C20
180F80
180F80
19FC00
31FC00
300C00
300C00
340C00
360C00
3C0C00
3C0C00
381800
181800
181800
003000
003000
000000
000000
ENDCHAR

STARTCHAR AAB3
ENCODING 43699
SWIDTH 960 0
DWIDTH 24 0
BBX 24 24 0 -6
BITMAP
000000
000000
000000
000000
000000
000000
000000
030300
03FF00
00FC00
000000
000000
000000
000000
018000
030000
060000
0780E0
03FFE0
00FF00
000000
000000
000000
000000
ENDCHAR

STARTCHAR AAB4
ENCODING 43700
SWIDTH 960 0
DWIDTH 24 0
BBX 24 24 0 -6
BITMAP
000000
000000
000008
00001C
00004E
0000E4
000070
030320
03FF00
00FC00
000000
000000
000000
000000
018000
030000
060000
0780E0
03FFE0
00FF00
000000
000000
000000
000000
ENDCHAR

STARTCHAR AAB5
ENCODING 43701
SWIDTH 960 0
DWIDTH 24 0
BBX 24 24 0 -6
BITMAP
000000
000000
000000
003000
003000
003000
001B80
03FF80
03FC00
000C00
000E00
000600
000700
01FB80
03FFC0
070380
060000
060000
070300
03FF00
01FE00
000000
000000
000000
ENDCHAR

STARTCHAR AAB6
ENCODING 43702
SWIDTH 960 0
DWIDTH 24 0
BBX 24 24 0 -6
BITMAP
000000
000010
000038
00609C
0061C8
0060E0
003640
07FE00
07F800
001800
000C00
000E00
000600
03FB00
07FF80
0E03C0
0C0080
0C0000
0E0000
07FC00
03FC00
000000
000000
000000
ENDCHAR

STARTCHAR AAB7
ENCODING 43703
SWIDTH 960 0
DWIDTH 24 0
BBX 24 24 0 -6
BITMAP
000000
000000
000000
000000
018000
018000
018000
018000
018000
018000
018000
018000
018000
018000
018000
018000
018040
0180E0
0181C0
01C780
00FE00
007800
000000
000000
ENDCHAR

STARTCHAR AAB8
ENCODING 43704
SWIDTH 960 0
DWIDTH 24 0
BBX 24 24 0 -6
BITMAP
000000
000000
000000
000000
018080
0181C0
0180E0
018240
018700
018380
018100
018000
018000
018000
018000
018000
018040
0180E0
0181C0
01C780
00FE00
007800
000000
000000
ENDCHAR

STARTCHAR AAB9
ENCODING 43705
SWIDTH 960 0
DWIDTH 24 0
BBX 24 24 0 -6
BITMAP
000000
000000
000C00
000C00
000C00
000C00
000FF8
1FFFF8
1FFC00
000C00
000C00
007C00
00F800
018C00
018C00
01FC00
00FC00
000800
001800
003800
01F000
01C000
000000
000000
ENDCHAR

STARTCHAR AABA
ENCODING 43706
SWIDTH 960 0
DWIDTH 24 0
BBX 24 24 0 -6
BITMAP
000000
000008
00189C
0019CE
0018E4
001840
001FF0
3FFFF0
3FF800
001800
001800
00F800
01F000
031800
031800
03F800
01F800
001000
003000
007000
03E000
038000
000000
000000
ENDCHAR

STARTCHAR AABB
ENCODING 43707
SWIDTH 960 0
DWIDTH 24 0
BBX 24 24 0 -6
BITMAP
000000
000000
000000
000300
000300
018300
018300
018300
018300
0183F8
01FFF8
3FFF00
3F8300
018300
018300
018300
018F00
018E00
018000
01C000
00FFC0
007FC0
000000
000000
ENDCHAR

STARTCHAR AABC
ENCODING 43708
SWIDTH 960 0
DWIDTH 24 0
BBX 24 24 0 -6
BITMAP
000000
000008
00001C
00030E
000324
018370
018338
018310
018300
0183F8
01FFF8
3FFF00
3F8300
018300
018300
018300
018F00
018E00
018000
01C000
00FFC0
007FC0
000000
000000
ENDCHAR

STARTCHAR AABD
ENCODING 43709
SWIDTH 960 0
DWIDTH 24 0
BBX 24 24 0 -6
BITMAP
000000
000000
000180
010180
038300
01C300
00E600
000600
000C38
001BF8
00FFC0
1FFB00
1F0600
000C00
001800
001800
003000
003000
003000
001800
001F80
000780
000000
000000
ENDCHAR

STARTCHAR AABE
ENCODING 43710
SWIDTH 960 0
DWIDTH 24 0
BBX 24 24 0 -6
BITMAP
000000
000008
00001C
00030E
020324
070670
038638
01CC10
000C00
001870
0037F0
01FF80
3FF600
3E0C00
001800
003000
003000
006000
006000
006000
003000
003F00
000F00
000000
ENDCHAR

STARTCHAR AABF
ENCODING 43711
SWIDTH 960 0
DWIDTH 24 0
BBX 24 24 0 -6
BITMAP
000000
000000
000000
006000
006000
006000
006000
007C00
0FFC00
0FC000
00C380
00C3F0
0080F0
018000
018000
018000
030000
030C00
030FF8
0603F8
060000
000000
000000
000000
ENDCHAR

STARTCHAR AAC0
ENCODING 43712
SWIDTH 960 0
DWIDTH 24 0
BBX 24 24 0 -6
BITMAP
000000
000000
000008
00601C
00600E
006024
006070
007C38
0FFC10
0FC000
00C380
00C3F0
0080F0
018000
018000
018000
030000
030C00
030FF8
0603F8
060000
000000
000000
000000
ENDCHAR

STARTCHAR AAC1
ENCODING 43713
SWIDTH 960 0
DWIDTH 24 0
BBX 24 24 0 -6
BITMAP
000000
000000
000000
00C000
00C000
00C000
00CF00
0FFF00
0FF000
00C000
00C000
00C000
00DF80
00FFC0
00E0E0
01C060
008060
000060
0000C0
0003C0
003F80
003C00
000000
000000
ENDCHAR

ENDFONT
